<svg width="64" height="80" viewBox="0 0 64 80" fill="none" xmlns="http://www.w3.org/2000/svg">
<path d="M2.23574 12.2755H61.5617C61.7193 12.2755 61.8376 12.4195 61.807 12.5741L48.6295 79.0486C48.6063 79.1657 48.5036 79.25 48.3843 79.25H15.4132C15.2939 79.25 15.1912 79.1657 15.168 79.0486L1.99051 12.5741C1.95987 12.4195 2.07815 12.2755 2.23574 12.2755Z" fill="#EF6898" stroke="#363636" stroke-width="1.5"/>
<path d="M43.4366 78.6441L55.4226 12.8813H61.0827L48.4308 78.6441H43.4366Z" fill="#EE4380"/>
<path d="M16.6281 78.6441L3.73283 12.8813H2.71479L15.61 78.6441H16.6281Z" fill="white"/>
<path d="M2.60273 29.9025H60.516C60.6759 29.9025 60.7947 30.0504 60.7601 30.2065L54.7549 57.359C54.7295 57.4735 54.628 57.555 54.5108 57.555H8.60801C8.49074 57.555 8.38923 57.4735 8.3639 57.359L2.35862 30.2065C2.32411 30.0504 2.44289 29.9025 2.60273 29.9025Z" fill="white" stroke="#363636" stroke-width="1.5"/>
<path d="M3.51153 9.41949L9.83564 0.75H53.9618L60.2859 9.41949H3.51153Z" fill="white" stroke="#363636" stroke-width="1.5"/>
<mask id="path-6-inside-1_2449_870" fill="white">
<rect y="8.81354" width="63.7975" height="4.0678" rx="1"/>
</mask>
<rect y="8.81354" width="63.7975" height="4.0678" rx="1" fill="white" stroke="#363636" stroke-width="3" mask="url(#path-6-inside-1_2449_870)"/>
</svg>
