<svg width="490" height="429" viewBox="0 0 490 429" fill="none" xmlns="http://www.w3.org/2000/svg">
<path d="M68.3672 422.12C68.487 421.141 67.9635 420.422 66.7969 419.964L65.3047 419.425L64.8203 419.229C63.3411 418.599 62.6562 417.67 62.7656 416.44C62.8125 415.836 63.026 415.305 63.4062 414.847C63.7865 414.388 64.2865 414.037 64.9062 413.792C65.5312 413.542 66.1927 413.425 66.8906 413.44C67.5625 413.456 68.1615 413.612 68.6875 413.909C69.2188 414.201 69.6146 414.602 69.875 415.112C70.1406 415.623 70.2448 416.198 70.1875 416.839H69.2266C69.2995 416.068 69.1172 415.451 68.6797 414.987C68.2474 414.524 67.6354 414.282 66.8438 414.261C66.0208 414.25 65.3151 414.44 64.7266 414.831C64.1432 415.216 63.8099 415.745 63.7266 416.417C63.6589 416.953 63.8151 417.412 64.1953 417.792C64.5807 418.167 65.2474 418.495 66.1953 418.776C67.4036 419.162 68.2422 419.623 68.7109 420.159C69.1849 420.696 69.3906 421.341 69.3281 422.097C69.2708 422.722 69.0521 423.266 68.6719 423.729C68.2917 424.188 67.7839 424.539 67.1484 424.784C66.513 425.029 65.8307 425.144 65.1016 425.128C64.3776 425.123 63.724 424.974 63.1406 424.683C62.5625 424.391 62.1276 423.993 61.8359 423.487C61.5495 422.977 61.4349 422.388 61.4922 421.722H62.4453C62.3672 422.513 62.5781 423.144 63.0781 423.612C63.5833 424.076 64.2734 424.313 65.1484 424.323C66.0234 424.334 66.7578 424.136 67.3516 423.729C67.9505 423.323 68.2891 422.787 68.3672 422.12ZM74.0469 425.128C73.3698 425.118 72.7839 424.93 72.2891 424.565C71.7943 424.196 71.4297 423.696 71.1953 423.065C70.9661 422.43 70.8854 421.745 70.9531 421.011L70.9766 420.745C71.0495 419.964 71.2812 419.222 71.6719 418.519C72.0625 417.81 72.5573 417.271 73.1562 416.901C73.7552 416.526 74.3958 416.347 75.0781 416.362C75.7083 416.373 76.2396 416.545 76.6719 416.878C77.1094 417.211 77.4271 417.675 77.625 418.269C77.8229 418.862 77.8854 419.519 77.8125 420.237L77.75 420.808H71.8984L71.875 420.995C71.7969 421.563 71.8385 422.107 72 422.628C72.1615 423.144 72.4245 423.555 72.7891 423.862C73.1589 424.164 73.6016 424.321 74.1172 424.331C74.6172 424.347 75.0677 424.25 75.4688 424.042C75.8698 423.834 76.2396 423.555 76.5781 423.206L77.125 423.651C76.7448 424.141 76.2917 424.513 75.7656 424.769C75.2448 425.019 74.6719 425.138 74.0469 425.128ZM75.0312 417.159C74.3542 417.133 73.7474 417.373 73.2109 417.878C72.6745 418.383 72.2708 419.094 72 420.011L76.9062 420.019L76.9297 419.901C77.0234 419.162 76.8932 418.526 76.5391 417.995C76.1849 417.459 75.6823 417.18 75.0312 417.159ZM79.8281 424.972H78.8906L80.9766 412.972H81.9141L79.8281 424.972ZM85.7031 425.128C85.026 425.118 84.4401 424.93 83.9453 424.565C83.4505 424.196 83.0859 423.696 82.8516 423.065C82.6224 422.43 82.5417 421.745 82.6094 421.011L82.6328 420.745C82.7057 419.964 82.9375 419.222 83.3281 418.519C83.7188 417.81 84.2135 417.271 84.8125 416.901C85.4115 416.526 86.0521 416.347 86.7344 416.362C87.3646 416.373 87.8958 416.545 88.3281 416.878C88.7656 417.211 89.0833 417.675 89.2812 418.269C89.4792 418.862 89.5417 419.519 89.4688 420.237L89.4062 420.808H83.5547L83.5312 420.995C83.4531 421.563 83.4948 422.107 83.6562 422.628C83.8177 423.144 84.0807 423.555 84.4453 423.862C84.8151 424.164 85.2578 424.321 85.7734 424.331C86.2734 424.347 86.724 424.25 87.125 424.042C87.526 423.834 87.8958 423.555 88.2344 423.206L88.7812 423.651C88.401 424.141 87.9479 424.513 87.4219 424.769C86.901 425.019 86.3281 425.138 85.7031 425.128ZM86.6875 417.159C86.0104 417.133 85.4036 417.373 84.8672 417.878C84.3307 418.383 83.9271 419.094 83.6562 420.011L88.5625 420.019L88.5859 419.901C88.6797 419.162 88.5495 418.526 88.1953 417.995C87.8411 417.459 87.3385 417.18 86.6875 417.159ZM93.7188 424.347C94.3333 424.368 94.875 424.198 95.3438 423.839C95.8177 423.474 96.1328 422.985 96.2891 422.37H97.1719C97.0156 423.209 96.6042 423.886 95.9375 424.401C95.276 424.912 94.5208 425.157 93.6719 425.136C92.9896 425.12 92.4167 424.933 91.9531 424.573C91.4896 424.214 91.1536 423.716 90.9453 423.081C90.7422 422.446 90.6771 421.729 90.75 420.933L90.7812 420.597C90.8438 420.05 90.9766 419.519 91.1797 419.003C91.388 418.487 91.6641 418.032 92.0078 417.636C92.3516 417.235 92.7604 416.92 93.2344 416.69C93.7135 416.456 94.2526 416.347 94.8516 416.362C95.7161 416.383 96.4036 416.675 96.9141 417.237C97.4245 417.8 97.6641 418.513 97.6328 419.378L96.75 419.37C96.7604 418.719 96.5911 418.193 96.2422 417.792C95.8932 417.391 95.4167 417.18 94.8125 417.159C94.1667 417.138 93.5964 417.326 93.1016 417.722C92.6068 418.118 92.2344 418.677 91.9844 419.401C91.7344 420.125 91.6172 420.894 91.6328 421.706C91.6484 422.545 91.8359 423.19 92.1953 423.644C92.5547 424.091 93.0625 424.326 93.7188 424.347ZM101.797 424.347C102.411 424.368 102.953 424.198 103.422 423.839C103.896 423.474 104.211 422.985 104.367 422.37H105.25C105.094 423.209 104.682 423.886 104.016 424.401C103.354 424.912 102.599 425.157 101.75 425.136C101.068 425.12 100.495 424.933 100.031 424.573C99.5677 424.214 99.2318 423.716 99.0234 423.081C98.8203 422.446 98.7552 421.729 98.8281 420.933L98.8594 420.597C98.9219 420.05 99.0547 419.519 99.2578 419.003C99.4661 418.487 99.7422 418.032 100.086 417.636C100.43 417.235 100.839 416.92 101.312 416.69C101.792 416.456 102.331 416.347 102.93 416.362C103.794 416.383 104.482 416.675 104.992 417.237C105.503 417.8 105.742 418.513 105.711 419.378L104.828 419.37C104.839 418.719 104.669 418.193 104.32 417.792C103.971 417.391 103.495 417.18 102.891 417.159C102.245 417.138 101.674 417.326 101.18 417.722C100.685 418.118 100.312 418.677 100.062 419.401C99.8125 420.125 99.6953 420.894 99.7109 421.706C99.7266 422.545 99.9141 423.19 100.273 423.644C100.633 424.091 101.141 424.326 101.797 424.347ZM107.641 424.972H106.703L108.18 416.519H109.109L107.641 424.972ZM108.438 414.073C108.464 413.735 108.688 413.521 109.109 413.433C109.312 413.469 109.456 413.534 109.539 413.628C109.628 413.716 109.685 413.865 109.711 414.073C109.659 414.271 109.583 414.417 109.484 414.511C109.385 414.599 109.237 414.664 109.039 414.706C108.617 414.644 108.417 414.433 108.438 414.073ZM110.391 420.667C110.484 419.849 110.734 419.102 111.141 418.425C111.547 417.743 112.052 417.224 112.656 416.87C113.266 416.516 113.924 416.347 114.633 416.362C115.331 416.373 115.924 416.565 116.414 416.94C116.909 417.31 117.268 417.818 117.492 418.464C117.721 419.104 117.799 419.815 117.727 420.597L117.711 420.745C117.555 422.078 117.081 423.149 116.289 423.956C115.503 424.763 114.557 425.154 113.453 425.128C112.505 425.112 111.747 424.763 111.18 424.081C110.612 423.399 110.333 422.498 110.344 421.378L110.367 420.933L110.391 420.667ZM111.297 420.933C111.229 421.552 111.273 422.125 111.43 422.651C111.591 423.172 111.846 423.581 112.195 423.878C112.544 424.175 112.979 424.331 113.5 424.347C114.062 424.357 114.576 424.214 115.039 423.917C115.508 423.62 115.893 423.201 116.195 422.659C116.497 422.118 116.693 421.519 116.781 420.862L116.805 420.604C116.898 419.599 116.742 418.779 116.336 418.144C115.935 417.503 115.352 417.175 114.586 417.159C113.753 417.133 113.031 417.456 112.422 418.128C111.818 418.795 111.448 419.683 111.312 420.792L111.297 420.933ZM121.305 416.519L121.023 417.964C121.398 417.443 121.831 417.045 122.32 416.769C122.815 416.487 123.344 416.352 123.906 416.362C124.719 416.383 125.31 416.667 125.68 417.214C126.049 417.761 126.18 418.513 126.07 419.472L125.148 424.972H124.227L125.148 419.456C125.18 419.159 125.185 418.873 125.164 418.597C125.076 417.67 124.57 417.193 123.648 417.167C123.102 417.157 122.591 417.321 122.117 417.659C121.643 417.993 121.227 418.498 120.867 419.175L119.867 424.972H118.945L120.414 416.519H121.305ZM132.812 424.972C132.786 424.774 132.779 424.576 132.789 424.378L132.859 423.792C132.469 424.214 132.021 424.545 131.516 424.784C131.016 425.024 130.474 425.138 129.891 425.128C129.177 425.118 128.596 424.894 128.148 424.456C127.706 424.013 127.508 423.459 127.555 422.792C127.596 422.235 127.786 421.753 128.125 421.347C128.469 420.935 128.956 420.618 129.586 420.394C130.216 420.164 130.922 420.05 131.703 420.05L133.43 420.058L133.57 419.089C133.633 418.511 133.508 418.047 133.195 417.698C132.883 417.349 132.422 417.164 131.812 417.144C131.198 417.133 130.661 417.287 130.203 417.604C129.75 417.917 129.466 418.331 129.352 418.847H128.438C128.542 418.107 128.922 417.506 129.578 417.042C130.234 416.573 131.01 416.344 131.906 416.354C132.776 416.375 133.445 416.638 133.914 417.144C134.388 417.649 134.581 418.305 134.492 419.112L133.789 423.362L133.727 424.042C133.711 424.323 133.732 424.602 133.789 424.878L133.773 424.972H132.812ZM130.047 424.308C130.62 424.328 131.167 424.193 131.688 423.901C132.214 423.604 132.648 423.185 132.992 422.644L133.312 420.776L131.82 420.769C130.872 420.769 130.099 420.938 129.5 421.276C128.901 421.61 128.57 422.089 128.508 422.714C128.461 423.172 128.581 423.55 128.867 423.847C129.159 424.144 129.552 424.297 130.047 424.308ZM145.062 424.972C145.036 424.774 145.029 424.576 145.039 424.378L145.109 423.792C144.719 424.214 144.271 424.545 143.766 424.784C143.266 425.024 142.724 425.138 142.141 425.128C141.427 425.118 140.846 424.894 140.398 424.456C139.956 424.013 139.758 423.459 139.805 422.792C139.846 422.235 140.036 421.753 140.375 421.347C140.719 420.935 141.206 420.618 141.836 420.394C142.466 420.164 143.172 420.05 143.953 420.05L145.68 420.058L145.82 419.089C145.883 418.511 145.758 418.047 145.445 417.698C145.133 417.349 144.672 417.164 144.062 417.144C143.448 417.133 142.911 417.287 142.453 417.604C142 417.917 141.716 418.331 141.602 418.847H140.688C140.792 418.107 141.172 417.506 141.828 417.042C142.484 416.573 143.26 416.344 144.156 416.354C145.026 416.375 145.695 416.638 146.164 417.144C146.638 417.649 146.831 418.305 146.742 419.112L146.039 423.362L145.977 424.042C145.961 424.323 145.982 424.602 146.039 424.878L146.023 424.972H145.062ZM142.297 424.308C142.87 424.328 143.417 424.193 143.938 423.901C144.464 423.604 144.898 423.185 145.242 422.644L145.562 420.776L144.07 420.769C143.122 420.769 142.349 420.938 141.75 421.276C141.151 421.61 140.82 422.089 140.758 422.714C140.711 423.172 140.831 423.55 141.117 423.847C141.409 424.144 141.802 424.297 142.297 424.308ZM149.234 424.972H148.297L150.383 412.972H151.32L149.234 424.972ZM155.969 416.354C156.474 416.37 156.935 416.49 157.352 416.714C157.768 416.938 158.096 417.279 158.336 417.737L158.625 416.519H159.492L158.07 424.823C157.971 425.532 157.747 426.157 157.398 426.698C157.049 427.24 156.602 427.654 156.055 427.94C155.513 428.232 154.909 428.368 154.242 428.347C153.711 428.336 153.203 428.203 152.719 427.948C152.229 427.688 151.836 427.326 151.539 426.862L152.117 426.315C152.654 427.123 153.354 427.537 154.219 427.558C154.99 427.578 155.633 427.344 156.148 426.854C156.669 426.37 156.997 425.709 157.133 424.87L157.336 423.886C156.586 424.745 155.682 425.159 154.625 425.128C153.833 425.107 153.216 424.805 152.773 424.222C152.336 423.633 152.107 422.834 152.086 421.823C152.055 420.891 152.211 419.969 152.555 419.058C152.898 418.146 153.365 417.464 153.953 417.011C154.547 416.552 155.219 416.334 155.969 416.354ZM153.062 420.886L153.016 421.612C153 422.466 153.148 423.128 153.461 423.597C153.773 424.06 154.234 424.302 154.844 424.323C155.365 424.344 155.852 424.222 156.305 423.956C156.758 423.69 157.148 423.297 157.477 422.776L158.141 418.831C158 418.326 157.755 417.927 157.406 417.636C157.062 417.339 156.62 417.183 156.078 417.167C155.281 417.141 154.62 417.448 154.094 418.089C153.573 418.729 153.229 419.662 153.062 420.886ZM166.055 423.909C165.383 424.753 164.456 425.159 163.273 425.128C162.477 425.112 161.883 424.826 161.492 424.269C161.102 423.706 160.961 422.927 161.07 421.933L161.977 416.519H162.898L162 421.956C161.969 422.237 161.966 422.516 161.992 422.792C162.029 423.271 162.172 423.641 162.422 423.901C162.672 424.162 163.016 424.3 163.453 424.315C164.078 424.341 164.656 424.198 165.188 423.886C165.719 423.568 166.062 423.154 166.219 422.644L167.266 416.519H168.203L166.734 424.972H165.828L166.055 423.909ZM171.414 416.519L171.133 417.964C171.508 417.443 171.94 417.045 172.43 416.769C172.924 416.487 173.453 416.352 174.016 416.362C174.828 416.383 175.419 416.667 175.789 417.214C176.159 417.761 176.289 418.513 176.18 419.472L175.258 424.972H174.336L175.258 419.456C175.289 419.159 175.294 418.873 175.273 418.597C175.185 417.67 174.68 417.193 173.758 417.167C173.211 417.157 172.701 417.321 172.227 417.659C171.753 417.993 171.336 418.498 170.977 419.175L169.977 424.972H169.055L170.523 416.519H171.414ZM182.922 424.972C182.896 424.774 182.888 424.576 182.898 424.378L182.969 423.792C182.578 424.214 182.13 424.545 181.625 424.784C181.125 425.024 180.583 425.138 180 425.128C179.286 425.118 178.706 424.894 178.258 424.456C177.815 424.013 177.617 423.459 177.664 422.792C177.706 422.235 177.896 421.753 178.234 421.347C178.578 420.935 179.065 420.618 179.695 420.394C180.326 420.164 181.031 420.05 181.812 420.05L183.539 420.058L183.68 419.089C183.742 418.511 183.617 418.047 183.305 417.698C182.992 417.349 182.531 417.164 181.922 417.144C181.307 417.133 180.771 417.287 180.312 417.604C179.859 417.917 179.576 418.331 179.461 418.847H178.547C178.651 418.107 179.031 417.506 179.688 417.042C180.344 416.573 181.12 416.344 182.016 416.354C182.885 416.375 183.555 416.638 184.023 417.144C184.497 417.649 184.69 418.305 184.602 419.112L183.898 423.362L183.836 424.042C183.82 424.323 183.841 424.602 183.898 424.878L183.883 424.972H182.922ZM180.156 424.308C180.729 424.328 181.276 424.193 181.797 423.901C182.323 423.604 182.758 423.185 183.102 422.644L183.422 420.776L181.93 420.769C180.982 420.769 180.208 420.938 179.609 421.276C179.01 421.61 178.68 422.089 178.617 422.714C178.57 423.172 178.69 423.55 178.977 423.847C179.268 424.144 179.661 424.297 180.156 424.308ZM190.289 420.722C190.409 419.836 190.651 419.052 191.016 418.37C191.38 417.683 191.826 417.172 192.352 416.839C192.883 416.506 193.477 416.347 194.133 416.362C194.633 416.373 195.089 416.49 195.5 416.714C195.911 416.933 196.237 417.266 196.477 417.714L197.336 412.972H198.258L196.172 424.972H195.305L195.516 423.847C194.781 424.732 193.87 425.159 192.781 425.128C191.995 425.107 191.378 424.802 190.93 424.214C190.487 423.62 190.255 422.823 190.234 421.823C190.224 421.5 190.237 421.188 190.273 420.886L190.289 420.722ZM191.227 420.878C191.185 421.227 191.169 421.599 191.18 421.995C191.201 422.709 191.365 423.271 191.672 423.683C191.984 424.089 192.427 424.302 193 424.323C193.578 424.339 194.086 424.206 194.523 423.925C194.961 423.644 195.331 423.269 195.633 422.8L196.312 418.815C196.161 418.31 195.911 417.914 195.562 417.628C195.219 417.336 194.779 417.183 194.242 417.167C193.451 417.141 192.789 417.446 192.258 418.081C191.732 418.711 191.393 419.589 191.242 420.714L191.227 420.878ZM201.969 425.128C201.292 425.118 200.706 424.93 200.211 424.565C199.716 424.196 199.352 423.696 199.117 423.065C198.888 422.43 198.807 421.745 198.875 421.011L198.898 420.745C198.971 419.964 199.203 419.222 199.594 418.519C199.984 417.81 200.479 417.271 201.078 416.901C201.677 416.526 202.318 416.347 203 416.362C203.63 416.373 204.161 416.545 204.594 416.878C205.031 417.211 205.349 417.675 205.547 418.269C205.745 418.862 205.807 419.519 205.734 420.237L205.672 420.808H199.82L199.797 420.995C199.719 421.563 199.76 422.107 199.922 422.628C200.083 423.144 200.346 423.555 200.711 423.862C201.081 424.164 201.523 424.321 202.039 424.331C202.539 424.347 202.99 424.25 203.391 424.042C203.792 423.834 204.161 423.555 204.5 423.206L205.047 423.651C204.667 424.141 204.214 424.513 203.688 424.769C203.167 425.019 202.594 425.138 201.969 425.128ZM202.953 417.159C202.276 417.133 201.669 417.373 201.133 417.878C200.596 418.383 200.193 419.094 199.922 420.011L204.828 420.019L204.852 419.901C204.945 419.162 204.815 418.526 204.461 417.995C204.107 417.459 203.604 417.18 202.953 417.159ZM211.609 424.972H210.672L212.758 412.972H213.695L211.609 424.972ZM219.391 424.972C219.365 424.774 219.357 424.576 219.367 424.378L219.438 423.792C219.047 424.214 218.599 424.545 218.094 424.784C217.594 425.024 217.052 425.138 216.469 425.128C215.755 425.118 215.174 424.894 214.727 424.456C214.284 424.013 214.086 423.459 214.133 422.792C214.174 422.235 214.365 421.753 214.703 421.347C215.047 420.935 215.534 420.618 216.164 420.394C216.794 420.164 217.5 420.05 218.281 420.05L220.008 420.058L220.148 419.089C220.211 418.511 220.086 418.047 219.773 417.698C219.461 417.349 219 417.164 218.391 417.144C217.776 417.133 217.24 417.287 216.781 417.604C216.328 417.917 216.044 418.331 215.93 418.847H215.016C215.12 418.107 215.5 417.506 216.156 417.042C216.812 416.573 217.589 416.344 218.484 416.354C219.354 416.375 220.023 416.638 220.492 417.144C220.966 417.649 221.159 418.305 221.07 419.112L220.367 423.362L220.305 424.042C220.289 424.323 220.31 424.602 220.367 424.878L220.352 424.972H219.391ZM216.625 424.308C217.198 424.328 217.745 424.193 218.266 423.901C218.792 423.604 219.227 423.185 219.57 422.644L219.891 420.776L218.398 420.769C217.451 420.769 216.677 420.938 216.078 421.276C215.479 421.61 215.148 422.089 215.086 422.714C215.039 423.172 215.159 423.55 215.445 423.847C215.737 424.144 216.13 424.297 216.625 424.308ZM227.867 422.769C227.951 422.05 227.513 421.529 226.555 421.206L225.211 420.808C223.977 420.391 223.393 419.696 223.461 418.722C223.497 418.019 223.82 417.448 224.43 417.011C225.044 416.568 225.773 416.352 226.617 416.362C227.445 416.373 228.117 416.607 228.633 417.065C229.148 417.519 229.388 418.125 229.352 418.886H228.43C228.461 418.381 228.302 417.969 227.953 417.651C227.609 417.334 227.151 417.17 226.578 417.159C225.984 417.159 225.484 417.3 225.078 417.581C224.672 417.857 224.443 418.224 224.391 418.683C224.312 419.354 224.724 419.826 225.625 420.097L226.602 420.378L227.125 420.558C228.302 421 228.857 421.722 228.789 422.722C228.747 423.399 228.453 423.956 227.906 424.394C227.365 424.826 226.664 425.068 225.805 425.12L225.484 425.128C224.917 425.118 224.404 425.008 223.945 424.8C223.487 424.586 223.135 424.289 222.891 423.909C222.646 423.529 222.539 423.091 222.57 422.597L223.5 422.604C223.5 423.136 223.68 423.555 224.039 423.862C224.398 424.17 224.893 424.328 225.523 424.339C226.148 424.339 226.68 424.198 227.117 423.917C227.555 423.631 227.805 423.248 227.867 422.769ZM234.695 420.722C234.815 419.836 235.057 419.052 235.422 418.37C235.786 417.683 236.232 417.172 236.758 416.839C237.289 416.506 237.883 416.347 238.539 416.362C239.039 416.373 239.495 416.49 239.906 416.714C240.318 416.933 240.643 417.266 240.883 417.714L241.742 412.972H242.664L240.578 424.972H239.711L239.922 423.847C239.188 424.732 238.276 425.159 237.188 425.128C236.401 425.107 235.784 424.802 235.336 424.214C234.893 423.62 234.661 422.823 234.641 421.823C234.63 421.5 234.643 421.188 234.68 420.886L234.695 420.722ZM235.633 420.878C235.591 421.227 235.576 421.599 235.586 421.995C235.607 422.709 235.771 423.271 236.078 423.683C236.391 424.089 236.833 424.302 237.406 424.323C237.984 424.339 238.492 424.206 238.93 423.925C239.367 423.644 239.737 423.269 240.039 422.8L240.719 418.815C240.568 418.31 240.318 417.914 239.969 417.628C239.625 417.336 239.185 417.183 238.648 417.167C237.857 417.141 237.195 417.446 236.664 418.081C236.138 418.711 235.799 419.589 235.648 420.714L235.633 420.878ZM243.25 420.667C243.344 419.849 243.594 419.102 244 418.425C244.406 417.743 244.911 417.224 245.516 416.87C246.125 416.516 246.784 416.347 247.492 416.362C248.19 416.373 248.784 416.565 249.273 416.94C249.768 417.31 250.128 417.818 250.352 418.464C250.581 419.104 250.659 419.815 250.586 420.597L250.57 420.745C250.414 422.078 249.94 423.149 249.148 423.956C248.362 424.763 247.417 425.154 246.312 425.128C245.365 425.112 244.607 424.763 244.039 424.081C243.471 423.399 243.193 422.498 243.203 421.378L243.227 420.933L243.25 420.667ZM244.156 420.933C244.089 421.552 244.133 422.125 244.289 422.651C244.451 423.172 244.706 423.581 245.055 423.878C245.404 424.175 245.839 424.331 246.359 424.347C246.922 424.357 247.435 424.214 247.898 423.917C248.367 423.62 248.753 423.201 249.055 422.659C249.357 422.118 249.552 421.519 249.641 420.862L249.664 420.604C249.758 419.599 249.602 418.779 249.195 418.144C248.794 417.503 248.211 417.175 247.445 417.159C246.612 417.133 245.891 417.456 245.281 418.128C244.677 418.795 244.307 419.683 244.172 420.792L244.156 420.933ZM257.148 422.769C257.232 422.05 256.794 421.529 255.836 421.206L254.492 420.808C253.258 420.391 252.674 419.696 252.742 418.722C252.779 418.019 253.102 417.448 253.711 417.011C254.326 416.568 255.055 416.352 255.898 416.362C256.727 416.373 257.398 416.607 257.914 417.065C258.43 417.519 258.669 418.125 258.633 418.886H257.711C257.742 418.381 257.583 417.969 257.234 417.651C256.891 417.334 256.432 417.17 255.859 417.159C255.266 417.159 254.766 417.3 254.359 417.581C253.953 417.857 253.724 418.224 253.672 418.683C253.594 419.354 254.005 419.826 254.906 420.097L255.883 420.378L256.406 420.558C257.583 421 258.138 421.722 258.07 422.722C258.029 423.399 257.734 423.956 257.188 424.394C256.646 424.826 255.945 425.068 255.086 425.12L254.766 425.128C254.198 425.118 253.685 425.008 253.227 424.8C252.768 424.586 252.417 424.289 252.172 423.909C251.927 423.529 251.82 423.091 251.852 422.597L252.781 422.604C252.781 423.136 252.961 423.555 253.32 423.862C253.68 424.17 254.174 424.328 254.805 424.339C255.43 424.339 255.961 424.198 256.398 423.917C256.836 423.631 257.086 423.248 257.148 422.769ZM263.828 420.667C263.922 419.849 264.172 419.102 264.578 418.425C264.984 417.743 265.49 417.224 266.094 416.87C266.703 416.516 267.362 416.347 268.07 416.362C268.768 416.373 269.362 416.565 269.852 416.94C270.346 417.31 270.706 417.818 270.93 418.464C271.159 419.104 271.237 419.815 271.164 420.597L271.148 420.745C270.992 422.078 270.518 423.149 269.727 423.956C268.94 424.763 267.995 425.154 266.891 425.128C265.943 425.112 265.185 424.763 264.617 424.081C264.049 423.399 263.771 422.498 263.781 421.378L263.805 420.933L263.828 420.667ZM264.734 420.933C264.667 421.552 264.711 422.125 264.867 422.651C265.029 423.172 265.284 423.581 265.633 423.878C265.982 424.175 266.417 424.331 266.938 424.347C267.5 424.357 268.013 424.214 268.477 423.917C268.945 423.62 269.331 423.201 269.633 422.659C269.935 422.118 270.13 421.519 270.219 420.862L270.242 420.604C270.336 419.599 270.18 418.779 269.773 418.144C269.372 417.503 268.789 417.175 268.023 417.159C267.19 417.133 266.469 417.456 265.859 418.128C265.255 418.795 264.885 419.683 264.75 420.792L264.734 420.933ZM275.93 425.136C275.445 425.125 274.987 425.024 274.555 424.831C274.128 424.633 273.781 424.326 273.516 423.909L272.734 428.222H271.812L273.844 416.519H274.703L274.484 417.714C275.219 416.782 276.138 416.331 277.242 416.362C278.034 416.383 278.651 416.677 279.094 417.245C279.536 417.813 279.766 418.618 279.781 419.659C279.786 419.987 279.771 420.305 279.734 420.612L279.703 420.831C279.573 421.743 279.328 422.529 278.969 423.19C278.609 423.852 278.172 424.347 277.656 424.675C277.141 424.998 276.565 425.151 275.93 425.136ZM278.805 420.612L278.852 419.87C278.867 419.037 278.716 418.383 278.398 417.909C278.081 417.435 277.609 417.188 276.984 417.167C276.438 417.157 275.94 417.292 275.492 417.573C275.049 417.849 274.674 418.253 274.367 418.784L273.672 422.854C273.839 423.334 274.102 423.698 274.461 423.948C274.826 424.198 275.26 424.331 275.766 424.347C276.521 424.373 277.159 424.091 277.68 423.503C278.206 422.909 278.56 422.084 278.742 421.026L278.805 420.612ZM284.344 424.347C284.958 424.368 285.5 424.198 285.969 423.839C286.443 423.474 286.758 422.985 286.914 422.37H287.797C287.641 423.209 287.229 423.886 286.562 424.401C285.901 424.912 285.146 425.157 284.297 425.136C283.615 425.12 283.042 424.933 282.578 424.573C282.115 424.214 281.779 423.716 281.57 423.081C281.367 422.446 281.302 421.729 281.375 420.933L281.406 420.597C281.469 420.05 281.602 419.519 281.805 419.003C282.013 418.487 282.289 418.032 282.633 417.636C282.977 417.235 283.385 416.92 283.859 416.69C284.339 416.456 284.878 416.347 285.477 416.362C286.341 416.383 287.029 416.675 287.539 417.237C288.049 417.8 288.289 418.513 288.258 419.378L287.375 419.37C287.385 418.719 287.216 418.193 286.867 417.792C286.518 417.391 286.042 417.18 285.438 417.159C284.792 417.138 284.221 417.326 283.727 417.722C283.232 418.118 282.859 418.677 282.609 419.401C282.359 420.125 282.242 420.894 282.258 421.706C282.273 422.545 282.461 423.19 282.82 423.644C283.18 424.091 283.688 424.326 284.344 424.347ZM290.188 424.972H289.25L290.727 416.519H291.656L290.188 424.972ZM290.984 414.073C291.01 413.735 291.234 413.521 291.656 413.433C291.859 413.469 292.003 413.534 292.086 413.628C292.174 413.716 292.232 413.865 292.258 414.073C292.206 414.271 292.13 414.417 292.031 414.511C291.932 414.599 291.784 414.664 291.586 414.706C291.164 414.644 290.964 414.433 290.984 414.073ZM292.938 420.667C293.031 419.849 293.281 419.102 293.688 418.425C294.094 417.743 294.599 417.224 295.203 416.87C295.812 416.516 296.471 416.347 297.18 416.362C297.878 416.373 298.471 416.565 298.961 416.94C299.456 417.31 299.815 417.818 300.039 418.464C300.268 419.104 300.346 419.815 300.273 420.597L300.258 420.745C300.102 422.078 299.628 423.149 298.836 423.956C298.049 424.763 297.104 425.154 296 425.128C295.052 425.112 294.294 424.763 293.727 424.081C293.159 423.399 292.88 422.498 292.891 421.378L292.914 420.933L292.938 420.667ZM293.844 420.933C293.776 421.552 293.82 422.125 293.977 422.651C294.138 423.172 294.393 423.581 294.742 423.878C295.091 424.175 295.526 424.331 296.047 424.347C296.609 424.357 297.122 424.214 297.586 423.917C298.055 423.62 298.44 423.201 298.742 422.659C299.044 422.118 299.24 421.519 299.328 420.862L299.352 420.604C299.445 419.599 299.289 418.779 298.883 418.144C298.482 417.503 297.898 417.175 297.133 417.159C296.299 417.133 295.578 417.456 294.969 418.128C294.365 418.795 293.995 419.683 293.859 420.792L293.844 420.933ZM303.852 416.519L303.57 417.964C303.945 417.443 304.378 417.045 304.867 416.769C305.362 416.487 305.891 416.352 306.453 416.362C307.266 416.383 307.857 416.667 308.227 417.214C308.596 417.761 308.727 418.513 308.617 419.472L307.695 424.972H306.773L307.695 419.456C307.727 419.159 307.732 418.873 307.711 418.597C307.622 417.67 307.117 417.193 306.195 417.167C305.648 417.157 305.138 417.321 304.664 417.659C304.19 417.993 303.773 418.498 303.414 419.175L302.414 424.972H301.492L302.961 416.519H303.852ZM313.453 425.128C312.776 425.118 312.19 424.93 311.695 424.565C311.201 424.196 310.836 423.696 310.602 423.065C310.372 422.43 310.292 421.745 310.359 421.011L310.383 420.745C310.456 419.964 310.688 419.222 311.078 418.519C311.469 417.81 311.964 417.271 312.562 416.901C313.161 416.526 313.802 416.347 314.484 416.362C315.115 416.373 315.646 416.545 316.078 416.878C316.516 417.211 316.833 417.675 317.031 418.269C317.229 418.862 317.292 419.519 317.219 420.237L317.156 420.808H311.305L311.281 420.995C311.203 421.563 311.245 422.107 311.406 422.628C311.568 423.144 311.831 423.555 312.195 423.862C312.565 424.164 313.008 424.321 313.523 424.331C314.023 424.347 314.474 424.25 314.875 424.042C315.276 423.834 315.646 423.555 315.984 423.206L316.531 423.651C316.151 424.141 315.698 424.513 315.172 424.769C314.651 425.019 314.078 425.138 313.453 425.128ZM314.438 417.159C313.76 417.133 313.154 417.373 312.617 417.878C312.081 418.383 311.677 419.094 311.406 420.011L316.312 420.019L316.336 419.901C316.43 419.162 316.299 418.526 315.945 417.995C315.591 417.459 315.089 417.18 314.438 417.159ZM323.539 422.769C323.622 422.05 323.185 421.529 322.227 421.206L320.883 420.808C319.648 420.391 319.065 419.696 319.133 418.722C319.169 418.019 319.492 417.448 320.102 417.011C320.716 416.568 321.445 416.352 322.289 416.362C323.117 416.373 323.789 416.607 324.305 417.065C324.82 417.519 325.06 418.125 325.023 418.886H324.102C324.133 418.381 323.974 417.969 323.625 417.651C323.281 417.334 322.823 417.17 322.25 417.159C321.656 417.159 321.156 417.3 320.75 417.581C320.344 417.857 320.115 418.224 320.062 418.683C319.984 419.354 320.396 419.826 321.297 420.097L322.273 420.378L322.797 420.558C323.974 421 324.529 421.722 324.461 422.722C324.419 423.399 324.125 423.956 323.578 424.394C323.036 424.826 322.336 425.068 321.477 425.12L321.156 425.128C320.589 425.118 320.076 425.008 319.617 424.8C319.159 424.586 318.807 424.289 318.562 423.909C318.318 423.529 318.211 423.091 318.242 422.597L319.172 422.604C319.172 423.136 319.352 423.555 319.711 423.862C320.07 424.17 320.565 424.328 321.195 424.339C321.82 424.339 322.352 424.198 322.789 423.917C323.227 423.631 323.477 423.248 323.539 422.769ZM333.539 425.136C333.055 425.125 332.596 425.024 332.164 424.831C331.737 424.633 331.391 424.326 331.125 423.909L330.344 428.222H329.422L331.453 416.519H332.312L332.094 417.714C332.828 416.782 333.747 416.331 334.852 416.362C335.643 416.383 336.26 416.677 336.703 417.245C337.146 417.813 337.375 418.618 337.391 419.659C337.396 419.987 337.38 420.305 337.344 420.612L337.312 420.831C337.182 421.743 336.938 422.529 336.578 423.19C336.219 423.852 335.781 424.347 335.266 424.675C334.75 424.998 334.174 425.151 333.539 425.136ZM336.414 420.612L336.461 419.87C336.477 419.037 336.326 418.383 336.008 417.909C335.69 417.435 335.219 417.188 334.594 417.167C334.047 417.157 333.549 417.292 333.102 417.573C332.659 417.849 332.284 418.253 331.977 418.784L331.281 422.854C331.448 423.334 331.711 423.698 332.07 423.948C332.435 424.198 332.87 424.331 333.375 424.347C334.13 424.373 334.768 424.091 335.289 423.503C335.815 422.909 336.169 422.084 336.352 421.026L336.414 420.612ZM343.938 424.972C343.911 424.774 343.904 424.576 343.914 424.378L343.984 423.792C343.594 424.214 343.146 424.545 342.641 424.784C342.141 425.024 341.599 425.138 341.016 425.128C340.302 425.118 339.721 424.894 339.273 424.456C338.831 424.013 338.633 423.459 338.68 422.792C338.721 422.235 338.911 421.753 339.25 421.347C339.594 420.935 340.081 420.618 340.711 420.394C341.341 420.164 342.047 420.05 342.828 420.05L344.555 420.058L344.695 419.089C344.758 418.511 344.633 418.047 344.32 417.698C344.008 417.349 343.547 417.164 342.938 417.144C342.323 417.133 341.786 417.287 341.328 417.604C340.875 417.917 340.591 418.331 340.477 418.847H339.562C339.667 418.107 340.047 417.506 340.703 417.042C341.359 416.573 342.135 416.344 343.031 416.354C343.901 416.375 344.57 416.638 345.039 417.144C345.513 417.649 345.706 418.305 345.617 419.112L344.914 423.362L344.852 424.042C344.836 424.323 344.857 424.602 344.914 424.878L344.898 424.972H343.938ZM341.172 424.308C341.745 424.328 342.292 424.193 342.812 423.901C343.339 423.604 343.773 423.185 344.117 422.644L344.438 420.776L342.945 420.769C341.997 420.769 341.224 420.938 340.625 421.276C340.026 421.61 339.695 422.089 339.633 422.714C339.586 423.172 339.706 423.55 339.992 423.847C340.284 424.144 340.677 424.297 341.172 424.308ZM352.234 417.308C352.031 417.266 351.826 417.243 351.617 417.237C351.023 417.237 350.479 417.42 349.984 417.784C349.49 418.144 349.159 418.602 348.992 419.159L347.992 424.972H347.07L348.539 416.519H349.453L349.172 417.862C349.479 417.362 349.849 416.982 350.281 416.722C350.719 416.461 351.198 416.336 351.719 416.347C351.901 416.347 352.115 416.383 352.359 416.456L352.234 417.308ZM357.312 424.972C357.286 424.774 357.279 424.576 357.289 424.378L357.359 423.792C356.969 424.214 356.521 424.545 356.016 424.784C355.516 425.024 354.974 425.138 354.391 425.128C353.677 425.118 353.096 424.894 352.648 424.456C352.206 424.013 352.008 423.459 352.055 422.792C352.096 422.235 352.286 421.753 352.625 421.347C352.969 420.935 353.456 420.618 354.086 420.394C354.716 420.164 355.422 420.05 356.203 420.05L357.93 420.058L358.07 419.089C358.133 418.511 358.008 418.047 357.695 417.698C357.383 417.349 356.922 417.164 356.312 417.144C355.698 417.133 355.161 417.287 354.703 417.604C354.25 417.917 353.966 418.331 353.852 418.847H352.938C353.042 418.107 353.422 417.506 354.078 417.042C354.734 416.573 355.51 416.344 356.406 416.354C357.276 416.375 357.945 416.638 358.414 417.144C358.888 417.649 359.081 418.305 358.992 419.112L358.289 423.362L358.227 424.042C358.211 424.323 358.232 424.602 358.289 424.878L358.273 424.972H357.312ZM354.547 424.308C355.12 424.328 355.667 424.193 356.188 423.901C356.714 423.604 357.148 423.185 357.492 422.644L357.812 420.776L356.32 420.769C355.372 420.769 354.599 420.938 354 421.276C353.401 421.61 353.07 422.089 353.008 422.714C352.961 423.172 353.081 423.55 353.367 423.847C353.659 424.144 354.052 424.297 354.547 424.308ZM367.578 424.347C368.193 424.368 368.734 424.198 369.203 423.839C369.677 423.474 369.992 422.985 370.148 422.37H371.031C370.875 423.209 370.464 423.886 369.797 424.401C369.135 424.912 368.38 425.157 367.531 425.136C366.849 425.12 366.276 424.933 365.812 424.573C365.349 424.214 365.013 423.716 364.805 423.081C364.602 422.446 364.536 421.729 364.609 420.933L364.641 420.597C364.703 420.05 364.836 419.519 365.039 419.003C365.247 418.487 365.523 418.032 365.867 417.636C366.211 417.235 366.62 416.92 367.094 416.69C367.573 416.456 368.112 416.347 368.711 416.362C369.576 416.383 370.263 416.675 370.773 417.237C371.284 417.8 371.523 418.513 371.492 419.378L370.609 419.37C370.62 418.719 370.451 418.193 370.102 417.792C369.753 417.391 369.276 417.18 368.672 417.159C368.026 417.138 367.456 417.326 366.961 417.722C366.466 418.118 366.094 418.677 365.844 419.401C365.594 420.125 365.477 420.894 365.492 421.706C365.508 422.545 365.695 423.19 366.055 423.644C366.414 424.091 366.922 424.326 367.578 424.347ZM372.609 420.667C372.703 419.849 372.953 419.102 373.359 418.425C373.766 417.743 374.271 417.224 374.875 416.87C375.484 416.516 376.143 416.347 376.852 416.362C377.549 416.373 378.143 416.565 378.633 416.94C379.128 417.31 379.487 417.818 379.711 418.464C379.94 419.104 380.018 419.815 379.945 420.597L379.93 420.745C379.773 422.078 379.299 423.149 378.508 423.956C377.721 424.763 376.776 425.154 375.672 425.128C374.724 425.112 373.966 424.763 373.398 424.081C372.831 423.399 372.552 422.498 372.562 421.378L372.586 420.933L372.609 420.667ZM373.516 420.933C373.448 421.552 373.492 422.125 373.648 422.651C373.81 423.172 374.065 423.581 374.414 423.878C374.763 424.175 375.198 424.331 375.719 424.347C376.281 424.357 376.794 424.214 377.258 423.917C377.727 423.62 378.112 423.201 378.414 422.659C378.716 422.118 378.911 421.519 379 420.862L379.023 420.604C379.117 419.599 378.961 418.779 378.555 418.144C378.154 417.503 377.57 417.175 376.805 417.159C375.971 417.133 375.25 417.456 374.641 418.128C374.036 418.795 373.667 419.683 373.531 420.792L373.516 420.933ZM383.523 416.519L383.242 417.964C383.617 417.443 384.049 417.045 384.539 416.769C385.034 416.487 385.562 416.352 386.125 416.362C386.938 416.383 387.529 416.667 387.898 417.214C388.268 417.761 388.398 418.513 388.289 419.472L387.367 424.972H386.445L387.367 419.456C387.398 419.159 387.404 418.873 387.383 418.597C387.294 417.67 386.789 417.193 385.867 417.167C385.32 417.157 384.81 417.321 384.336 417.659C383.862 417.993 383.445 418.498 383.086 419.175L382.086 424.972H381.164L382.633 416.519H383.523ZM393.047 414.354L392.672 416.519H394.367L394.234 417.284H392.539L391.602 422.925L391.586 423.409C391.586 423.977 391.846 424.269 392.367 424.284C392.529 424.289 392.781 424.271 393.125 424.229L393.086 424.995C392.779 425.084 392.466 425.123 392.148 425.112C391.602 425.102 391.203 424.912 390.953 424.542C390.703 424.167 390.612 423.625 390.68 422.917L391.609 417.284H390.094L390.234 416.519H391.734L392.117 414.354H393.047ZM395.875 424.972H394.938L396.414 416.519H397.344L395.875 424.972ZM396.672 414.073C396.698 413.735 396.922 413.521 397.344 413.433C397.547 413.469 397.69 413.534 397.773 413.628C397.862 413.716 397.919 413.865 397.945 414.073C397.893 414.271 397.818 414.417 397.719 414.511C397.62 414.599 397.471 414.664 397.273 414.706C396.852 414.644 396.651 414.433 396.672 414.073ZM400.758 416.519L400.477 417.964C400.852 417.443 401.284 417.045 401.773 416.769C402.268 416.487 402.797 416.352 403.359 416.362C404.172 416.383 404.763 416.667 405.133 417.214C405.503 417.761 405.633 418.513 405.523 419.472L404.602 424.972H403.68L404.602 419.456C404.633 419.159 404.638 418.873 404.617 418.597C404.529 417.67 404.023 417.193 403.102 417.167C402.555 417.157 402.044 417.321 401.57 417.659C401.096 417.993 400.68 418.498 400.32 419.175L399.32 424.972H398.398L399.867 416.519H400.758ZM412.617 423.909C411.945 424.753 411.018 425.159 409.836 425.128C409.039 425.112 408.445 424.826 408.055 424.269C407.664 423.706 407.523 422.927 407.633 421.933L408.539 416.519H409.461L408.562 421.956C408.531 422.237 408.529 422.516 408.555 422.792C408.591 423.271 408.734 423.641 408.984 423.901C409.234 424.162 409.578 424.3 410.016 424.315C410.641 424.341 411.219 424.198 411.75 423.886C412.281 423.568 412.625 423.154 412.781 422.644L413.828 416.519H414.766L413.297 424.972H412.391L412.617 423.909ZM420.875 424.972C420.849 424.774 420.841 424.576 420.852 424.378L420.922 423.792C420.531 424.214 420.083 424.545 419.578 424.784C419.078 425.024 418.536 425.138 417.953 425.128C417.24 425.118 416.659 424.894 416.211 424.456C415.768 424.013 415.57 423.459 415.617 422.792C415.659 422.235 415.849 421.753 416.188 421.347C416.531 420.935 417.018 420.618 417.648 420.394C418.279 420.164 418.984 420.05 419.766 420.05L421.492 420.058L421.633 419.089C421.695 418.511 421.57 418.047 421.258 417.698C420.945 417.349 420.484 417.164 419.875 417.144C419.26 417.133 418.724 417.287 418.266 417.604C417.812 417.917 417.529 418.331 417.414 418.847H416.5C416.604 418.107 416.984 417.506 417.641 417.042C418.297 416.573 419.073 416.344 419.969 416.354C420.839 416.375 421.508 416.638 421.977 417.144C422.451 417.649 422.643 418.305 422.555 419.112L421.852 423.362L421.789 424.042C421.773 424.323 421.794 424.602 421.852 424.878L421.836 424.972H420.875ZM418.109 424.308C418.682 424.328 419.229 424.193 419.75 423.901C420.276 423.604 420.711 423.185 421.055 422.644L421.375 420.776L419.883 420.769C418.935 420.769 418.161 420.938 417.562 421.276C416.964 421.61 416.633 422.089 416.57 422.714C416.523 423.172 416.643 423.55 416.93 423.847C417.221 424.144 417.615 424.297 418.109 424.308ZM429.172 417.308C428.969 417.266 428.763 417.243 428.555 417.237C427.961 417.237 427.417 417.42 426.922 417.784C426.427 418.144 426.096 418.602 425.93 419.159L424.93 424.972H424.008L425.477 416.519H426.391L426.109 417.862C426.417 417.362 426.786 416.982 427.219 416.722C427.656 416.461 428.135 416.336 428.656 416.347C428.839 416.347 429.052 416.383 429.297 416.456L429.172 417.308Z" fill="#434242"/>
<path d="M264.078 369.972C305.461 369.972 339.008 365.388 339.008 359.735C339.008 354.081 305.461 349.498 264.078 349.498C222.695 349.498 189.148 354.081 189.148 359.735C189.148 365.388 222.695 369.972 264.078 369.972Z" fill="#EF4380"/>
<path d="M176.938 67.0352C175.367 67.3344 173.754 67.3344 172.183 67.0352C170.692 66.7033 168.995 65.478 169.175 63.691C169.197 63.2699 169.323 62.8606 169.543 62.4998C169.763 62.1389 170.069 61.8378 170.435 61.6233C170.815 61.4384 171.233 61.3423 171.656 61.3423C172.079 61.3423 172.497 61.4384 172.877 61.6233C173.619 61.9716 174.263 62.4963 174.751 63.1509C175.24 63.8055 175.559 64.5697 175.679 65.3758C176.077 66.9339 176.077 68.566 175.679 70.124C175.131 71.6483 174.08 72.9438 172.697 73.8C169.966 75.4744 166.773 76.2515 163.572 76.0209C165.151 76.0838 166.731 75.8942 168.25 75.4593C169.774 75.0897 171.225 74.4684 172.543 73.6213C173.864 72.7802 174.86 71.521 175.37 70.0474C175.751 68.5477 175.751 66.9776 175.37 65.478C175.255 64.7298 174.962 64.0198 174.515 63.407C174.068 62.7942 173.48 62.2964 172.8 61.9551C172.461 61.7996 172.093 61.7191 171.72 61.7191C171.347 61.7191 170.979 61.7996 170.64 61.9551C170.32 62.1436 170.052 62.4077 169.859 62.7238C169.666 63.04 169.555 63.3985 169.535 63.7676C169.33 65.3503 170.846 66.5246 172.311 66.882C173.834 67.1938 175.398 67.2456 176.938 67.0352Z" fill="#EF4380"/>
<path d="M168.815 107.522C168.762 104.214 169.53 100.944 171.051 98.0003C172.581 95.0483 174.708 92.4413 177.298 90.342C174.915 92.541 172.933 95.1318 171.437 98.0003C169.867 100.944 168.972 104.195 168.815 107.522Z" fill="#EF4380"/>
<path d="M165.859 122.047C162.433 120.802 159.319 118.834 156.734 116.278C156.424 115.933 156.188 115.528 156.042 115.089C155.896 114.65 155.843 114.186 155.885 113.725C155.94 113.25 156.128 112.799 156.428 112.424C156.728 112.049 157.128 111.766 157.582 111.606C158.04 111.47 158.525 111.446 158.994 111.535C159.464 111.623 159.905 111.823 160.281 112.117C160.685 112.39 160.984 112.791 161.129 113.255C161.274 113.719 161.256 114.217 161.078 114.67C160.282 116.333 158.875 117.63 157.145 118.295C155.462 118.967 153.663 119.305 151.85 119.29C150.048 119.334 148.248 119.128 146.503 118.678C144.729 118.372 143.114 117.471 141.928 116.125C143.112 117.486 144.741 118.39 146.529 118.678C148.262 119.089 150.043 119.269 151.824 119.214C153.588 119.207 155.334 118.86 156.965 118.193C158.607 117.548 159.94 116.307 160.692 114.721C161.412 113.061 159.15 111.555 157.633 112.168C157.234 112.302 156.882 112.546 156.618 112.871C156.354 113.197 156.189 113.59 156.143 114.006C156.101 114.429 156.149 114.856 156.281 115.26C156.414 115.664 156.629 116.037 156.914 116.355C159.498 118.807 162.536 120.74 165.859 122.047Z" fill="#EF4380"/>
<path d="M155.552 168.609C154.764 171.484 152.933 173.966 150.411 175.578C149.739 175.914 149.007 176.114 148.257 176.167C147.507 176.219 146.753 176.123 146.041 175.885C144.625 175.357 143.368 174.478 142.391 173.332C141.81 172.837 141.371 172.199 141.118 171.482C140.865 170.765 140.808 169.994 140.951 169.248C141.261 168.543 141.79 167.957 142.462 167.575C143.133 167.194 143.91 167.037 144.678 167.129C145.458 167.241 146.207 167.507 146.883 167.91C147.558 168.314 148.145 168.846 148.611 169.477C149.627 170.557 150.492 171.767 151.182 173.077C151.909 174.392 152.205 175.9 152.03 177.391C151.921 178.133 151.663 178.846 151.269 179.486C150.876 180.127 150.357 180.682 149.742 181.118C149.151 181.577 148.431 181.833 147.892 182.267C147.316 182.696 146.813 183.213 146.401 183.798C145.55 184.965 145.149 186.396 145.27 187.832C145.45 189.236 146.066 190.614 146.375 192.044C146.731 193.461 146.98 194.903 147.12 196.358C147.427 199.27 147.139 202.213 146.272 205.012C147.085 202.211 147.321 199.277 146.966 196.383C146.797 194.938 146.531 193.505 146.169 192.095C145.861 190.665 145.244 189.363 145.038 187.857C144.904 186.361 145.315 184.867 146.195 183.645C146.622 183.04 147.143 182.506 147.737 182.062C148.329 181.603 149.023 181.322 149.588 180.888C150.15 180.454 150.617 179.911 150.962 179.292C151.306 178.674 151.521 177.992 151.593 177.289C151.755 175.867 151.468 174.431 150.77 173.179C150.073 171.905 149.209 170.729 148.2 169.681C147.329 168.544 146.049 167.785 144.627 167.563C143.942 167.497 143.254 167.647 142.659 167.99C142.064 168.334 141.593 168.854 141.311 169.477C141.183 170.168 141.239 170.88 141.474 171.543C141.708 172.205 142.113 172.796 142.648 173.255C143.596 174.346 144.808 175.181 146.169 175.68C146.85 175.914 147.571 176.011 148.29 175.967C149.009 175.924 149.712 175.739 150.359 175.425C152.845 173.832 154.684 171.418 155.552 168.609Z" fill="#EF4380"/>
<path d="M189.148 239.423C186.132 240.333 182.94 240.508 179.842 239.934C178.281 239.634 176.809 238.984 175.539 238.032C174.27 237.081 173.236 235.854 172.516 234.445C171.225 231.547 171.033 228.283 171.977 225.256C172.739 222.224 174.17 219.399 176.167 216.985C174.277 219.461 172.913 222.292 172.157 225.307C171.27 228.272 171.499 231.456 172.799 234.267C173.492 235.638 174.488 236.837 175.712 237.774C176.935 238.711 178.356 239.362 179.868 239.679C182.943 240.266 186.11 240.179 189.148 239.423Z" fill="#EF4380"/>
<path d="M195.291 239.959C197.496 242.207 199.012 245.031 199.661 248.102C199.718 248.907 199.5 249.707 199.044 250.374C198.539 251.004 197.846 251.46 197.065 251.676C195.538 252.063 193.958 252.201 192.387 252.085C190.819 252.085 189.276 251.88 187.734 251.778C186.964 251.733 186.191 251.733 185.421 251.778C184.675 251.778 183.853 251.906 183.467 252.544C183.091 253.184 182.912 253.919 182.953 254.659C182.994 255.399 183.253 256.11 183.698 256.705C184.478 258.023 185.336 259.293 186.269 260.509C188.197 262.974 189.636 265.781 190.51 268.78C190.933 270.306 190.806 271.931 190.15 273.375C189.376 274.782 188.206 275.935 186.783 276.693C183.993 278.15 180.93 279.019 177.786 279.246C174.672 279.572 171.524 279.312 168.507 278.48C171.525 279.259 174.665 279.467 177.761 279.093C180.868 278.846 183.893 277.977 186.654 276.54C188.022 275.824 189.155 274.735 189.919 273.4C190.559 272.007 190.687 270.435 190.279 268.958C189.396 266.002 187.957 263.239 186.038 260.815C185.104 259.591 184.246 258.312 183.467 256.986C182.987 256.332 182.714 255.55 182.681 254.741C182.649 253.932 182.86 253.132 183.287 252.442C183.555 252.127 183.897 251.881 184.282 251.725C184.667 251.569 185.084 251.509 185.498 251.549C186.285 251.502 187.075 251.502 187.863 251.549C189.431 251.549 190.973 251.829 192.515 251.88C194.05 252.006 195.595 251.886 197.091 251.523C197.819 251.326 198.467 250.906 198.941 250.323C199.372 249.702 199.58 248.956 199.533 248.204C199.322 246.633 198.75 245.131 197.862 243.814C197.103 242.467 196.244 241.179 195.291 239.959Z" fill="#EF4380"/>
<path d="M218.786 309.088C218.023 309.053 217.268 309.242 216.613 309.631C215.958 310.02 215.433 310.593 215.104 311.276C214.775 311.96 214.656 312.725 214.762 313.475C214.868 314.226 215.195 314.929 215.701 315.496C217.483 317.899 219.546 320.084 221.845 322.005C222.983 323.031 223.917 324.26 224.595 325.63C224.912 326.355 224.967 327.167 224.749 327.928C224.49 328.677 223.97 329.31 223.284 329.715C220.516 331.023 217.4 331.417 214.39 330.838C215.885 331.011 217.394 331.011 218.889 330.838C220.381 330.716 221.828 330.271 223.13 329.536C223.764 329.171 224.234 328.58 224.444 327.882C224.654 327.185 224.589 326.434 224.261 325.783C223.58 324.467 222.655 323.289 221.536 322.312C219.207 320.373 217.142 318.142 215.393 315.674C214.973 315.026 214.706 314.293 214.613 313.528C214.519 312.763 214.602 311.987 214.853 311.258C215.279 310.604 215.86 310.064 216.546 309.685C217.232 309.307 218.001 309.102 218.786 309.088Z" fill="#EF4380"/>
<path d="M323.996 7.45341C321.899 7.08069 319.777 6.86734 317.647 6.81521C315.524 6.69753 313.396 6.93044 311.349 7.50446C310.377 7.80665 309.494 8.34137 308.779 9.06165C308.434 9.44286 308.164 9.88432 307.982 10.3636C307.868 10.8436 307.923 11.3478 308.136 11.7931C308.498 12.7568 309.202 13.5558 310.115 14.0395C310.566 14.2234 311.055 14.2939 311.539 14.2449C312.023 14.1959 312.488 14.0289 312.892 13.7587C313.191 13.5144 313.38 13.1624 313.419 12.7798C313.457 12.3971 313.342 12.0148 313.097 11.7165C312.543 11.1063 311.785 10.7163 310.964 10.6188C310.173 10.3748 309.335 10.324 308.521 10.4707C307.706 10.6173 306.939 10.9572 306.285 11.4612C305.953 11.6867 305.684 11.9926 305.505 12.3499C305.325 12.7073 305.239 13.1043 305.257 13.5035C305.453 14.3077 305.872 15.0415 306.465 15.6223C307.07 16.2317 307.458 17.0204 307.571 17.8687C307.666 18.717 307.666 19.5732 307.571 20.4214C307.775 19.6121 307.776 18.7654 307.574 17.9555C307.373 17.1455 306.974 16.397 306.414 15.7754C305.779 15.1941 305.332 14.4391 305.129 13.6056C305.075 13.1435 305.15 12.6758 305.345 12.2529C305.54 11.83 305.847 11.468 306.234 11.206C306.914 10.6748 307.712 10.3121 308.561 10.1478C309.41 9.98358 310.287 10.0225 311.118 10.2614C311.987 10.4214 312.77 10.8828 313.328 11.5634C313.618 11.9246 313.764 12.3787 313.74 12.8397C313.681 13.2987 313.463 13.7229 313.123 14.0395C312.653 14.3505 312.11 14.5352 311.547 14.5754C310.984 14.6157 310.42 14.5102 309.91 14.2693C308.902 13.7138 308.14 12.8028 307.776 11.7165C307.548 11.1932 307.503 10.6091 307.648 10.0572C307.833 9.62942 308.084 9.23316 308.393 8.88295C309.176 8.12098 310.139 7.56777 311.195 7.27471C313.27 6.71317 315.424 6.4975 317.57 6.63652C319.73 6.73735 321.879 7.01052 323.996 7.45341Z" fill="#EF4380"/>
<path d="M307.596 20.3701C309.106 18.0375 311.268 16.1924 313.817 15.0603C316.344 13.8982 319.002 13.0411 321.734 12.5076C327.242 11.4128 332.964 12.4541 337.723 15.4177C332.91 12.6669 327.251 11.7589 321.811 12.8649C319.105 13.3493 316.465 14.1461 313.946 15.239C311.402 16.3502 309.209 18.123 307.596 20.3701Z" fill="#EF4380"/>
<path d="M349.393 130.139C348.236 129.511 347.254 128.609 346.532 127.514C345.81 126.419 345.371 125.163 345.254 123.86C345.254 121.051 347.825 119.265 348.981 117.12C349.58 115.997 349.927 114.758 349.998 113.489C350.069 112.22 349.862 110.951 349.393 109.768C348.59 107.331 347.325 105.07 345.665 103.106C347.409 104.993 348.724 107.23 349.521 109.666C350.029 110.89 350.262 112.209 350.204 113.532C350.147 114.854 349.799 116.149 349.187 117.324C347.825 119.545 345.511 121.23 345.408 123.885C345.536 125.164 345.962 126.395 346.654 127.481C347.346 128.567 348.284 129.477 349.393 130.139Z" fill="#EF4380"/>
<path d="M350.935 82.3516C353.274 72.4724 352.94 60.3723 348.03 51.7184C346.51 49.4093 345.112 47.0235 343.84 44.5707C342.015 40.4097 341.99 35.7381 340.268 31.5516C336.669 22.6425 323.816 17.4348 313.02 19.4515C309.447 20.1152 307.596 20.3705 307.596 20.3705C307.166 19.2253 306.831 18.0471 306.594 16.8477C306.174 15.7786 305.667 14.7455 305.077 13.7588C302.675 9.68744 299.092 6.43101 294.795 4.41571C292.87 3.55562 290.885 2.83056 288.858 2.24586C286.017 1.27588 283.091 0.574996 280.118 0.152598C275.755 -0.310781 271.345 0.284916 267.265 1.88848C265.171 2.69909 263.186 3.7622 261.353 5.0539C259.734 6.20265 258.551 8.27039 256.469 7.60667C252.735 6.52256 248.824 6.16713 244.953 6.56004C238.584 6.55122 232.247 7.45397 226.137 9.24044C220.122 11.3337 214.57 15.5968 213.002 21.1108C212.18 23.9954 212.231 27.4672 209.532 29.2796C207.663 30.2082 205.607 30.7056 203.517 30.7347C191.616 32.2664 182.542 42.1966 179.277 52.4843C176.013 62.7719 177.169 73.4935 177.683 83.9854C178.002 86.786 177.721 89.6217 176.861 92.3074C175.988 94.1973 174.965 96.0154 173.802 97.7448C171.828 101.03 170.601 104.704 170.206 108.509C169.811 112.314 170.257 116.159 171.514 119.775C165.08 122.319 158.821 125.278 152.775 128.633C142.648 134.249 132.083 143.592 134.782 153.497C138.329 165.929 158.765 166.669 167.71 176.6C168.422 177.23 168.964 178.028 169.287 178.919C169.61 179.811 169.704 180.768 169.561 181.705C169.098 183.492 167.299 184.768 165.859 186.121C164.206 187.689 162.939 189.614 162.156 191.746C161.373 193.879 161.095 196.162 161.344 198.418C161.592 200.674 162.361 202.843 163.589 204.757C164.818 206.671 166.475 208.278 168.43 209.454C170.846 210.832 173.828 211.777 175.267 213.972C178.249 218.516 172.697 224.183 173.134 229.57C173.468 234.088 178.275 237.228 183.056 238.606C187.837 239.985 193.338 239.704 198.273 240.47C207.064 241.848 215.316 246.494 218.837 253.617C220.671 257.293 221.16 261.488 220.222 265.484C219.285 269.479 216.977 273.027 213.696 275.519C211.182 276.924 208.909 278.716 206.961 280.829C204.391 284.531 206.293 289.279 209.223 292.521C212.154 295.763 216.061 298.367 218.143 302.119C220.225 305.872 219.505 311.462 215.058 313.3C215.789 313.463 216.545 313.477 217.281 313.341C218.017 313.205 218.718 312.922 219.341 312.509C219.963 312.096 220.495 311.562 220.903 310.939C221.311 310.316 221.588 309.616 221.716 308.884C221.715 310.867 222.488 312.774 223.874 314.202C225.259 315.631 227.149 316.469 229.145 316.542C227.268 310.262 225.366 303.778 226.574 297.218C227.02 294.641 227.987 292.181 229.419 289.987C230.851 287.793 232.716 285.91 234.903 284.454" fill="#EF6898"/>
<path d="M284.513 153.702C284.625 154.603 284.922 155.472 285.387 156.254C272.535 161.13 268.113 174.124 266.674 182.446C261.834 184.556 257.317 187.331 253.256 190.691C247.842 195.052 242.99 200.059 238.81 205.599C238.346 204.836 237.822 204.11 237.242 203.429C236.103 202.315 235.11 201.063 234.286 199.702C232.435 195.95 234.748 191.482 237.602 188.445C240.455 185.407 244.028 182.701 245.313 178.744C246.598 174.787 245.442 170.601 245.313 166.465C245.091 160.642 246.907 154.923 250.454 150.281" fill="#EF4380"/>
<path d="M284.513 153.701C284.587 154.607 284.878 155.482 285.362 156.254C285.362 156.254 286.287 155.871 287.932 155.411C289.984 154.856 292.071 154.438 294.178 154.16C298.126 153.946 302.081 153.946 306.028 154.16C305.581 153.394 305.309 152.539 305.233 151.656C305.158 150.774 305.28 149.885 305.591 149.055" fill="white"/>
<path d="M284.899 157.709L284.334 156.841C283.754 155.931 283.393 154.9 283.28 153.829L285.85 153.523C285.89 153.879 285.968 154.229 286.082 154.569L287.573 154.161C289.683 153.605 291.831 153.195 293.999 152.936C297.371 152.729 300.754 152.729 304.127 152.936C303.658 151.459 303.778 149.86 304.461 148.468L306.697 149.668C306.471 150.322 306.391 151.016 306.462 151.704C306.533 152.392 306.754 153.056 307.108 153.65L308.291 155.667H305.952C302.09 155.462 298.22 155.462 294.359 155.667C292.314 155.921 290.288 156.305 288.292 156.816C286.75 157.275 285.876 157.607 285.722 157.633L284.899 157.709Z" fill="#EF6898"/>
<path d="M237.602 119.673C237.936 127.842 239.015 141.678 245.699 147.294C247.829 148.972 250.227 150.284 252.793 151.174C265.646 156.076 280.786 154.774 294.076 152.17C307.748 149.517 320.482 143.356 331.014 134.3C336.573 129.487 341.358 123.857 345.203 117.605C346.756 115.07 348.139 112.435 349.341 109.717C351.93 104.293 353.498 98.4448 353.968 92.4606C354.198 89.5243 353.723 86.5757 352.58 83.8578C351.475 81.4837 349.521 80.1308 348.956 77.578C347.696 70.9408 336.669 -7.04611 253.487 27.1609" fill="white"/>
<path d="M237.602 119.673C237.707 126.227 238.746 132.733 240.686 138.998C241.655 142.119 243.427 144.934 245.827 147.167C248.435 149.177 251.4 150.684 254.567 151.608C267.162 155.616 280.709 154.467 293.536 151.966C306.473 149.475 318.588 143.845 328.803 135.577C339.035 127.279 346.712 116.293 350.961 103.872C352.033 100.819 352.774 97.6611 353.171 94.452C353.642 91.288 353.387 88.0593 352.426 85.0068C351.817 83.5289 350.947 82.1715 349.855 80.9989C349.314 80.3102 348.881 79.5442 348.57 78.727C348.336 77.8896 348.165 77.0364 348.056 76.1742C347.491 72.9577 346.796 69.7668 345.948 66.6269C342.888 53.8907 336.474 42.1911 327.364 32.7262C322.674 28.1685 317.092 24.615 310.964 22.2854C304.848 20.0116 298.369 18.8528 291.839 18.8647C278.633 19.1239 265.605 21.9421 253.487 27.1611C265.563 21.73 278.591 18.6949 291.839 18.2265C298.496 18.1742 305.107 19.3247 311.349 21.6216C317.587 23.974 323.274 27.5708 328.058 32.1901C337.295 41.7396 343.814 53.5525 346.951 66.4226C347.825 69.5881 348.544 72.8046 349.136 76.0466C349.246 76.8224 349.409 77.59 349.624 78.3441C349.901 79.0513 350.282 79.7137 350.755 80.3097C351.855 81.5806 352.725 83.0318 353.326 84.5983C354.372 87.8171 354.671 91.2297 354.2 94.5796C353.871 97.8822 353.164 101.137 352.092 104.28C347.711 116.84 339.874 127.929 329.471 136.292C319.083 144.585 306.791 150.197 293.69 152.63C287.197 153.936 280.598 154.662 273.974 154.799C267.34 154.985 260.723 154.036 254.413 151.991C251.222 151.024 248.241 149.474 245.622 147.422C243.202 145.124 241.43 142.237 240.481 139.049C238.606 132.757 237.637 126.234 237.602 119.673Z" fill="#EF6898"/>
<path d="M234.337 118.882C229.865 110.381 226.832 105.276 228.657 95.9069C230.482 86.5383 236.368 81.9689 240.018 81.9689C261.148 81.9689 264.798 115.155 264.798 115.155C264.798 115.155 244.517 123.528 234.337 118.882Z" fill="white"/>
<path d="M242.177 120.617C239.438 120.704 236.713 120.208 234.183 119.162L233.515 117.911C229.376 110.1 226.651 104.943 228.374 95.8556C230.25 86.1806 236.471 81.6622 240.069 81.6622C261.225 81.6622 265.132 114.848 265.157 115.206V115.435H264.926C257.686 118.405 249.997 120.157 242.177 120.617ZM234.466 118.626C243.977 122.838 262.124 115.869 264.463 114.976C264.078 112.015 259.708 82.2238 240.044 82.2238C236.522 82.2238 230.713 86.972 228.991 95.9066C227.268 104.841 229.967 109.87 234.132 117.554L234.466 118.626Z" fill="#EF6898"/>
<path d="M193.209 121.332C190.946 125.839 190.181 130.943 191.024 135.909C192.014 140.869 194.435 145.436 197.99 149.055C201.306 152.808 205.111 156.152 208.427 159.93C210.11 161.809 211.583 163.863 212.822 166.057C213.554 167.09 214.044 168.273 214.257 169.518C214.471 170.763 214.402 172.04 214.056 173.256C214.37 172.045 214.408 170.779 214.168 169.552C213.927 168.324 213.415 167.165 212.668 166.159C211.392 163.942 209.875 161.87 208.144 159.981C204.802 156.229 200.972 152.936 197.605 149.183C194.05 145.532 191.632 140.941 190.639 135.96C189.842 130.936 190.746 125.791 193.209 121.332Z" fill="#EF4380"/>
<path d="M324.356 281.033L303.586 341.023L277.881 339.364L276.365 287.671C276.341 286.918 276.156 286.178 275.823 285.501C275.491 284.824 275.017 284.225 274.435 283.742C273.852 283.26 273.173 282.906 272.442 282.703C271.711 282.5 270.946 282.453 270.196 282.565C258.731 284.275 231.073 288.692 213.516 277.46C210.946 275.826 204.159 271.129 203.645 263.828C202.129 242.359 216.267 217.878 216.267 217.878L235.288 211.241" fill="white"/>
<path d="M304.023 341.687L277.136 339.977L275.594 287.721C275.558 287.068 275.385 286.43 275.087 285.846C274.788 285.263 274.37 284.749 273.859 284.335C273.349 283.922 272.757 283.619 272.121 283.446C271.486 283.273 270.821 283.234 270.17 283.331H269.399C257.729 285.067 230.43 289.125 213.053 278.046C206.756 274.141 203.26 269.29 203.003 263.93C201.358 242.64 215.444 217.98 215.598 217.725V217.52L234.825 210.807L235.237 212.006L216.446 218.567C215.11 220.967 202.591 243.967 204.005 263.981C204.339 268.805 207.655 273.349 213.593 277.127C230.584 287.951 257.549 283.943 269.065 282.233H269.836C270.663 282.107 271.507 282.155 272.314 282.372C273.122 282.59 273.874 282.974 274.523 283.498C275.172 284.022 275.703 284.676 276.083 285.416C276.462 286.157 276.68 286.968 276.725 287.798L278.215 338.853L302.969 340.436L323.533 280.906L324.742 281.314L304.023 341.687Z" fill="#EF6898"/>
<path d="M183.853 59.1469C181.424 56.5418 179.8 53.2988 179.174 49.8038C178.414 46.3357 178.934 42.712 180.639 39.5927C182.697 36.6538 185.667 34.4658 189.096 33.364C192.439 32.1584 195.976 31.5701 199.533 31.6281C196.022 31.7192 192.55 32.3744 189.251 33.5682C185.91 34.6938 183.025 36.8605 181.025 39.7459C179.298 42.8106 178.75 46.3936 179.483 49.8293C180.079 53.2658 181.587 56.4822 183.853 59.1469Z" fill="#EF4380"/>
<path d="M209.378 29.3821C203.862 27.0436 198.151 25.19 192.31 23.8426C189.381 23.2142 186.383 22.9653 183.39 23.1023C181.899 23.1158 180.42 23.3835 179.02 23.8937C178.678 24.0147 178.375 24.2259 178.144 24.5047C177.913 24.7834 177.763 25.1193 177.709 25.4764C177.684 25.6588 177.697 25.8444 177.748 26.0215C177.799 26.1985 177.887 26.3631 178.005 26.5047C178.124 26.6464 178.271 26.762 178.436 26.8442C178.602 26.9265 178.784 26.9736 178.969 26.9825C178.777 26.9798 178.589 26.9378 178.414 26.8591C178.24 26.7804 178.084 26.6668 177.956 26.5253C177.828 26.3839 177.731 26.2177 177.671 26.0372C177.611 25.8566 177.589 25.6657 177.606 25.4764C177.648 25.0901 177.794 24.7221 178.029 24.4119C178.265 24.1017 178.581 23.8608 178.943 23.715C180.364 23.172 181.868 22.8783 183.39 22.847C186.403 22.6623 189.427 22.8683 192.387 23.4597C198.241 24.8455 203.935 26.8302 209.378 29.3821Z" fill="#EF4380"/>
<path d="M207.296 31.2451C206.293 34.9466 204.725 38.4694 203.8 42.1709C202.656 45.8193 202.884 49.7561 204.442 53.2499C206.216 56.6451 209.583 58.7128 212.642 61.0869C214.18 62.2613 215.517 63.6751 216.601 65.2734C217.707 66.8778 218.157 68.8399 217.86 70.7619C218.102 68.8528 217.596 66.9246 216.447 65.3755C215.356 63.8119 214.02 62.4328 212.488 61.2911C209.532 58.9426 206.01 56.9259 204.108 53.4286C202.539 49.8443 202.338 45.8152 203.543 42.0943C204.519 38.3673 206.165 34.8955 207.296 31.2451Z" fill="#EF4380"/>
<path d="M288.472 132.079C290.805 133.608 293.595 134.298 296.378 134.033C299.161 133.768 301.768 132.565 303.766 130.624C306.232 127.812 307.908 124.405 308.625 120.745C308.959 119.162 306.517 118.473 306.054 120.081C304.358 127.739 298.06 134.913 289.629 129.909C289.339 129.74 288.993 129.692 288.668 129.776C288.343 129.86 288.064 130.068 287.894 130.356C287.723 130.644 287.675 130.987 287.759 131.31C287.844 131.633 288.054 131.91 288.343 132.079H288.472Z" fill="#EF6898"/>
<path d="M336.669 90.3418C335.255 92.8946 301.684 108.824 287.444 108.543C285.77 95.2429 288.61 81.7683 295.515 70.2516C297.098 67.1746 299.556 64.627 302.584 62.9251C304.572 62.1359 306.716 61.8107 308.851 61.9744C310.986 62.1382 313.054 62.7866 314.896 63.8697C318.557 66.0666 321.852 68.8136 324.664 72.013C330.011 77.2972 335.46 83.092 336.669 90.3418Z" fill="white"/>
<path d="M287.829 108.926H287.187V108.645C285.438 95.1939 288.309 81.5501 295.335 69.9198C296.963 66.791 299.473 64.2008 302.558 62.4657C304.59 61.6504 306.783 61.3114 308.967 61.4753C311.152 61.6391 313.269 62.3012 315.154 63.4103C318.843 65.6189 322.164 68.3833 324.999 71.6046C329.754 76.4804 335.692 82.556 337.08 90.2398C335.486 93.4818 301.941 108.926 287.829 108.926ZM287.829 108.211C302.327 108.211 334.407 92.8947 336.335 90.3419C334.947 82.9134 329.137 76.9654 324.459 72.1662C321.669 68.9882 318.4 66.2585 314.768 64.074C312.971 63.0095 310.951 62.3706 308.864 62.2068C306.778 62.043 304.682 62.3587 302.738 63.1294C299.773 64.8132 297.363 67.3134 295.798 70.3282C288.975 81.725 286.171 95.055 287.829 108.211Z" fill="#EF6898"/>
<path d="M336.669 90.3414C336.669 90.3414 317.03 57.1555 303.252 65.7328C289.474 74.3101 287.469 108.594 287.469 108.594C285.796 95.2936 288.636 81.819 295.541 70.3022C297.124 67.2252 299.582 64.6777 302.61 62.9758C304.598 62.1866 306.742 61.8613 308.877 62.0251C311.011 62.1889 313.08 62.8373 314.922 63.9203C318.582 66.1172 321.878 68.8643 324.69 72.0636C330.011 77.2968 335.461 83.0916 336.669 90.3414Z" fill="#EF6898"/>
<path d="M321.066 88.0444C332.299 87.5593 329.189 75.9698 323.379 70.4558C321.747 68.9248 319.974 67.5488 318.084 66.3459C315.971 64.616 313.558 63.2837 310.964 62.4146C309.755 62.0529 308.484 61.9456 307.232 62.0994C305.979 62.2533 304.773 62.6649 303.689 63.3081C297.109 67.5967 301.119 78.012 305.977 82.122C307.645 83.4599 309.476 84.5835 311.427 85.4661C314.374 87.1077 317.687 87.9938 321.066 88.0444Z" fill="#EF6898"/>
<path d="M307.879 68.7962C308.085 79.237 327.98 84.4957 324.202 72.3701C323.688 70.7108 320.963 68.9749 318.598 67.2646C313.714 64.1247 307.751 62.2612 307.879 68.7962Z" fill="white"/>
<path d="M307.571 68.7962C307.805 70.9887 308.651 73.0726 310.014 74.8135C311.376 76.5543 313.201 77.883 315.282 78.6499C317.853 79.7731 322.351 80.6155 324.253 77.7054C327.569 72.5999 320.86 68.2857 317.262 66.218C313.252 63.8949 307.648 62.5675 307.494 68.7707C307.494 68.8553 307.528 68.9365 307.588 68.9964C307.648 69.0562 307.73 69.0898 307.815 69.0898C307.9 69.0898 307.982 69.0562 308.042 68.9964C308.102 68.9365 308.136 68.8553 308.136 68.7707C308.316 61.1124 316.953 66.5243 320.192 68.7707C321.4 69.372 322.421 70.2882 323.146 71.4213C323.87 72.5545 324.271 73.8619 324.305 75.2037C324.316 75.9847 324.072 76.7482 323.608 77.3791C323.144 78.01 322.487 78.4739 321.734 78.701C315.796 80.6666 308.445 74.4123 308.111 68.7197C308.188 68.3878 307.545 68.3878 307.571 68.7962Z" fill="#EF6898"/>
<path d="M339.008 73.3403C337.759 72.9291 336.539 72.4345 335.358 71.8597C334.73 71.6011 334.171 71.2013 333.725 70.692C333.279 70.1826 332.958 69.5774 332.787 68.924C332.299 66.1926 333.918 63.8185 334.586 61.2657C334.975 60.036 334.975 58.7174 334.586 57.4876C334.179 56.2653 333.452 55.1728 332.479 54.3222C330.427 52.7039 327.961 51.6872 325.358 51.3865C320.217 50.9015 314.639 52.0502 309.755 49.5741C307.417 48.2721 305.56 46.2587 304.46 43.8303C303.525 41.3912 303.19 38.7656 303.483 36.172C303.236 38.778 303.624 41.4047 304.614 43.8303C305.689 46.1871 307.489 48.1444 309.755 49.4209C312.172 50.5224 314.809 51.0636 317.467 51.0036C320.037 51.1312 322.608 50.7739 325.384 51.0036C328.051 51.3228 330.573 52.3848 332.659 54.0669C333.668 54.9635 334.421 56.108 334.844 57.3855C335.198 58.6808 335.144 60.0529 334.689 61.3168C333.97 63.8695 332.376 66.1926 332.813 68.7964C332.957 69.4288 333.245 70.02 333.655 70.5245C334.065 71.0291 334.586 71.4334 335.178 71.7065C336.413 72.3413 337.693 72.8873 339.008 73.3403Z" fill="#EF4380"/>
<path d="M264.695 115.18C264.695 115.18 262.536 95.8042 252.022 86.5121L251.842 86.1803L250.891 85.44C249.092 84.6155 247.078 84.3743 245.133 84.7507C243.938 85.2857 242.947 86.1862 242.304 87.3206C241.661 88.4551 241.401 89.764 241.56 91.056C241.695 93.8491 242.295 96.6007 243.334 99.1994C246.393 107.241 257.806 109.615 259.502 102.671C261.555 106.702 263.291 110.884 264.695 115.18Z" fill="#EF6898"/>
<path d="M253.719 102.008C255.004 102.416 258.706 102.161 259.58 100.834C259.58 100.834 259.58 93.5581 250.814 87.0996C249.569 88.0386 248.652 89.3414 248.191 90.8249C247.73 92.3084 247.748 93.8981 248.244 95.3706C248.546 96.8349 249.202 98.2043 250.156 99.3606C251.11 100.517 252.333 101.425 253.719 102.008Z" fill="white"/>
<path d="M255.261 102.799C254.672 102.814 254.083 102.745 253.513 102.595C252 101.992 250.664 101.022 249.627 99.7729C248.589 98.5241 247.884 97.0368 247.575 95.4472C247.063 93.8414 247.065 92.1173 247.581 90.5126C248.096 88.9078 249.1 87.5014 250.454 86.487L250.814 86.2572L251.174 86.5125C260.094 93.0986 260.197 100.451 260.197 100.757V100.936V101.089C259.547 101.711 258.77 102.186 257.918 102.481C257.066 102.777 256.159 102.885 255.261 102.799ZM253.899 101.395C255.651 101.793 257.491 101.509 259.04 100.604C258.653 98.0326 257.731 95.5697 256.332 93.3721C254.934 91.1744 253.09 89.2904 250.917 87.8399C249.894 88.7301 249.159 89.8998 248.802 91.2029C248.446 92.5061 248.484 93.8847 248.912 95.1664C249.2 96.539 249.818 97.8222 250.714 98.9067C251.609 99.9912 252.754 100.845 254.053 101.395H253.899Z" fill="#EF6898"/>
<path d="M272.56 350.724C272.156 351.936 272.036 353.224 272.21 354.489C272.383 355.755 272.846 356.964 273.563 358.024C276.339 360.577 304.203 360.22 308.11 358.024C310.398 356.671 309.858 350.749 309.396 349.524" fill="#EF6898"/>
<path d="M288.806 360.501C281.506 360.501 274.643 359.939 273.126 358.586C271.224 356.876 271.224 352.358 271.944 350.571L273.126 351.03C272.776 352.127 272.671 353.287 272.818 354.429C272.964 355.57 273.359 356.667 273.974 357.642C276.545 359.863 303.921 359.71 307.751 357.463C309.576 356.391 309.242 350.928 308.779 349.805L309.961 349.371C310.45 350.673 311.118 357.029 308.393 358.637C306.414 359.735 297.314 360.501 288.806 360.501Z" fill="white"/>
<path d="M277.11 339.032C275.345 340.379 273.987 342.182 273.184 344.244C272.382 346.307 272.166 348.548 272.561 350.724C295.695 355.676 309.344 349.831 309.396 349.422C308.462 344.19 305.792 339.419 301.813 335.867C297.448 333.229 292.219 332.386 287.238 333.518C286.302 333.75 285.426 334.176 284.668 334.769C282.827 336.36 280.698 337.59 278.396 338.394" fill="#EF6898"/>
<path d="M290.4 353.276C284.349 353.256 278.317 352.597 272.406 351.311H271.995V350.902C271.579 348.597 271.81 346.222 272.663 344.039C273.515 341.855 274.956 339.946 276.828 338.521L277.522 339.594C275.906 340.833 274.652 342.477 273.889 344.356C273.125 346.236 272.88 348.284 273.178 350.29C293.536 354.553 306.594 350.29 308.753 349.218C307.798 344.288 305.243 339.805 301.479 336.454C297.277 333.933 292.256 333.128 287.47 334.207C286.624 334.421 285.836 334.813 285.156 335.356C283.212 337.009 280.97 338.282 278.55 339.109L278.319 337.96C280.509 337.175 282.532 335.989 284.282 334.463C285.078 333.732 286.026 333.183 287.058 332.854C292.246 331.687 297.689 332.605 302.198 335.407C306.277 339.058 308.994 343.969 309.91 349.345V349.703L309.602 349.932C308.779 350.724 301.864 353.276 290.4 353.276Z" fill="white"/>
<path d="M287.624 342.657C287.677 342.209 287.887 341.794 288.215 341.482C289.18 340.761 290.282 340.24 291.454 339.951C293.11 339.405 294.876 339.273 296.595 339.568C296.856 339.622 297.104 339.726 297.324 339.875C297.545 340.024 297.734 340.214 297.88 340.436L287.624 342.657Z" fill="#EF6898"/>
<path d="M286.93 343.448V342.606C286.997 342.001 287.279 341.439 287.726 341.023C288.755 340.232 289.936 339.659 291.197 339.338C292.978 338.755 294.878 338.624 296.723 338.955C297.068 339.027 297.394 339.168 297.681 339.37C297.969 339.572 298.211 339.831 298.394 340.129L298.78 340.87L286.93 343.448ZM295.027 340.027C293.867 340.043 292.716 340.224 291.608 340.563C290.698 340.829 289.832 341.225 289.037 341.738L296.389 340.155C295.94 340.073 295.483 340.039 295.027 340.053V340.027Z" fill="white"/>
<path d="M285.953 339.389C286.6 338.311 287.597 337.483 288.78 337.041C289.37 336.82 290.003 336.735 290.631 336.793C291.259 336.85 291.865 337.049 292.405 337.373L285.953 339.389Z" fill="#EF6898"/>
<path d="M284.873 340.513L285.362 339.287C286.06 338.058 287.169 337.11 288.498 336.607C289.219 336.313 290.005 336.207 290.779 336.301C291.553 336.395 292.29 336.685 292.919 337.143L293.433 337.858L284.873 340.513ZM290.014 337.526C289.644 337.516 289.276 337.586 288.935 337.73L288.241 338.113L290.066 337.552L290.014 337.526Z" fill="white"/>
<path d="M348.776 79.1351C346.205 74.489 341.373 74.3103 337.106 72.6C335.605 72.1847 334.285 71.2869 333.353 70.0472C331.528 66.8307 335.049 63.1547 335.178 59.4532C335.332 54.7562 330.037 51.7949 325.282 51.3099C320.526 50.8249 315.616 51.8715 311.221 50.1357C309 49.2484 307.088 47.7376 305.719 45.7881C304.349 43.8385 303.581 41.5348 303.509 39.1588C303.647 37.8604 303.647 36.5514 303.509 35.253C302.558 31.0154 297.057 29.7135 292.688 30.1475C287.172 30.6964 281.876 32.581 277.265 35.636C281.095 39.0567 280.246 45.5917 276.93 49.4975C273.614 53.4032 268.628 55.4199 263.898 57.4621C263.022 57.7392 262.252 58.2732 261.687 58.9937C261.322 59.7211 261.153 60.5306 261.199 61.3423C261.263 67.443 259.816 73.4658 256.983 78.8798C255.556 81.5989 253.398 83.8714 250.747 85.4444C248.097 87.0173 245.059 87.8289 241.972 87.7889C242.846 90.8522 240.352 93.7879 237.782 95.7025C236.419 96.6981 232.898 98.485 232.461 100.221C231.844 102.774 236.111 108.543 236.676 111.249C237.434 115.97 237.847 120.739 237.91 125.519C237.91 125.519 220.585 116.61 220.354 88.1208C220.045 51.0802 238.142 30.1475 262.51 24.3017C334.947 6.43233 349.11 68.2858 350.909 82.5558C350.909 82.5558 349.855 81.3049 349.496 80.7178C349.184 80.2255 348.941 79.693 348.776 79.1351Z" fill="#EF6898"/>
<path d="M279.861 24.174C280.812 23.8677 281.737 23.6379 282.431 23.4082C284.375 22.7644 286.399 22.3949 288.446 22.3105C290.835 22.3284 293.156 23.0969 295.078 24.5059C296.955 25.8843 301.093 27.85 302.224 29.9432C303.39 32.5275 303.843 35.3734 303.535 38.1887C303.725 36.6943 303.503 35.1768 302.893 33.7979C302.339 32.6915 301.436 31.795 300.322 31.2452C299.437 30.7905 298.495 30.4557 297.52 30.2496C296.673 30.0733 295.814 29.9624 294.95 29.9177C292.866 29.8767 290.785 30.0911 288.755 30.5559C286.673 30.9653 284.64 31.5899 282.688 32.4194C280.731 33.267 278.848 34.2745 277.059 35.4317C276.494 34.9355 275.985 34.3791 275.542 33.7724C274.881 32.6726 274.532 31.4156 274.532 30.1347C274.532 28.8538 274.881 27.5968 275.542 26.497C276.757 25.3673 278.244 24.5672 279.861 24.174Z" fill="#EF4380"/>
<path d="M262.536 7.35141C261.017 8.31375 259.732 9.59788 258.772 11.1117C257.812 12.6255 257.201 14.3315 256.983 16.1074C256.71 19.666 257.301 23.2377 258.706 26.5227C260.049 29.8359 261.123 33.2505 261.919 36.7337C262.2 38.5098 262.2 40.3185 261.919 42.0945C261.843 43.0032 261.442 43.8547 260.788 44.4941C260.446 44.8147 260.003 45.0076 259.535 45.0402C259.066 45.0728 258.6 44.943 258.217 44.6728C258.602 44.9462 259.074 45.0734 259.545 45.0312C260.017 44.9891 260.458 44.7804 260.788 44.4431C261.41 43.8027 261.776 42.9584 261.816 42.069C262.045 40.2935 261.993 38.4933 261.662 36.7337C260.832 33.2477 259.723 29.8331 258.346 26.5227C256.98 23.175 256.442 19.5509 256.778 15.9542C257.017 14.1804 257.66 12.484 258.658 10.9935C259.655 9.50297 260.981 8.2575 262.536 7.35141Z" fill="#EF4380"/>
<path d="M259.862 36.9376C253.029 38.336 246.927 42.1221 242.666 47.6081C240.56 50.3422 239.131 53.5291 238.492 56.9122C237.854 60.2953 238.024 63.7801 238.99 67.0857C237.853 63.804 237.596 60.2849 238.245 56.8747C238.87 53.4474 240.277 50.2078 242.357 47.4039C246.675 41.8702 252.918 38.1375 259.862 36.9376Z" fill="#EF4380"/>
<path d="M230.739 76.046C226.075 82.0569 223.888 89.6042 224.621 97.1574C225.007 100.893 226.19 104.505 228.091 107.751C229.942 111.019 232.692 113.699 234.466 117.094C235.379 118.785 235.881 120.665 235.931 122.583C235.941 124.515 235.278 126.391 234.054 127.893C232.872 129.399 231.484 130.701 230.353 132.181C229.206 133.665 228.191 135.246 227.32 136.904C225.555 140.234 224.485 143.884 224.176 147.635C223.867 151.385 224.324 155.159 225.52 158.73C224.254 155.162 223.742 151.374 224.016 147.601C224.291 143.828 225.345 140.152 227.114 136.802C227.983 135.118 228.998 133.512 230.147 132.003C231.304 130.496 232.718 129.169 233.797 127.688C234.973 126.244 235.609 124.44 235.597 122.583C235.539 120.726 235.046 118.908 234.157 117.273C232.435 113.955 229.71 111.249 227.834 107.93C225.932 104.639 224.758 100.985 224.389 97.2084C224.034 93.4371 224.409 89.633 225.495 86.0018C226.621 82.3951 228.398 79.0218 230.739 76.046Z" fill="#EF4380"/>
<path d="M232.307 118.881C232.759 121.373 232.205 123.941 230.764 126.029C229.39 128.116 227.552 129.863 225.392 131.135C223.099 132.128 220.747 132.98 218.349 133.687C216.032 134.713 213.957 136.208 212.257 138.078C208.529 141.601 208.401 147.268 209.686 151.94C211.223 156.723 214.481 160.776 218.837 163.325C214.356 160.894 210.988 156.845 209.429 152.016C208.665 149.609 208.403 147.073 208.658 144.562C208.904 142.012 210.041 139.628 211.871 137.823C213.689 136.039 215.86 134.648 218.246 133.738C220.635 133.03 222.979 132.177 225.263 131.186C227.416 129.913 229.245 128.166 230.61 126.08C231.362 125.053 231.899 123.887 232.191 122.651C232.482 121.415 232.521 120.133 232.307 118.881Z" fill="#EF4380"/>
<path d="M201.872 45.8466C196.731 49.5992 191.359 54.96 190.69 61.6227C189.945 69.0512 196.114 72.957 201.538 76.6585C210.534 82.8106 222.513 91.9751 223.618 103.845C224.235 110.38 219.017 117.018 213.131 119.315C203.954 122.915 193.466 118.498 184.11 122.736C180.886 124.128 178.07 126.306 175.922 129.069C173.773 131.831 172.363 135.089 171.823 138.537C170.666 146.885 176.964 150.127 181.539 156.1C184.621 159.947 187.068 164.255 188.788 168.864C189.71 170.731 189.958 172.856 189.49 174.882C189.022 176.908 187.867 178.714 186.218 179.994C181.642 184.181 175.936 187.653 177.144 194.903C178.049 198.295 179.82 201.399 182.285 203.914C184.386 206.286 186.326 208.793 188.094 211.419C190.15 214.661 197.502 228.165 188.223 228.395C188.171 228.395 188.122 228.415 188.086 228.451C188.05 228.487 188.03 228.535 188.03 228.586C188.03 228.637 188.05 228.686 188.086 228.722C188.122 228.758 188.171 228.778 188.223 228.778C194.469 228.625 193.723 222.523 192.001 218.209C190.508 214.565 188.537 211.131 186.14 207.998C182.208 202.893 175.576 197.583 177.658 190.129C179.534 183.466 188.351 181.781 190.125 175.45C191.384 170.958 187.554 164.703 185.446 161.078C183.345 157.556 180.844 154.284 177.992 151.327C175.58 149.385 173.734 146.838 172.645 143.949C171.649 139.988 172.209 135.798 174.213 132.232C175.948 129.17 178.396 126.564 181.352 124.632C184.308 122.7 187.686 121.499 191.204 121.128C197.142 120.234 203.054 121.408 208.941 120.694C217.346 119.698 225.469 111.325 223.824 102.569C221.999 92.9962 213.953 85.4145 206.576 79.7473C201.435 75.8926 193.723 72.5996 191.513 66.1921C188.942 58.1254 196.14 50.4161 202.052 46.1019C202.257 45.9487 202.052 45.6424 201.872 45.77V45.8466Z" fill="#EF4380"/>
<path d="M217.963 83.3723C217.649 80.8165 217.779 78.226 218.349 75.714C218.857 73.1788 219.615 70.6993 220.611 68.311C221.578 65.8929 222.942 63.6503 224.646 61.6738C226.42 59.7337 228.708 58.4318 230.481 56.5683C232.307 54.7417 233.488 52.3775 233.849 49.829C234.222 47.2897 234.222 44.71 233.849 42.1707C233.188 37.0523 231.686 32.0763 229.402 27.4413C231.834 32.0274 233.427 37.006 234.106 42.1452C234.476 44.6847 234.476 47.2639 234.106 49.8035C233.724 52.4166 232.497 54.8357 230.61 56.6959C228.785 58.585 226.471 59.9124 224.749 61.8015C223.053 63.7362 221.689 65.9356 220.713 68.311C219.707 70.6823 218.932 73.1443 218.4 75.663C217.806 78.1882 217.658 80.7968 217.963 83.3723Z" fill="#EF4380"/>
<path d="M277.11 35.5081C278.195 36.5806 278.986 37.91 279.408 39.3707C279.831 40.8314 279.872 42.375 279.526 43.8557C278.856 46.8494 277.212 49.5407 274.848 51.514C272.474 53.4364 269.811 54.9782 266.957 56.0834C265.545 56.6123 264.178 57.2525 262.87 57.998C262.232 58.3486 261.706 58.8706 261.353 59.5041C261.14 60.1978 261.07 60.9272 261.147 61.6484C261.242 64.6782 260.94 67.7074 260.248 70.6597C259.648 73.6471 258.544 76.5124 256.983 79.1349C256.206 80.4116 255.293 81.6012 254.258 82.6832C253.171 83.7573 251.974 84.7155 250.685 85.5423C248.174 87.3414 245.071 88.1344 241.997 87.7632V87.6101C242.178 89.0372 242.029 90.4866 241.56 91.8476C240.913 93.1113 239.925 94.1718 238.707 94.911L235.288 97.3361C234.141 98.0555 233.244 99.1068 232.718 100.348C232.738 101.716 233.119 103.054 233.823 104.229C234.44 105.479 235.134 106.781 235.725 107.956C236.288 109.238 236.777 110.55 237.19 111.887L238.476 115.869C239.527 118.468 240.085 121.238 240.121 124.038C240.084 125.456 239.628 126.832 238.81 127.995C237.871 129.041 236.79 129.952 235.597 130.701C234.467 131.51 233.59 132.62 233.067 133.903C232.544 135.185 232.396 136.588 232.641 137.951C232.949 139.3 233.507 140.581 234.286 141.729C235.016 142.91 235.967 143.941 237.088 144.766C239.324 146.426 241.792 147.804 243.899 149.642C246.118 151.4 247.647 153.875 248.218 156.637C248.49 157.996 248.446 159.4 248.09 160.74C247.734 162.081 247.074 163.323 246.161 164.372C245.247 165.428 244.231 166.394 243.128 167.256C242.575 167.672 242.082 168.162 241.663 168.711C241.343 169.323 241.085 169.964 240.892 170.626C240.165 173.323 240.3 176.177 241.277 178.795C242.126 181.348 243.36 183.9 244.362 186.453C244.878 187.746 245.291 189.078 245.596 190.435C246.03 191.771 246.03 193.209 245.596 194.545C245.041 195.828 244.2 196.968 243.135 197.879C242.071 198.79 240.811 199.448 239.452 199.804C240.809 199.442 242.065 198.778 243.125 197.863C244.185 196.947 245.021 195.804 245.57 194.52C246.001 193.192 246.001 191.763 245.57 190.435C245.265 189.078 244.852 187.746 244.336 186.453C243.334 183.9 242.074 181.348 241.226 178.795C240.234 176.163 240.091 173.291 240.815 170.575C241.007 169.905 241.265 169.255 241.586 168.635C242.011 168.074 242.513 167.576 243.077 167.154C244.166 166.324 245.173 165.392 246.084 164.372C246.985 163.332 247.634 162.101 247.981 160.774C248.329 159.446 248.366 158.057 248.089 156.713C247.518 153.979 245.999 151.531 243.797 149.795C241.689 147.957 239.247 146.579 236.985 144.945C235.855 144.111 234.896 143.072 234.157 141.882C233.366 140.719 232.8 139.421 232.486 138.053C232.143 136.611 232.278 135.098 232.872 133.739C233.456 132.455 234.337 131.327 235.442 130.445C236.608 129.741 237.672 128.883 238.604 127.893C239.406 126.762 239.853 125.421 239.889 124.038C239.858 121.237 239.3 118.467 238.244 115.869L236.805 111.938C236.39 110.61 235.901 109.306 235.34 108.032C234.748 106.781 234.054 105.479 233.412 104.331C232.671 103.112 232.272 101.72 232.255 100.297C232.799 98.9735 233.754 97.856 234.98 97.1063L238.398 94.6812C239.588 93.9758 240.551 92.9487 241.175 91.72C241.685 90.4742 241.913 89.132 241.843 87.7887V87.5335H241.971C245.002 87.9019 248.06 87.1176 250.531 85.3381C251.791 84.5245 252.963 83.5835 254.027 82.53C255.056 81.4404 255.961 80.2419 256.726 78.9562C258.247 76.3617 259.316 73.5309 259.888 70.5831C260.567 67.6546 260.869 64.6525 260.788 61.6484C260.713 60.8732 260.801 60.0911 261.045 59.3509C261.424 58.6545 261.994 58.0791 262.69 57.6916C264.014 56.935 265.398 56.2861 266.828 55.7516C269.617 54.6581 272.218 53.1426 274.54 51.2587C276.892 49.3522 278.553 46.7347 279.269 43.8046C279.646 42.3532 279.645 40.8308 279.267 39.3798C278.89 37.9288 278.147 36.5967 277.11 35.5081Z" fill="#EF4380"/>
<path d="M203.517 198.476C203.517 198.476 203.697 194.239 205.239 193.167C207.362 192.103 209.804 191.848 212.103 192.452C221.87 194.213 226.909 198.757 235.468 203.71C237.264 204.541 238.794 205.849 239.89 207.488C240.381 208.241 240.663 209.11 240.708 210.006C240.753 210.903 240.559 211.795 240.147 212.593" fill="#EF6898"/>
<path d="M240.661 212.874L239.581 212.236C239.911 211.532 240.061 210.758 240.016 209.983C239.971 209.208 239.733 208.456 239.324 207.794C238.282 206.268 236.843 205.051 235.16 204.272C233.103 203.072 231.253 201.923 229.479 200.8C224.261 197.052 218.304 194.442 212 193.141C209.878 192.514 207.594 192.724 205.625 193.729C204.699 194.392 204.237 197.047 204.16 198.553H202.9C202.9 198.094 203.157 193.984 204.879 192.759C205.989 192.146 207.211 191.758 208.473 191.618C209.735 191.477 211.012 191.588 212.231 191.942C218.727 193.281 224.861 195.978 230.224 199.855C231.998 200.978 233.823 202.127 235.854 203.301C237.747 204.187 239.357 205.573 240.506 207.309C241.007 208.147 241.285 209.098 241.312 210.072C241.339 211.046 241.114 212.011 240.661 212.874Z" fill="white"/>
<path d="M219.248 223.366C220.578 222.975 221.869 222.462 223.104 221.834C224.891 221.155 226.794 220.826 228.708 220.864C229.182 220.829 229.658 220.897 230.102 221.065C230.546 221.233 230.948 221.495 231.278 221.834C231.624 222.488 231.85 223.196 231.947 223.928C232.152 224.642 232.743 225.383 233.489 225.255C234.234 225.128 234.44 224.54 234.671 224.004C236.717 220.323 238.496 216.501 239.992 212.568C238.758 212.708 237.511 212.468 236.419 211.879C235.323 211.153 234.322 210.296 233.438 209.326C230.786 207.048 227.869 205.094 224.749 203.506C219.762 200.749 214.287 198.068 208.632 198.834C206.83 198.852 205.028 198.775 203.234 198.604C202.431 202.271 202.431 206.067 203.234 209.734C203.877 212.644 208.735 225.281 219.248 223.366Z" fill="#EF6898"/>
<path d="M233.412 225.918C232.932 225.863 232.481 225.658 232.125 225.332C231.77 225.006 231.527 224.577 231.433 224.106C231.433 223.876 231.433 223.621 231.279 223.391C231.226 222.975 231.086 222.575 230.867 222.217C230.592 221.948 230.26 221.745 229.895 221.621C229.53 221.497 229.142 221.457 228.759 221.502C226.908 221.449 225.065 221.762 223.336 222.421C222.899 222.6 222.462 222.804 222.025 223.008C221.215 223.45 220.351 223.784 219.454 224.004C208.53 225.969 203.491 213.435 202.746 209.964C201.914 206.188 201.914 202.278 202.746 198.502C202.9 197.991 203.157 198.017 204.52 198.144C205.892 198.313 207.276 198.373 208.658 198.323C214.519 197.506 220.251 200.34 225.186 203.071C228.3 204.688 231.208 206.667 233.849 208.968L234.415 209.504C235.086 210.211 235.846 210.829 236.677 211.342C237.665 211.877 238.798 212.091 239.915 211.955H240.866L240.609 212.874C239.71 215.53 238.556 218.094 237.165 220.532C236.497 221.783 235.854 223.085 235.263 224.31C235.031 224.77 234.594 225.765 233.592 225.918H233.412ZM228.4 220.251H228.708C229.283 220.203 229.861 220.288 230.397 220.501C230.932 220.714 231.41 221.048 231.793 221.477C232.123 221.985 232.334 222.561 232.41 223.161C232.41 223.366 232.41 223.57 232.538 223.774C232.667 223.978 233.052 224.668 233.361 224.642C233.669 224.617 233.9 224.131 234.08 223.723C234.672 222.447 235.34 221.17 236.008 219.894C237.201 217.752 238.233 215.525 239.093 213.231C238.022 213.207 236.973 212.927 236.034 212.414C235.092 211.857 234.227 211.179 233.463 210.398L232.898 209.862C230.286 207.614 227.412 205.686 224.338 204.118C219.377 201.386 214.056 198.757 208.607 199.523C207.131 199.598 205.652 199.547 204.185 199.37H203.62C202.945 202.792 202.945 206.312 203.62 209.734C204.288 212.746 209.069 224.565 218.863 222.804C219.679 222.61 220.465 222.309 221.202 221.911C221.665 221.681 222.128 221.477 222.59 221.298C224.45 220.581 226.431 220.225 228.425 220.251H228.4Z" fill="white"/>
<path d="M209.686 210.321C210.405 210.264 211.082 209.964 211.606 209.472C212.129 208.98 212.468 208.325 212.565 207.615C210.527 208.454 208.345 208.896 206.139 208.917C206.139 208.917 208.272 210.321 209.686 210.321Z" fill="#EF6898"/>
<path d="M209.429 210.858C208.095 210.685 206.833 210.155 205.779 209.326L204.314 208.228H206.139C208.237 208.206 210.313 207.79 212.256 207.003L213.208 206.492V207.565C213.11 208.424 212.717 209.224 212.094 209.829C211.471 210.434 210.656 210.806 209.789 210.883L209.429 210.858ZM208.144 209.3C208.566 209.508 209.035 209.605 209.506 209.581C210.197 209.475 210.837 209.153 211.331 208.662C210.291 208.972 209.224 209.186 208.144 209.3Z" fill="white"/>
<path d="M212.179 214.202C214.416 213.36 214.493 212.058 214.493 212.058C211.305 212.492 207.244 212.926 207.244 212.926C207.836 213.615 208.626 214.108 209.509 214.336C210.392 214.565 211.324 214.518 212.179 214.202Z" fill="#EF6898"/>
<path d="M210.714 215.121C209.981 215.113 209.257 214.95 208.592 214.642C207.927 214.334 207.336 213.888 206.859 213.334L206.139 212.44H207.296C207.296 212.44 211.357 212.006 214.544 211.572H215.316V212.338C215.316 212.517 215.161 214.074 212.591 215.018C211.977 215.167 211.341 215.201 210.714 215.121ZM208.915 213.385C209.391 213.656 209.924 213.816 210.472 213.851C211.02 213.886 211.569 213.797 212.077 213.589C212.516 213.418 212.924 213.177 213.285 212.874L208.915 213.385Z" fill="white"/>
<path d="M213.722 219.282C214.244 219.132 214.714 218.84 215.078 218.438C215.441 218.037 215.684 217.542 215.778 217.01C213.39 217.735 210.897 218.062 208.401 217.98C209.999 218.942 211.856 219.396 213.722 219.282Z" fill="#EF6898"/>
<path d="M212.951 219.971C211.221 219.846 209.547 219.312 208.067 218.414L205.137 216.601L208.53 217.265C210.926 217.36 213.322 217.067 215.624 216.397L216.601 216.142L216.421 217.112C216.306 217.771 216.002 218.384 215.546 218.877C215.091 219.371 214.502 219.724 213.851 219.894C213.554 219.949 213.253 219.974 212.951 219.971ZM211.434 218.49C212.142 218.702 212.888 218.754 213.619 218.644C214.072 218.552 214.469 218.285 214.725 217.903C213.639 218.157 212.541 218.353 211.434 218.49Z" fill="white"/>
<path d="M347.928 207.131C348.801 222.064 344.097 235.492 342.35 241.925C340.746 247.031 340.179 252.401 340.679 257.726C340.992 260.444 341.852 263.071 343.208 265.452C344.564 267.834 346.387 269.92 348.57 271.588C339.625 281.033 322.197 282.003 308.522 280.778C298.685 280.262 288.94 278.635 279.475 275.928C258.089 268.933 240.918 254.408 220.354 245.294C222.41 232.531 236.137 196.332 266.623 182.369C266.623 182.369 269.373 153.957 297.828 153.957C300.862 153.957 307.699 154.237 310.167 154.467" fill="white"/>
<path d="M347.311 207.131C347.876 221.401 342.889 233.629 340.473 247.337C339.331 252.598 339.651 258.069 341.398 263.164C342.084 264.984 343.018 266.702 344.174 268.27C344.971 269.342 346.616 270.363 346.745 271.716C347.002 273.554 343.198 275.213 341.604 276.055C329.574 282.335 314.717 281.008 301.684 279.655C285.674 277.961 270.214 272.887 256.341 264.772C250.094 261.249 244.028 257.446 237.859 253.846C234.748 252.034 231.638 250.273 228.451 248.588C225.88 247.311 221.639 246.035 221.305 243.686C220.97 241.338 223.053 237.049 223.875 234.752C225.605 229.867 227.693 225.115 230.121 220.533C235.136 210.64 241.881 201.711 250.043 194.163C254.919 190.296 260.073 186.789 265.466 183.671C267.471 182.318 266.828 183.033 267.522 181.322C270.273 174.43 271.147 168.201 276.802 162.585C285.773 153.676 298.522 154.161 310.218 155.106C311.041 155.106 311.041 153.906 310.218 153.855C297.211 152.783 283.511 152.706 274.231 163.351C271.365 166.742 269.167 170.639 267.754 174.838C267.137 176.574 267.034 180.812 265.98 182.216C264.573 182.982 263.112 183.647 261.61 184.207C259.611 185.332 257.672 186.559 255.801 187.883C252.996 189.867 250.334 192.043 247.832 194.393C242.314 199.646 237.478 205.563 233.437 212.007C226.737 222.082 222.066 233.352 219.685 245.193C219.648 245.326 219.655 245.468 219.706 245.597C219.757 245.726 219.849 245.835 219.968 245.907C243.102 256.578 263.409 274.32 289.089 279.093C307.236 282.54 334.252 286.471 348.904 272.124C349.022 272.005 349.088 271.845 349.088 271.677C349.088 271.51 349.022 271.35 348.904 271.231C337.902 262.398 340.936 248.92 344.277 237.126C347.268 227.403 348.682 217.269 348.467 207.105C348.467 206.288 347.156 206.288 347.208 207.105L347.311 207.131Z" fill="#EF6898"/>
<path d="M316.593 141.958C321.194 139.916 329.214 141.218 331.888 147.498C333.62 152.411 334.089 157.676 333.25 162.814C333.25 162.814 345.666 170.294 354.508 188.521C358.364 196.434 356.539 205.446 351.449 206.39C341.964 208.279 337.491 205.548 337.491 205.548" fill="white"/>
<path d="M316.773 142.571C329.96 137.696 334.33 152.476 332.633 162.636C332.6 162.77 332.609 162.91 332.66 163.038C332.71 163.166 332.8 163.276 332.916 163.351C339.284 167.648 344.685 173.211 348.776 179.689C352.863 185.764 358.235 194.342 355.074 201.821C352.811 207.207 342.709 207.744 337.825 204.961C337.68 204.896 337.516 204.887 337.365 204.935C337.213 204.983 337.085 205.085 337.005 205.222C336.925 205.358 336.899 205.52 336.932 205.674C336.965 205.829 337.054 205.966 337.183 206.059C342.735 209.224 353.711 209.02 356.359 202.332C360.729 191.253 350.01 177.851 342.966 170.294C340.396 167.563 337.414 165.495 334.767 162.968C333.43 161.692 334.252 162.968 333.995 162.1C333.842 159.77 333.876 157.431 334.098 155.106C333.43 145.533 326.592 137.568 316.31 141.346C315.539 141.627 315.873 142.852 316.645 142.571H316.773Z" fill="#EF6898"/>
<path d="M301.376 169.477C307.16 175.476 317.39 186.708 322.248 183.773C327.107 180.837 320.655 168.277 320.655 168.277C320.655 168.277 301.376 155.514 305.849 148.57C307.648 145.737 310.707 148.57 310.707 148.57C310.707 148.57 310.45 138.844 321.657 142.928C328.161 145.251 327.364 164.321 327.364 164.321C327.364 164.321 342.35 170.626 344.895 197.302C345.511 203.659 335.821 208.407 330.14 208.483C294.641 209.045 278.421 188.572 275.465 172.183" fill="white"/>
<path d="M300.939 169.937C305.566 174.762 311.863 183.262 318.932 184.692C323.868 185.687 325.23 181.322 324.562 177.212C324.148 173.407 322.528 169.832 319.935 167.001C317.673 164.831 314.794 163.198 312.506 161.053C310.848 159.587 309.349 157.953 308.033 156.177C307.406 155.33 306.879 154.414 306.465 153.446C306.165 152.941 305.989 152.372 305.951 151.787C305.334 149.761 306.774 148.791 310.27 148.877C310.359 148.959 310.471 149.015 310.591 149.037C310.711 149.059 310.835 149.047 310.949 149.001C311.062 148.955 311.16 148.879 311.231 148.78C311.302 148.681 311.343 148.564 311.349 148.443C311.268 147.254 311.567 146.071 312.205 145.062C312.842 144.054 313.784 143.271 314.897 142.826C320.038 140.937 324.15 145.15 325.436 149.668C326.63 154.473 327.072 159.433 326.747 164.372C326.746 164.48 326.774 164.587 326.828 164.681C326.882 164.775 326.96 164.854 327.055 164.908C331.535 167.291 335.209 170.931 337.62 175.374C340.816 180.881 342.91 186.948 343.789 193.244C344.663 198.936 343.378 202.587 338.237 205.42C334.774 207.22 330.877 208.033 326.978 207.769C304.409 207.309 280.709 195.669 276.133 172.03C275.979 171.239 274.745 171.571 274.9 172.362C278.858 192.605 297.211 205.216 316.876 208.279C325.307 209.556 341.398 210.832 345.151 200.238C346.642 196.001 344.611 189.797 343.429 185.713C342.042 180.692 339.752 175.961 336.669 171.749C335.028 169.517 333.082 167.523 330.885 165.827C330.217 165.316 329.291 164.908 328.7 164.346C327.672 163.402 328.032 164.168 327.955 163.963C326.875 161.104 327.826 156.305 327.363 153.242C326.901 150.178 326.181 145.711 323.533 143.414C319.652 140.018 311.041 140.478 310.218 146.605C309.807 149.744 311.426 146.758 308.265 146.605C305.103 146.451 304.255 149.387 304.537 151.71C305.54 159.879 315.179 163.146 319.96 168.456C322.531 171.29 326.747 183.773 318.649 183.135C315.359 182.854 311.658 178.667 309.473 176.625C306.902 174.072 304.332 171.52 301.761 168.839C301.196 168.252 300.296 169.145 300.862 169.733L300.939 169.937Z" fill="#EF6898"/>
<path d="M308.034 43.575C303.818 40.7924 294.461 38.7758 290.04 41.788C288.703 42.707 290.04 44.8769 291.325 43.9579C295.027 41.4051 303.252 43.3963 306.748 45.7448C308.111 46.6383 309.319 44.4684 308.034 43.575Z" fill="#EF6898"/>
<path d="M321.58 107.419C321.921 107.419 322.248 107.285 322.489 107.046C322.73 106.806 322.865 106.482 322.865 106.143C322.865 105.805 322.73 105.48 322.489 105.24C322.248 105.001 321.921 104.867 321.58 104.867C321.239 104.867 320.912 105.001 320.671 105.24C320.43 105.48 320.295 105.805 320.295 106.143C320.295 106.482 320.43 106.806 320.671 107.046C320.912 107.285 321.239 107.419 321.58 107.419Z" fill="#EF6898"/>
<path d="M331.99 100.885C332.331 100.885 332.658 100.75 332.899 100.511C333.14 100.271 333.276 99.9467 333.276 99.6081C333.276 99.2696 333.14 98.945 332.899 98.7056C332.658 98.4662 332.331 98.3318 331.99 98.3318C331.649 98.3318 331.323 98.4662 331.082 98.7056C330.84 98.945 330.705 99.2696 330.705 99.6081C330.705 99.9467 330.84 100.271 331.082 100.511C331.323 100.75 331.649 100.885 331.99 100.885Z" fill="#EF6898"/>
<path d="M328.161 112.296C328.501 112.296 328.828 112.161 329.069 111.922C329.31 111.683 329.446 111.358 329.446 111.019C329.446 110.681 329.31 110.356 329.069 110.117C328.828 109.877 328.501 109.743 328.161 109.743C327.82 109.743 327.493 109.877 327.252 110.117C327.011 110.356 326.875 110.681 326.875 111.019C326.875 111.358 327.011 111.683 327.252 111.922C327.493 112.161 327.82 112.296 328.161 112.296Z" fill="#EF6898"/>
<path d="M243.334 130.241C243.675 130.241 244.002 130.107 244.243 129.867C244.484 129.628 244.619 129.303 244.619 128.965C244.619 128.626 244.484 128.302 244.243 128.062C244.002 127.823 243.675 127.688 243.334 127.688C242.993 127.688 242.666 127.823 242.425 128.062C242.184 128.302 242.049 128.626 242.049 128.965C242.049 129.303 242.184 129.628 242.425 129.867C242.666 130.107 242.993 130.241 243.334 130.241Z" fill="#EF6898"/>
<path d="M250.994 125.902C251.335 125.902 251.662 125.767 251.903 125.528C252.144 125.288 252.279 124.964 252.279 124.625C252.279 124.287 252.144 123.962 251.903 123.723C251.662 123.483 251.335 123.349 250.994 123.349C250.653 123.349 250.326 123.483 250.085 123.723C249.844 123.962 249.709 124.287 249.709 124.625C249.709 124.964 249.844 125.288 250.085 125.528C250.326 125.767 250.653 125.902 250.994 125.902Z" fill="#EF6898"/>
<path d="M250.994 135.143C251.335 135.143 251.662 135.008 251.903 134.769C252.144 134.53 252.279 134.205 252.279 133.866C252.279 133.528 252.144 133.203 251.903 132.964C251.662 132.725 251.335 132.59 250.994 132.59C250.653 132.59 250.326 132.725 250.085 132.964C249.844 133.203 249.709 133.528 249.709 133.866C249.709 134.205 249.844 134.53 250.085 134.769C250.326 135.008 250.653 135.143 250.994 135.143Z" fill="#EF6898"/>
<path d="M236.856 129.577C236.829 131.541 237.298 133.481 238.219 135.219C239.319 136.839 240.757 138.206 242.434 139.227C244.028 140.222 246.033 141.473 246.264 143.669C246.333 145.669 245.946 147.658 245.133 149.489C245.732 147.626 245.993 145.673 245.905 143.72C245.673 141.754 243.9 140.529 242.254 139.508C240.555 138.44 239.109 137.021 238.013 135.347C237.109 133.563 236.709 131.569 236.856 129.577Z" fill="#EF4380"/>
<path d="M320.115 168.252C321.556 168.426 323.018 168.213 324.347 167.633C325.677 167.054 326.825 166.13 327.672 164.959C328.109 164.27 327.004 163.631 326.567 164.321C325.853 165.234 324.917 165.953 323.847 166.408C322.777 166.864 321.607 167.042 320.449 166.925C319.652 166.797 319.318 167.997 320.115 168.15V168.252Z" fill="#EF6898"/>
<path d="M327.955 164.806C329.76 164.955 331.564 164.516 333.096 163.555C333.224 163.462 333.314 163.325 333.346 163.171C333.379 163.016 333.353 162.855 333.273 162.718C333.193 162.582 333.065 162.479 332.914 162.431C332.762 162.383 332.598 162.392 332.453 162.457C331.2 163.259 329.726 163.652 328.237 163.581C327.44 163.581 327.081 164.678 327.903 164.806H327.955Z" fill="#EF6898"/>
</svg>
