<svg width="98" height="89" viewBox="0 0 98 89" fill="none" xmlns="http://www.w3.org/2000/svg">
<path d="M45.8188 86.8409L45.8294 86.8518L45.8406 86.862C46.7511 87.6874 47.8104 88.1115 49 88.1115C50.1896 88.1115 51.2489 87.6874 52.1594 86.862L52.1706 86.8518L52.1812 86.8409L85.1784 53.0578C85.1789 53.0573 85.1794 53.0568 85.1799 53.0563C87.6753 50.5423 89.8736 47.777 91.7747 44.7611C95.5779 38.8518 97.5 33.0355 97.5 27.3195C97.5 19.0135 95.178 12.4658 90.4765 7.745C85.8909 2.89734 79.5128 0.500061 71.4118 0.500061C67.1713 0.500061 62.7257 2.03773 58.0838 5.05858C54.9945 6.99545 51.9668 9.45153 49 12.4227C46.0332 9.45153 43.0055 6.99545 39.9162 5.05858C35.2743 2.03773 30.8287 0.500061 26.5882 0.500061C18.4841 0.500061 12.0492 2.89897 7.34716 7.74494C2.76258 12.4667 0.5 19.0142 0.5 27.3195C0.5 33.1648 2.54303 39.1697 6.58193 45.3267C8.71022 48.5784 10.791 51.1614 12.8268 53.0632L45.8188 86.8409Z" fill="#EF6898" stroke="black"/>
<path fill-rule="evenodd" clip-rule="evenodd" d="M63.317 2.79205C66.1094 1.59747 68.8077 1.00018 71.4118 1.00018C79.4118 1.00018 85.6471 3.36458 90.1177 8.09336C94.7059 12.6977 97.0001 19.1065 97.0001 27.3196C97.0001 32.9195 95.1177 38.6438 91.353 44.4926C89.4706 47.4792 87.2942 50.2169 84.8236 52.7057L51.8236 86.4917C51 87.2383 50.0589 87.6116 49 87.6116C47.9412 87.6116 47 87.2383 46.1765 86.4917L13.1765 52.7057C11.1765 50.8391 9.11769 48.288 7.00005 45.0526C5.34297 42.5265 4.02913 40.0325 3.05853 37.5705C3.90879 39.5822 5.00038 41.6168 6.33329 43.6742C8.28208 46.689 10.1767 49.0661 12.0173 50.8054L42.3859 82.2872C43.1437 82.9829 44.0099 83.3308 44.9843 83.3308C45.9587 83.3308 46.8248 82.9829 47.5827 82.2872L77.9513 50.8054C80.2249 48.4863 82.2278 45.9353 83.9601 43.1524C87.4246 37.7025 89.1568 32.3686 89.1568 27.1506C89.1568 19.4976 87.0456 13.5259 82.8233 9.23559C78.7091 4.8293 72.971 2.62616 65.609 2.62616C64.8536 2.62616 64.0896 2.68146 63.317 2.79205ZM47.4119 11.5733C44.8639 9.15879 42.2757 7.12771 39.6471 5.48009C35.0589 2.49348 30.7059 1.00018 26.5883 1.00018C18.5883 1.00018 12.2942 3.36458 7.70593 8.09336C6.24631 9.59665 5.02497 11.2923 4.04191 13.1803C4.86495 11.7368 5.84528 10.4219 6.98289 9.23559C11.2053 4.8293 16.9975 2.62616 24.3596 2.62616C28.1489 2.62616 32.1547 4.01762 36.3771 6.80054C39.3003 8.65581 42.1694 11.0329 44.9843 13.9318C45.7891 13.103 46.5983 12.3168 47.4119 11.5733Z" fill="#EE4380"/>
<path fill-rule="evenodd" clip-rule="evenodd" d="M7.17649 8.65871C6.27972 12.5859 5.83133 16.99 5.83133 21.871C5.83133 29.521 7.86009 37.4204 11.9176 45.5693C14.0657 49.8932 16.1541 53.3024 18.1829 55.797L24.4427 64.2404L13.1765 52.7058C11.1765 50.8392 9.11765 48.2882 7 45.0527C3 38.955 1 33.044 1 27.3197C1 19.4374 3.05883 13.2171 7.17649 8.65871Z" fill="white"/>
</svg>
