<svg width="78" height="67" viewBox="0 0 78 67" fill="none" xmlns="http://www.w3.org/2000/svg">
<path d="M41.5761 65.5182L41.5653 65.5288L41.5538 65.5386C40.8138 66.1748 39.954 66.5 38.993 66.5C38.032 66.5 37.1721 66.1748 36.4321 65.5386L36.4207 65.5288L36.4098 65.5182L10.2979 40.1706C8.67809 38.7355 7.02544 36.7894 5.33764 34.3444C2.1309 29.7093 0.5 25.1759 0.5 20.7522C0.5 14.489 2.301 9.53724 5.95839 5.96567L41.5761 65.5182ZM41.5761 65.5182L67.6934 40.1654C67.6937 40.1651 67.6941 40.1647 67.6945 40.1643C69.6756 38.272 71.4213 36.19 72.9312 33.9189C75.9516 29.4691 77.4859 25.0776 77.4859 20.7522C77.4859 14.4877 75.6375 9.53595 71.8878 5.96552C68.2326 2.30252 63.1577 0.5 56.7323 0.5C53.3569 0.5 49.8224 1.6605 46.1369 3.9344M41.5761 65.5182L46.1369 3.9344M46.1369 3.9344C43.7069 5.37899 41.3258 7.20677 38.993 9.41414M46.1369 3.9344L38.993 9.41414M38.993 9.41414C36.6601 7.20677 34.279 5.37899 31.849 3.9344C28.1636 1.6605 24.629 0.5 21.2536 0.5C14.8249 0.5 9.70537 2.30421 5.95851 5.96555L38.993 9.41414ZM46.396 4.36207C43.8818 5.85632 41.4141 7.77083 38.993 10.1056" fill="#EF6898" stroke="black"/>
<path fill-rule="evenodd" clip-rule="evenodd" d="M50.3249 2.34483C52.5352 1.44828 54.671 1 56.7323 1C63.0645 1 67.9998 2.77443 71.5384 6.32328C75.1701 9.77874 76.9859 14.5884 76.9859 20.7522C76.9859 24.9547 75.496 29.2507 72.5162 33.6401C71.0262 35.8815 69.3035 37.9361 67.348 39.8039L41.2278 65.1595C40.576 65.7198 39.831 66 38.993 66C38.1549 66 37.4099 65.7198 36.7581 65.1595L10.6379 39.8039C9.05488 38.403 7.42528 36.4885 5.74912 34.0603C4.43717 32.1641 3.39704 30.2919 2.62873 28.4438C3.30183 29.954 4.16606 31.4814 5.22144 33.026C6.76394 35.2885 8.2636 37.0725 9.72041 38.3778L33.7578 62.0042C34.3576 62.5263 35.0432 62.7873 35.8145 62.7873C36.5857 62.7873 37.2713 62.5263 37.8711 62.0042L61.9085 38.3778C63.7081 36.6374 65.2934 34.7229 66.6646 32.6344C69.4068 28.5443 70.7779 24.5413 70.7779 20.6254C70.7779 14.8819 69.1069 10.4003 65.7648 7.18054C62.5084 3.87371 57.9665 2.2203 52.1393 2.2203C51.5413 2.2203 50.9365 2.26182 50.3249 2.34483ZM37.736 8.93497C35.7192 7.12289 33.6705 5.59859 31.5899 4.36207C27.9582 2.12069 24.5128 1 21.2536 1C14.9214 1 9.93952 2.77443 6.30784 6.32328C5.15205 7.45192 4.18501 8.72504 3.40674 10.1426C4.0584 9.05869 4.83469 8.07132 5.7356 7.18054C9.0777 3.87371 13.6624 2.2203 19.4896 2.2203C22.4889 2.2203 25.6596 3.26456 29.0017 5.35308C31.3155 6.74543 33.5864 8.52937 35.8145 10.7049C36.4515 10.0829 37.092 9.49294 37.736 8.93497Z" fill="#EE4380"/>
<path fill-rule="evenodd" clip-rule="evenodd" d="M5.88887 6.74739C5.17904 9.69472 4.82413 12.9999 4.82413 16.663C4.82413 22.4042 6.42993 28.3325 9.64153 34.4481C11.3418 37.6931 12.9948 40.2516 14.6006 42.1237L19.5554 48.4603L10.6379 39.8039C9.05488 38.403 7.42528 36.4885 5.74912 34.0603C2.58304 29.4842 1 25.0481 1 20.7521C1 14.8366 2.62962 10.1684 5.88887 6.74739Z" fill="white"/>
</svg>
