<svg width="205" height="268" viewBox="0 0 205 268" fill="none" xmlns="http://www.w3.org/2000/svg">
<path d="M90.0895 104.6C86.602 103.808 83.273 102.7 80.1026 101.592C78.2003 100.958 73.9202 98.2667 69.006 95.4167H62.3481C62.3481 95.4167 65.8356 97.3167 67.5793 98.2667C69.3231 99.2166 75.8225 102.542 77.5662 103.175C79.31 103.808 88.8213 106.341 93.4185 106.658C98.0156 106.975 93.4185 106.658 93.4185 106.658L90.0895 104.6Z" fill="white" stroke="#EF4380" stroke-width="0.5" stroke-miterlimit="10"/>
<path d="M94.5281 266.57C146.182 266.57 188.056 258.063 188.056 247.57C188.056 237.077 146.182 228.571 94.5281 228.571C42.874 228.571 1 237.077 1 247.57C1 258.063 42.874 266.57 94.5281 266.57Z" fill="#EF4380" stroke="#FBB3CD" stroke-miterlimit="10"/>
<path d="M87.3947 48.0767C87.3947 44.7518 88.3458 43.1686 89.2969 40.952C91.3577 36.0438 98.1742 33.1939 104.198 34.3022C106.1 34.6188 107.21 34.7771 107.21 34.7771C107.527 34.3022 106.734 32.0856 108.637 31.1356C112.917 29.0773 114.502 32.0856 116.88 31.1356C129.403 25.9108 138.439 34.7771 139.39 35.4105C140.341 36.0438 140.975 37.1521 142.085 36.8354C144.146 36.2021 146.206 36.2021 148.426 36.2021C151.913 36.3604 155.401 36.5188 158.73 37.6271C162.059 38.7354 165.071 41.1103 165.863 44.1185C166.339 45.7018 166.339 47.6018 167.765 48.5517C168.717 49.185 169.985 49.185 171.094 49.3434C177.594 50.135 182.508 55.6765 184.252 61.218C185.996 66.9178 185.361 72.776 185.044 78.4758C185.044 80.0591 184.886 81.6424 185.52 83.0673C185.996 84.1756 186.63 85.1256 187.264 86.0756C189.483 89.8755 189.959 94.3086 188.532 98.1085C192.019 99.5335 194.397 105.075 195.982 108.4C199.628 116.158 195.348 123.758 190.434 129.141C189.8 129.933 189.166 130.883 189.483 131.832C189.8 132.782 190.751 133.574 191.544 134.207C195.348 137.849 194.714 144.34 190.117 147.032C188.849 147.824 187.105 148.299 186.313 149.565C184.727 152.099 193.288 157.798 189.166 163.023C187.422 165.24 176.326 173.948 180.289 179.173C181.24 180.439 183.618 183.131 184.252 185.189C185.52 189.464 184.093 191.206 182.508 192.947C180.923 194.689 178.703 196.114 177.594 198.172C176.484 200.23 176.801 203.239 179.338 204.347C177.752 204.822 175.692 203.397 175.692 201.972C175.85 204.03 173.948 206.089 171.57 206.247C172.521 202.764 173.631 199.28 172.997 195.639C172.521 192.947 168.241 186.456 165.863 184.873" fill="#EF6898"/>
<path d="M193.288 125.183C193.922 126.608 194.714 128.191 196.141 128.824C196.775 129.141 197.726 129.299 198.36 128.983C199.153 128.666 199.787 128.191 200.263 127.716C200.738 127.083 201.214 126.449 201.055 125.658C200.738 124.866 199.945 124.549 199.153 124.708C198.36 124.708 197.726 125.341 197.251 125.816C196.775 126.449 196.299 127.083 195.824 127.716C195.507 128.349 195.19 129.141 195.348 129.933C195.507 130.724 195.824 131.358 196.458 131.833C197.092 132.308 197.885 132.624 198.36 133.416C198.836 134.049 198.994 134.841 198.994 135.791C198.836 136.582 198.519 137.374 198.36 138.166C198.202 138.957 198.043 139.749 197.885 140.541C197.726 142.124 197.726 143.707 198.202 145.29C197.726 143.707 197.568 142.124 197.726 140.541C197.885 138.957 198.36 137.374 198.677 135.791C198.677 134.999 198.519 134.207 198.043 133.574C197.568 132.941 196.934 132.624 196.141 132.149C195.507 131.674 195.031 130.883 194.873 130.091C194.714 129.299 195.031 128.508 195.348 127.716C195.665 126.924 196.141 126.291 196.775 125.816C197.251 125.183 198.043 124.708 198.836 124.549C199.628 124.549 200.58 124.866 200.897 125.658C201.214 126.449 200.58 127.399 200.104 127.874C199.628 128.508 198.836 128.983 198.043 129.299C197.251 129.616 196.458 129.458 195.665 129.141C194.556 128.191 193.763 126.608 193.288 125.183Z" fill="#EF4380"/>
<path d="M181.557 168.089C183.142 168.406 184.886 168.564 186.63 168.247C188.215 167.931 189.8 166.822 190.434 165.239C191.227 163.814 191.227 161.914 190.751 160.331C190.276 158.748 189.642 157.164 188.532 155.739C189.642 157.006 190.434 158.589 190.91 160.331C191.385 161.914 191.385 163.814 190.593 165.397C189.8 166.981 188.215 168.089 186.63 168.406C184.886 168.722 183.142 168.406 181.557 168.089Z" fill="#EF4380"/>
<path d="M175.375 164.29C174.423 165.715 173.314 167.14 173.155 168.723C173.155 169.198 173.314 169.515 173.472 169.831C173.631 170.148 174.106 170.306 174.423 170.465C175.216 170.623 176.009 170.623 176.96 170.623C177.752 170.623 178.704 170.465 179.496 170.465C179.972 170.465 180.289 170.465 180.764 170.465C181.24 170.465 181.715 170.465 182.032 170.94C182.667 171.731 182.35 172.681 181.874 173.473C181.398 174.265 180.923 174.898 180.447 175.531C179.496 176.956 178.545 178.381 178.069 179.964C177.911 180.756 177.911 181.706 178.228 182.339C178.545 183.131 179.338 183.606 179.972 184.081C181.398 184.873 183.142 185.189 184.886 185.506C186.63 185.664 188.373 185.664 189.959 185.189C188.373 185.664 186.63 185.664 184.886 185.664C183.142 185.506 181.557 185.189 179.972 184.398C179.179 183.923 178.545 183.448 178.069 182.656C177.594 181.864 177.594 180.914 177.911 180.123C178.386 178.381 179.179 176.956 180.289 175.531C180.764 174.898 181.398 174.106 181.715 173.473C182.032 172.84 182.35 171.89 181.874 171.256C181.715 170.94 181.24 170.94 180.764 170.781C180.289 170.781 179.972 170.781 179.496 170.781C178.704 170.781 177.752 170.94 176.96 170.94C176.167 170.94 175.216 170.94 174.423 170.781C173.948 170.623 173.631 170.465 173.314 169.99C172.997 169.673 172.997 169.198 172.997 168.723C173.155 166.981 174.265 165.715 175.375 164.29Z" fill="#EF4380"/>
<path d="M171.887 198.805C172.68 198.963 173.631 199.121 173.948 199.913C174.265 200.705 174.106 201.655 173.631 202.288C172.838 203.713 171.411 204.821 170.302 205.93C169.668 206.563 169.192 207.038 168.875 207.829C168.558 208.621 168.717 209.413 169.509 209.888C170.143 210.363 170.936 210.521 171.887 210.521C172.68 210.679 173.472 210.679 174.423 210.521C172.838 210.679 171.094 210.679 169.509 209.888C169.192 209.729 168.875 209.254 168.717 208.938C168.558 208.463 168.717 207.988 168.875 207.671C169.192 206.879 169.826 206.246 170.302 205.613C171.411 204.505 172.838 203.396 173.631 201.971C174.106 201.338 174.265 200.388 173.948 199.755C173.472 199.28 172.68 198.963 171.887 198.805Z" fill="#EF4380"/>
<path d="M163.01 78.4762C163.168 77.0512 163.01 75.6262 162.693 74.2013C162.376 72.7763 162.059 71.5097 161.425 70.2431C160.79 68.9765 160.156 67.7098 159.205 66.6015C158.254 65.6516 156.986 64.8599 156.035 63.7516C154.925 62.8016 154.291 61.3767 154.133 59.9517C153.974 58.5268 153.974 57.1018 154.133 55.6769C154.45 52.827 155.401 50.1354 156.669 47.6021C155.401 50.1354 154.608 52.827 154.291 55.6769C154.132 57.1018 153.974 58.5268 154.291 59.9517C154.45 61.3767 155.242 62.6433 156.193 63.5933C157.144 64.5433 158.413 65.3349 159.364 66.4432C160.315 67.5515 160.949 68.8181 161.583 70.0847C162.534 72.7763 163.327 75.6262 163.01 78.4762Z" fill="#EF4380"/>
<path d="M104.674 210.68C107.844 218.913 111.649 237.437 111.807 244.562L143.511 245.354C146.84 236.646 153.181 213.213 154.291 200.863" fill="white"/>
<path d="M104.674 210.68C107.844 218.913 111.649 237.437 111.807 244.562L143.511 245.354C146.84 236.646 153.181 213.213 154.291 200.863" stroke="#EF6898" stroke-width="0.5" stroke-miterlimit="10"/>
<path d="M134.476 73.4097C132.89 71.9847 130.671 71.0348 128.769 70.2431C126.55 69.2932 123.855 68.3432 121.477 68.8182C120.526 68.9765 120.843 70.5598 121.952 70.4015C124.172 69.9265 126.867 71.1931 128.769 71.9847C130.354 72.6181 132.256 73.4097 133.525 74.6763C134.159 75.3096 135.268 74.043 134.476 73.4097Z" fill="#EF6898"/>
<path d="M185.361 69.4519C186.154 69.4519 187.105 69.6102 187.898 69.2935C188.69 69.1352 189.483 68.5019 189.324 67.5519C189.324 67.0769 189.007 66.7603 188.69 66.602C188.373 66.4436 187.898 66.4436 187.581 66.602C186.788 66.9186 186.313 67.7103 186.154 68.5019C185.995 69.2935 185.995 70.2435 186.154 71.0352C186.471 71.8268 186.947 72.4601 187.739 72.9351C189.166 73.8851 190.91 74.3601 192.653 74.2017C190.91 74.3601 189.166 73.8851 187.739 72.9351C186.947 72.4601 186.313 71.8268 186.154 70.8768C185.837 70.0852 185.837 69.1352 186.154 68.1852C186.313 67.3936 186.788 66.4436 187.739 66.127C188.215 65.9686 188.69 65.8103 189.007 66.127C189.483 66.2853 189.642 66.7603 189.642 67.2353C189.8 68.1852 188.849 68.9769 188.056 69.1352C187.105 69.6102 186.154 69.6102 185.361 69.4519Z" fill="#EF4380"/>
<path d="M189.8 91.6173C189.642 89.8757 189.166 88.1341 188.373 86.5508C187.581 84.9675 186.471 83.5426 185.203 82.2759C186.63 83.3842 187.739 84.8092 188.532 86.3925C189.325 88.1341 189.959 89.8757 189.8 91.6173Z" fill="#EF4380"/>
<path d="M191.385 99.6919C193.129 98.9002 194.873 97.7919 196.141 96.367C196.458 96.0503 196.616 95.5753 196.616 95.1003C196.616 94.6254 196.299 94.3087 195.824 94.1504C195.031 93.8337 193.763 94.6254 194.239 95.5753C194.556 96.5253 195.348 97.1586 196.299 97.4753C197.251 97.9502 198.202 97.9503 199.153 98.1086C200.104 98.1086 201.055 98.1086 202.006 97.7919C202.957 97.4753 203.909 97.3169 204.543 96.5253C204.067 97.3169 202.957 97.6336 202.006 97.9503C201.055 98.2669 200.104 98.2669 199.153 98.2669C198.202 98.2669 197.251 98.1086 196.299 97.7919C195.348 97.3169 194.556 96.842 194.08 95.7337C193.922 95.2587 194.08 94.6254 194.556 94.3087C195.031 93.992 195.507 93.8337 195.982 93.992C196.458 94.1504 196.934 94.6254 196.934 95.1003C196.934 95.5753 196.775 96.2086 196.458 96.5253C195.031 97.9503 193.288 98.9002 191.385 99.6919Z" fill="#EF4380"/>
<path d="M176.484 99.2166C177.752 101.592 178.228 104.441 177.752 107.291C177.277 109.983 175.85 112.516 173.948 114.574C172.046 116.633 169.985 118.374 168.241 120.433C167.29 121.383 166.497 122.491 165.863 123.758C165.229 124.866 164.595 126.291 165.071 127.716C164.595 126.449 165.071 124.866 165.705 123.758C166.339 122.491 167.131 121.383 168.082 120.433C169.826 118.374 172.046 116.474 173.789 114.416C175.692 112.358 177.118 109.983 177.594 107.291C178.228 104.6 177.752 101.75 176.484 99.2166Z" fill="#EF4380"/>
<path d="M181.557 65.1757C182.825 63.7507 183.618 61.8508 183.935 59.9508C184.252 58.0509 184.093 55.9926 183.142 54.4093C182.191 52.826 180.447 51.7177 178.704 51.0844C176.96 50.4511 175.057 50.1345 172.997 49.9761C174.899 49.9761 176.801 50.2928 178.704 50.9261C180.447 51.5594 182.35 52.6677 183.301 54.4093C184.252 56.1509 184.41 58.2092 184.093 60.1092C183.776 61.8508 182.984 63.7507 181.557 65.1757Z" fill="#EF4380"/>
<path d="M167.607 48.8681C170.619 47.6015 173.631 46.3349 176.801 45.5433C178.386 45.2266 180.13 45.0683 181.715 45.2266C182.508 45.3849 183.301 45.3849 184.093 45.7016C184.41 45.8599 184.886 46.1766 184.886 46.6516C184.886 47.1265 184.569 47.4432 184.093 47.4432C184.569 47.4432 184.886 46.9682 184.727 46.6516C184.727 46.1766 184.41 46.0182 183.935 45.8599C183.142 45.5433 182.349 45.5433 181.557 45.3849C179.972 45.2266 178.228 45.3849 176.643 45.8599C173.789 46.3349 170.777 47.6015 167.607 48.8681Z" fill="#EF4380"/>
<path d="M168.875 49.8177C169.509 51.876 170.46 53.776 170.936 55.8342C171.411 57.8925 171.57 60.1091 170.619 62.009C169.509 63.909 167.607 65.0173 166.022 66.2839C165.229 66.9172 164.436 67.7089 163.802 68.5005C163.168 69.2921 162.851 70.4004 163.01 71.5087C162.851 70.4004 163.168 69.4505 163.644 68.5005C164.278 67.5505 164.912 66.9172 165.863 66.1256C167.448 64.859 169.351 63.7507 170.302 61.8507C171.253 59.9508 171.094 57.7342 170.619 55.8342C170.143 53.776 169.351 51.876 168.875 49.8177Z" fill="#EF4380"/>
<path d="M91.3577 67.2347C91.9918 66.918 92.6258 66.7597 93.2599 66.443C93.894 66.1264 94.3696 65.4931 94.5281 64.8597C94.6866 63.4348 93.894 62.1682 93.4185 60.7432C93.2599 60.1099 93.1014 59.3183 93.2599 58.5266C93.4185 57.735 93.894 57.26 94.5281 56.6267C95.6378 55.6767 97.0645 55.0434 98.4912 54.8851C101.345 54.5684 104.356 55.2017 106.893 53.9351C108.161 53.3018 109.112 52.1935 109.746 50.9268C110.38 49.6602 110.38 48.0769 110.38 46.652C110.539 48.0769 110.38 49.5019 109.905 50.9268C109.271 52.1935 108.32 53.3018 107.051 54.0934C104.356 55.5184 101.345 54.8851 98.4912 55.0434C97.0645 55.2017 95.7963 55.835 94.6866 56.6267C94.2111 57.1017 93.7355 57.735 93.577 58.3683C93.4185 59.0016 93.4185 59.7932 93.577 60.4266C93.894 61.8515 94.8452 63.1181 94.5281 64.5431C94.3696 65.3347 93.7355 65.8097 93.1014 66.1264C92.7844 66.7597 91.9918 66.918 91.3577 67.2347Z" fill="#EF4380"/>
<path d="M156.035 74.3588C157.303 75.9421 158.254 77.8421 158.888 79.742C159.522 81.8003 159.681 83.8585 159.522 85.9168C159.364 87.9751 158.73 90.0333 157.62 91.775C156.669 93.6749 155.084 95.0999 154.133 96.8415C153.657 97.7914 153.34 98.7414 153.34 99.6914C153.34 100.641 153.657 101.75 154.291 102.541C154.925 103.333 155.718 104.125 156.352 104.916C156.986 105.708 157.462 106.658 157.937 107.608C159.839 111.249 160.315 115.683 158.73 119.641C160.156 115.683 159.681 111.249 157.779 107.608C157.303 106.658 156.669 105.866 156.193 105.075C155.559 104.283 154.767 103.491 154.133 102.7C153.498 101.908 153.023 100.8 153.023 99.8497C153.023 98.7414 153.34 97.7914 153.815 96.8415C154.767 94.9415 156.352 93.5166 157.303 91.775C158.413 90.0333 158.888 87.9751 159.205 85.9168C159.839 81.9586 158.571 77.6837 156.035 74.3588Z" fill="#EF4380"/>
<path d="M155.242 126.766C154.925 128.191 155.401 129.457 156.193 130.566C156.986 131.674 157.937 132.624 159.047 133.416C160.156 134.207 161.583 134.207 162.851 134.84C164.119 135.315 165.388 136.107 166.339 137.215C167.29 138.165 168.082 139.59 168.082 140.857C168.241 142.282 168.082 143.707 167.607 144.974C166.814 147.665 164.912 149.882 162.534 151.148C164.912 149.723 166.656 147.507 167.448 144.974C168.241 142.44 168.082 139.274 166.18 137.374C165.229 136.424 164.119 135.632 162.851 135.157C161.583 134.524 160.156 134.366 159.047 133.732C157.937 132.941 156.827 131.991 156.193 130.882C155.401 129.457 154.767 128.032 155.242 126.766Z" fill="#EF4380"/>
<path d="M171.728 57.8932C175.85 60.7431 179.338 65.8096 177.118 69.9262C175.85 72.3011 173.314 73.726 170.936 75.3093C165.705 79.1092 160.473 84.0174 159.681 90.0339C159.522 91.4588 161.583 99.2169 169.668 98.9003C172.68 98.7419 175.85 98.5836 178.862 99.2169C182.349 100.009 185.52 102.225 186.947 105.233C188.373 108.083 188.849 112.2 186.471 114.258C180.289 119.8 177.435 127.399 178.386 129.141C180.447 132.783 185.203 133.574 185.361 138.641C185.361 141.491 182.984 143.707 181.24 145.924C179.338 148.14 177.911 150.674 176.96 153.365C176.643 154.315 176.326 155.424 176.643 156.373C176.96 157.323 178.069 158.273 179.179 157.957" stroke="#EF4380" stroke-width="0.15" stroke-miterlimit="10" stroke-linecap="round"/>
<path d="M152.706 103.808C152.706 104.917 152.706 106.025 152.072 106.975C151.596 107.925 150.645 108.558 149.694 109.191C148.743 109.825 147.792 110.458 147.633 111.566C147.474 112.675 147.792 113.625 148.109 114.733C147.633 113.783 147.474 112.675 147.474 111.566C147.633 110.3 148.743 109.666 149.535 109.191C150.328 108.558 151.279 107.925 151.913 106.975C152.547 106.025 152.706 104.917 152.706 103.808Z" fill="#EF4380"/>
<path d="M121.635 208.622C127.184 217.33 128.927 229.522 126.55 239.496C126.391 239.971 127.184 240.13 127.342 239.655C129.879 229.522 128.135 217.014 122.428 208.147C122.111 207.831 121.318 208.147 121.635 208.622Z" fill="#EF6898"/>
<path d="M97.3815 250.578C97.3815 250.578 96.2719 253.27 96.7474 254.536C97.5401 256.12 99.7594 256.753 100.869 257.07C107.527 258.97 112.124 257.545 118.941 257.07C120.367 256.911 121.794 256.911 122.904 255.961C123.855 255.17 124.806 254.061 124.647 252.795" fill="#EF6898"/>
<path d="M97.3815 250.578C97.3815 250.578 96.2719 253.27 96.7474 254.536C97.5401 256.12 99.7594 256.753 100.869 257.07C107.527 258.97 112.124 257.545 118.941 257.07C120.367 256.911 121.794 256.911 122.904 255.961C123.855 255.17 124.806 254.061 124.647 252.795" stroke="white" stroke-width="0.5" stroke-miterlimit="10"/>
<path d="M114.978 239.654C115.77 240.287 116.246 241.079 116.88 241.87C117.831 242.82 118.941 243.612 120.209 244.245C120.843 244.562 121.477 244.72 122.111 244.404C122.587 244.087 122.904 243.612 123.221 243.295C123.538 242.979 124.172 242.662 124.647 242.979C124.964 243.295 124.964 243.77 124.964 244.087C124.964 247.095 125.281 250.104 124.806 252.953C124.013 252.478 123.221 252.32 122.27 252.32C121.318 252.32 120.526 252.637 119.575 252.953C117.197 253.587 114.819 253.903 112.283 253.903C108.32 254.062 104.039 254.22 100.711 251.845C99.9179 251.212 97.223 250.42 97.223 250.42C97.5401 248.679 98.8082 245.512 100.552 243.295C101.979 241.712 108.954 235.221 114.978 239.654Z" fill="#EF6898" stroke="white" stroke-width="0.5" stroke-miterlimit="10"/>
<path d="M104.832 245.037C105.625 245.671 106.259 246.779 105.783 247.57C104.674 246.145 102.137 244.721 102.137 244.721C102.137 244.721 104.039 244.562 104.832 245.037Z" fill="#EF6898" stroke="white" stroke-width="0.5" stroke-miterlimit="10"/>
<path d="M107.685 243.295C108.795 244.562 108.478 245.354 108.478 245.354C106.576 244.087 104.198 242.662 104.198 242.662C104.198 242.662 106.1 241.712 107.685 243.295Z" fill="#EF6898" stroke="white" stroke-width="0.5" stroke-miterlimit="10"/>
<path d="M110.222 240.603C111.173 241.395 110.856 242.661 110.856 242.661C110.856 242.661 108.161 240.286 106.417 239.811C106.417 239.811 108.954 239.653 110.222 240.603Z" fill="#EF6898" stroke="white" stroke-width="0.5" stroke-miterlimit="10"/>
<path d="M118.465 250.578C118.465 250.578 117.355 253.27 117.831 254.536C118.623 256.12 120.843 256.753 121.952 257.07C128.61 258.97 133.208 257.545 140.024 257.07C141.451 256.911 142.877 256.911 143.987 255.961C144.938 255.17 145.889 254.061 145.731 252.795" fill="#EF6898"/>
<path d="M118.465 250.578C118.465 250.578 117.355 253.27 117.831 254.536C118.623 256.12 120.843 256.753 121.952 257.07C128.61 258.97 133.208 257.545 140.024 257.07C141.451 256.911 142.877 256.911 143.987 255.961C144.938 255.17 145.889 254.061 145.731 252.795" stroke="white" stroke-width="0.5" stroke-miterlimit="10"/>
<path d="M135.902 239.654C136.695 240.287 137.171 241.079 137.805 241.87C138.756 242.82 139.865 243.612 141.134 244.245C141.768 244.562 142.402 244.72 143.036 244.404C143.511 244.087 143.828 243.612 144.146 243.295C144.463 242.979 145.097 242.662 145.572 242.979C145.889 243.295 145.889 243.77 145.889 244.087C145.889 247.095 146.206 250.104 145.731 252.953C144.938 252.478 144.146 252.32 143.194 252.32C142.243 252.32 141.451 252.637 140.5 252.953C138.122 253.587 135.744 253.903 133.208 253.903C129.244 254.062 124.964 254.22 121.635 251.845C120.843 251.212 118.148 250.42 118.148 250.42C118.465 248.679 119.733 245.512 121.477 243.295C123.062 241.712 129.879 235.221 135.902 239.654Z" fill="#EF6898" stroke="white" stroke-width="0.5" stroke-miterlimit="10"/>
<path d="M125.915 245.037C126.708 245.671 127.342 246.779 126.867 247.57C125.757 246.145 123.221 244.721 123.221 244.721C123.221 244.721 125.123 244.562 125.915 245.037Z" fill="#EF6898" stroke="white" stroke-width="0.5" stroke-miterlimit="10"/>
<path d="M128.769 243.295C129.879 244.562 129.562 245.354 129.562 245.354C127.659 244.087 125.281 242.662 125.281 242.662C125.281 242.662 127.184 241.712 128.769 243.295Z" fill="#EF6898" stroke="white" stroke-width="0.5" stroke-miterlimit="10"/>
<path d="M131.147 240.603C132.098 241.395 131.781 242.661 131.781 242.661C131.781 242.661 129.086 240.286 127.342 239.811C127.501 239.811 129.879 239.653 131.147 240.603Z" fill="#EF6898" stroke="white" stroke-width="0.5" stroke-miterlimit="10"/>
<path d="M83.4315 169.989C81.5293 176.956 75.1884 208.463 73.4446 215.43L57.9095 223.663L54.1049 207.038L49.8248 188.197" fill="white"/>
<path d="M83.4315 169.989C81.5293 176.956 75.1884 208.463 73.4446 215.43L57.9095 223.663L54.1049 207.038L49.8248 188.197" stroke="#EF4380" stroke-width="0.5" stroke-miterlimit="10"/>
<path d="M85.3339 228.572C85.3339 228.572 86.6021 231.421 85.968 232.688C85.0169 234.271 82.7975 235.063 81.5294 235.38C74.3959 237.438 69.4817 236.013 62.0311 235.38C60.6044 235.221 59.0192 235.063 57.751 234.271C56.6414 233.48 55.8488 232.213 55.8488 230.947" fill="#EF4380"/>
<path d="M85.3339 228.572C85.3339 228.572 86.6021 231.421 85.968 232.688C85.0169 234.271 82.7975 235.063 81.5294 235.38C74.3959 237.438 69.4817 236.013 62.0311 235.38C60.6044 235.221 59.0192 235.063 57.751 234.271C56.6414 233.48 55.8488 232.213 55.8488 230.947" stroke="white" stroke-width="0.5" stroke-miterlimit="10"/>
<path d="M66.4709 216.855C65.6783 217.489 65.0442 218.439 64.4101 219.23C63.459 220.338 62.1908 221.13 60.9226 221.763C60.2885 222.08 59.4959 222.238 58.8618 221.922C58.3863 221.605 58.0692 221.13 57.7522 220.655C57.4351 220.18 56.801 219.863 56.3255 220.338C56.0084 220.655 56.0084 221.13 56.0084 221.605C56.0084 224.772 55.6914 228.097 56.167 231.105C56.9596 230.63 57.9107 230.313 58.8618 230.313C59.813 230.313 60.7641 230.788 61.7152 230.946C64.2516 231.738 66.7879 231.896 69.4828 232.055C73.7629 232.213 78.3601 232.371 81.8476 229.997C82.7987 229.363 85.4936 228.413 85.4936 228.413C85.1765 226.672 83.7498 223.188 81.8476 220.813C80.4209 219.072 72.9703 212.105 66.4709 216.855Z" fill="#EF4380" stroke="white" stroke-width="0.5" stroke-miterlimit="10"/>
<path d="M77.2492 222.714C76.298 223.347 75.6639 224.456 76.1395 225.406C77.2492 223.822 80.1026 222.397 80.1026 222.397C80.1026 222.397 78.2003 222.081 77.2492 222.714Z" fill="#EF6898" stroke="white" stroke-width="0.5" stroke-miterlimit="10"/>
<path d="M74.2373 220.814C72.9691 222.08 73.4447 223.03 73.4447 223.03C75.5055 221.764 78.0419 220.022 78.0419 220.022C78.0419 220.022 75.9811 219.072 74.2373 220.814Z" fill="#EF6898" stroke="white" stroke-width="0.5" stroke-miterlimit="10"/>
<path d="M71.5425 217.806C70.4328 218.598 70.9084 220.023 70.9084 220.023C70.9084 220.023 73.7618 217.489 75.5055 217.014C75.664 217.014 72.9692 216.856 71.5425 217.806Z" fill="#EF6898" stroke="white" stroke-width="0.5" stroke-miterlimit="10"/>
<path d="M21.1323 179.964C23.1931 186.455 24.4613 194.53 24.1442 200.546C23.3516 219.863 33.18 240.92 33.18 240.92L47.7641 234.429L57.751 190.73" fill="white"/>
<path d="M21.1323 179.964C23.1931 186.455 24.4613 194.53 24.1442 200.546C23.3516 219.863 33.18 240.92 33.18 240.92L47.7641 234.429L57.751 190.73" stroke="#EF4380" stroke-width="0.5" stroke-miterlimit="10"/>
<path d="M59.9703 246.304C59.9703 246.304 61.2385 249.154 60.6044 250.42C59.6533 252.004 57.434 252.795 56.1658 253.112C49.0323 255.17 44.1181 253.745 36.6675 253.112C35.2408 252.954 33.6556 252.795 32.3874 252.004C31.2778 251.212 30.4852 249.945 30.4852 248.679" fill="#EF4380"/>
<path d="M59.9703 246.304C59.9703 246.304 61.2385 249.154 60.6044 250.42C59.6533 252.004 57.434 252.795 56.1658 253.112C49.0323 255.17 44.1181 253.745 36.6675 253.112C35.2408 252.954 33.6556 252.795 32.3874 252.004C31.2778 251.212 30.4852 249.945 30.4852 248.679" stroke="white" stroke-width="0.5" stroke-miterlimit="10"/>
<path d="M41.1073 234.746C40.3146 235.379 39.6806 236.329 39.0465 237.121C38.0953 238.229 36.8272 239.021 35.559 239.654C34.9249 239.971 34.1323 240.129 33.4982 239.812C33.0226 239.496 32.7056 239.021 32.3885 238.546C32.0715 238.071 31.4374 237.754 30.9618 238.229C30.6448 238.546 30.6448 239.021 30.6448 239.496C30.6448 242.662 30.3277 245.987 30.8033 248.995C31.5959 248.52 32.5471 248.204 33.4982 248.204C34.4493 248.204 35.4005 248.679 36.3516 248.837C38.8879 249.629 41.4243 249.787 44.1192 249.945C48.3993 250.104 52.9964 250.262 56.4839 247.887C57.435 247.254 60.1299 246.304 60.1299 246.304C59.8129 244.562 58.3862 241.079 56.4839 238.704C55.0572 236.962 47.6067 229.996 41.1073 234.746Z" fill="#EF4380" stroke="white" stroke-width="0.5" stroke-miterlimit="10"/>
<path d="M51.8856 240.446C50.9345 241.079 50.3004 242.187 50.776 243.137C51.8856 241.554 54.739 240.129 54.739 240.129C54.739 240.129 52.8368 239.812 51.8856 240.446Z" fill="#EF6898" stroke="white" stroke-width="0.5" stroke-miterlimit="10"/>
<path d="M48.8737 238.546C47.6056 239.812 48.0811 240.762 48.0811 240.762C50.1419 239.496 52.6783 237.754 52.6783 237.754C52.6783 237.754 50.6175 236.804 48.8737 238.546Z" fill="#EF6898" stroke="white" stroke-width="0.5" stroke-miterlimit="10"/>
<path d="M46.1789 235.695C45.0692 236.487 45.5448 237.912 45.5448 237.912C45.5448 237.912 48.3982 235.379 50.1419 234.904C50.3004 234.904 47.6056 234.587 46.1789 235.695Z" fill="#EF6898" stroke="white" stroke-width="0.5" stroke-miterlimit="10"/>
<path d="M89.7724 127.558L91.1991 144.974C87.0776 162.865 88.6628 191.206 91.9918 196.747C95.6378 202.922 91.8332 209.097 91.8332 209.097C98.3326 214.163 137.963 205.93 144.78 202.289C151.121 198.805 161.9 202.289 161.9 202.289C166.656 190.731 168.875 163.815 151.596 149.724C145.889 145.132 139.231 136.741 140.024 125.658C140.5 119.325 137.171 113.625 133.366 112.358" fill="white"/>
<path d="M89.7724 127.558L91.1991 144.974C87.0776 162.865 88.6628 191.206 91.9918 196.747C95.6378 202.922 91.8332 209.097 91.8332 209.097C98.3326 214.163 137.963 205.93 144.78 202.289C151.121 198.805 161.9 202.289 161.9 202.289C166.656 190.731 168.875 163.815 151.596 149.724C145.889 145.132 139.231 136.741 140.024 125.658C140.5 119.325 137.171 113.625 133.366 112.358" stroke="#EF6898" stroke-width="0.5" stroke-miterlimit="10"/>
<path d="M138.756 36.6776C140.5 37.6276 141.609 39.5275 141.926 41.4275C142.243 43.3274 141.768 45.3857 141.134 47.2856C140.5 49.1856 139.707 50.9272 139.39 52.8271C139.231 53.7771 139.231 54.7271 139.231 55.677C139.231 56.152 139.39 56.627 139.707 56.9437C140.024 57.2603 140.658 57.4186 140.975 57.102C140.658 57.4186 140.024 57.2603 139.549 56.9437C139.231 56.627 139.073 56.152 138.914 55.677C138.756 54.7271 138.756 53.7771 138.914 52.6688C139.231 50.7688 140.024 48.8689 140.658 46.969C141.292 45.069 141.768 43.1691 141.609 41.2691C141.451 39.6859 140.341 37.7859 138.756 36.6776Z" fill="#EF4380"/>
<path d="M77.2492 84.3339C76.7736 98.9002 99.2838 119.8 135.585 110.616C142.402 108.875 144.938 100.167 144.938 97.7919C144.938 92.4087 149.535 82.1174 149.535 82.1174C149.535 82.1174 168.717 42.3769 122.904 39.3687C122.904 39.3687 107.527 37.7854 92.7844 50.135" fill="white"/>
<path d="M77.2492 84.3339C76.7736 98.9002 99.2838 119.8 135.585 110.616C142.402 108.875 144.938 100.167 144.938 97.7919C144.938 92.4087 149.535 82.1174 149.535 82.1174C149.535 82.1174 168.717 42.3769 122.904 39.3687C122.904 39.3687 107.527 37.7854 92.7844 50.135" stroke="#EF6898" stroke-width="0.5" stroke-miterlimit="10"/>
<path d="M98.9667 55.0435C101.503 55.5185 104.198 55.3602 106.576 54.4102C108.954 53.4602 110.697 50.927 110.697 48.3937C110.697 47.6021 110.539 46.9688 110.697 46.1771C111.173 43.8022 114.185 43.1689 116.563 43.3272C119.575 43.6439 122.587 44.5938 124.964 46.3354C122.904 48.2354 123.379 51.7186 125.123 53.9352C126.867 56.1518 129.72 57.2601 132.256 58.3684C132.732 58.5267 133.208 58.8434 133.525 59.16C133.683 59.4767 133.842 59.9517 133.842 60.4267C134 63.7516 134.317 67.2348 136.061 70.0847C137.805 72.9346 140.975 75.1512 144.304 74.9929C143.829 76.7345 145.255 78.3178 146.523 79.2677C147.316 79.7427 149.06 81.1677 149.06 81.1677C157.62 62.8016 143.036 44.2772 129.879 40.7939C95.6378 31.7692 83.4316 54.4102 82.3219 62.1683C82.3219 62.1683 92.6258 53.7769 98.9667 55.0435Z" fill="#EF6898"/>
<path d="M123.696 40.3196C123.221 40.1613 122.745 40.0029 122.269 39.8446C121.16 39.528 120.05 39.2113 118.941 39.2113C117.672 39.2113 116.404 39.6863 115.295 40.4779C114.343 41.2696 111.966 42.3779 111.331 43.4862C110.539 45.0695 110.539 47.1277 110.539 48.0777C110.539 48.0777 110.38 46.6527 110.856 45.7028C111.014 45.3861 111.331 44.9111 112.283 44.2778C112.758 43.9612 113.234 43.8028 113.868 43.8028C114.66 43.4862 115.295 43.4862 115.453 43.4862C116.404 43.4862 117.831 43.6445 118.782 43.8028C120.209 44.1195 121.16 44.4361 122.111 44.7528C122.587 44.9111 124.172 45.7028 125.123 46.3361C125.123 46.3361 125.598 45.8611 125.916 45.3861C126.55 44.4361 126.708 42.3779 125.916 41.4279C125.44 40.9529 124.489 40.4779 123.696 40.3196Z" fill="#EF4380"/>
<path d="M138.439 52.9849C142.243 53.6182 145.731 55.6764 147.95 58.6847C149.06 60.268 149.852 62.0096 150.169 63.9095C150.487 65.8095 150.328 67.7094 149.694 69.451C150.804 65.8095 150.011 61.6929 147.633 58.843C145.731 55.8348 142.243 53.7765 138.439 52.9849Z" fill="#EF4380"/>
<path d="M115.295 84.6509C115.77 82.4343 117.989 80.851 120.209 81.0094C121.318 81.1677 124.013 81.4844 126.233 83.226C130.196 86.0759 130.83 89.0841 130.83 89.0841C130.83 89.0841 133.842 88.7675 134.317 89.7174C132.732 89.7174 131.147 90.9841 131.147 90.9841C131.147 90.9841 130.354 93.5173 130.196 94.4673C130.196 94.4673 130.196 91.4591 127.342 89.2425C120.843 83.8593 115.295 84.6509 115.295 84.6509Z" fill="#EF6898"/>
<path d="M111.173 91.3007C109.271 94.9422 104.674 97.0005 100.711 95.2589C96.7475 93.5173 94.8452 88.9257 96.1134 84.8092C96.4304 83.8592 94.8452 83.3843 94.5282 84.3342C93.1015 89.0841 95.3208 94.6256 100.076 96.6838C104.674 98.7421 110.222 96.3672 112.441 91.934C113.075 91.1423 111.649 90.3507 111.173 91.3007Z" fill="#EF6898"/>
<path d="M89.7725 68.8185C91.8333 68.3435 94.0526 68.9768 95.6378 70.4018C97.223 71.6684 98.1741 73.41 98.9668 75.1516C99.2838 75.1516 99.6008 74.835 99.7594 74.36C100.393 71.1934 98.8082 68.0269 95.1622 66.6019C94.5281 66.4436 93.7355 66.2852 93.26 65.8103C91.9918 64.702 92.3088 62.4854 90.7236 61.6937C90.5651 62.327 89.7725 68.8185 89.7725 68.8185Z" fill="#EF6898"/>
<path d="M101.345 55.5185C103.088 56.1518 104.039 58.8434 103.088 60.4267C102.93 60.585 102.771 60.9017 102.613 60.9017C102.296 61.06 101.979 60.7433 101.662 60.4267C100.552 59.4767 99.6008 58.2101 98.4911 57.2601C97.3815 56.3101 95.4792 55.2018 94.0525 55.3602C94.0525 55.5185 96.9059 54.0935 101.345 55.5185Z" fill="#EF6898"/>
<path d="M121.001 69.2926C120.843 69.2926 120.526 69.6093 120.526 69.9259C120.526 70.4009 121.001 70.7176 121.477 70.7176C126.391 72.1425 130.988 74.6758 134.951 78.0007C134.951 78.159 129.244 65.1761 121.001 69.2926Z" fill="#EF6898"/>
<path d="M81.6879 127.716C83.4316 136.582 88.5043 161.757 86.4436 168.406C84.6998 173.948 79.9441 173.473 75.8226 175.056C70.9084 176.956 65.9942 179.806 61.5556 182.814C59.0192 184.398 56.6414 186.298 53.9465 187.248C51.2516 188.356 48.2397 188.672 45.3863 188.672C36.0335 188.831 26.3636 183.606 17.9619 177.748C17.9619 177.748 8.13356 138.007 24.7784 106.658C27.4733 101.433 31.9119 97.1586 36.6676 93.5171C39.9965 91.1421 43.484 90.3505 47.7641 90.6671C56.1658 91.3005 73.7618 101.908 78.2004 103.333C95.1623 108.717 117.038 108.875 132.256 99.5335C132.256 99.5335 134.476 92.7254 135.11 90.5088C136.061 87.0256 139.549 86.7089 141.292 88.4506C141.926 89.0839 142.085 90.6671 142.085 90.6671C142.085 90.6671 148.426 85.6006 150.962 91.6171C152.23 94.6254 151.438 99.3752 149.06 101.117C146.048 103.333 141.451 102.542 138.756 105.075C137.171 106.658 136.378 109.825 134.793 111.408C115.612 130.566 79.6271 128.033 71.0669 126.766C66.4697 126.133 62.5067 124.233 62.5067 124.233" fill="white"/>
<path d="M81.6879 127.716C83.4316 136.582 88.5043 161.757 86.4436 168.406C84.6998 173.948 79.9441 173.473 75.8226 175.056C70.9084 176.956 65.9942 179.806 61.5556 182.814C59.0192 184.398 56.6414 186.298 53.9465 187.248C51.2516 188.356 48.2397 188.672 45.3863 188.672C36.0335 188.831 26.3636 183.606 17.9619 177.748C17.9619 177.748 8.13356 138.007 24.7784 106.658C27.4733 101.433 31.9119 97.1586 36.6676 93.5171C39.9965 91.1421 43.484 90.3505 47.7641 90.6671C56.1658 91.3005 73.7618 101.908 78.2004 103.333C95.1623 108.717 117.038 108.875 132.256 99.5335C132.256 99.5335 134.476 92.7254 135.11 90.5088C136.061 87.0256 139.549 86.7089 141.292 88.4506C141.926 89.0839 142.085 90.6671 142.085 90.6671C142.085 90.6671 148.426 85.6006 150.962 91.6171C152.23 94.6254 151.438 99.3752 149.06 101.117C146.048 103.333 141.451 102.542 138.756 105.075C137.171 106.658 136.378 109.825 134.793 111.408C115.612 130.566 79.6271 128.033 71.0669 126.766C66.4697 126.133 62.5067 124.233 62.5067 124.233" stroke="#EF4380" stroke-width="0.5" stroke-miterlimit="10"/>
<path d="M96.906 144.974C96.906 144.974 77.5663 149.091 58.7021 141.808C48.3982 137.849 35.3994 127.558 35.3994 127.558C35.3994 127.558 22.8761 125.975 22.242 121.542C20.9738 113.942 28.1073 112.834 28.1073 112.834C28.1073 112.834 27.1562 110.459 29.0585 109.509C34.1312 107.45 39.838 121.383 39.838 121.383C39.838 121.383 54.2635 128.508 64.8845 130.091C68.689 130.725 81.8464 131.675 89.931 127.875H91.0407" fill="white"/>
<path d="M83.5902 146.557C76.6152 146.557 67.4209 145.607 58.3851 142.124C48.5567 138.324 36.192 128.825 35.0823 127.875C33.8142 127.716 22.4006 125.975 21.6079 121.542C21.1324 119.167 21.6079 117.108 22.7176 115.367C24.1443 113.308 26.3636 112.675 27.4733 112.358C27.3147 111.883 27.1562 111.092 27.4733 110.3C27.7903 109.667 28.1074 109.35 28.7414 109.034C29.5341 108.717 30.4852 108.717 31.4363 109.034C35.5579 110.775 39.3624 119.642 39.9965 120.908C41.4232 121.7 54.8976 128.033 64.726 129.458C67.5794 129.933 80.2612 131.2 88.8214 127.716L90.7237 127.558L90.5651 127.716C82.322 132.308 67.7379 130.725 64.5675 130.25C54.105 128.666 39.521 121.542 39.521 121.542H39.3624V121.383C39.3624 121.225 35.3994 111.567 31.2778 109.825C30.4852 109.509 29.8511 109.509 29.217 109.825C28.7414 109.984 28.4244 110.3 28.2659 110.617C27.9488 111.409 28.4244 112.517 28.4244 112.517L28.5829 112.992H28.1074C28.1074 112.992 25.0954 113.467 23.5102 115.683C22.4006 117.108 22.0835 119.008 22.5591 121.225C23.1932 124.708 32.0704 126.608 35.3994 126.925H35.5579H35.7164C35.875 127.083 48.7153 137.058 59.0192 141.016C76.4567 147.824 94.3697 144.657 96.7475 144.341L96.589 145.132C95.1623 145.766 90.4066 146.557 83.5902 146.557Z" fill="#EF6898"/>
<path d="M35.2408 127.558C36.9845 126.291 39.2038 123.441 39.6794 121.383L35.2408 127.558Z" fill="white"/>
<path d="M35.5578 127.874C37.6186 126.291 39.5208 123.916 40.1549 121.541C40.3134 121.066 39.5208 120.908 39.3623 121.383C38.7282 123.6 36.9845 125.816 35.0822 127.241C34.7652 127.558 35.0822 128.191 35.5578 127.874Z" fill="#EF6898"/>
<path d="M132.415 99.8493C132.415 100.641 135.268 103.966 138.914 104.758L132.415 99.8493Z" fill="white"/>
<path d="M131.939 99.8498C132.098 100.958 133.049 101.908 133.842 102.541C135.268 103.808 136.854 104.758 138.756 105.233C139.231 105.391 139.39 104.6 138.914 104.441C137.329 104.125 135.903 103.333 134.634 102.225C134 101.75 132.891 100.8 132.732 99.8498C132.732 99.3748 131.939 99.3748 131.939 99.8498Z" fill="#EF4380"/>
<path d="M120.209 95.8922C121.16 95.8922 121.16 94.3089 120.209 94.3089C119.099 94.3089 119.099 95.8922 120.209 95.8922Z" fill="#EF6898"/>
<path d="M125.44 99.3753C126.391 99.3753 126.391 97.7921 125.44 97.7921C124.33 97.7921 124.33 99.3753 125.44 99.3753Z" fill="#EF6898"/>
<path d="M119.416 100.8C120.367 100.8 120.367 99.2166 119.416 99.2166C118.307 99.2166 118.307 100.8 119.416 100.8Z" fill="#EF6898"/>
<path d="M89.614 79.9003C90.5651 79.9003 90.5651 78.317 89.614 78.317C88.6629 78.317 88.6629 79.9003 89.614 79.9003Z" fill="#EF6898"/>
<path d="M90.248 84.967C91.1991 84.967 91.1991 83.3837 90.248 83.3837C89.1384 83.3837 89.1384 84.967 90.248 84.967Z" fill="#EF6898"/>
<path d="M90.565 65.6513C89.6139 67.5513 89.1383 69.7679 88.8213 71.8262C88.5042 75.4677 89.9309 79.9009 88.8213 83.5425C88.0286 86.0757 86.1264 89.4006 84.0656 90.9839C79.3099 94.9421 74.5543 95.4171 69.006 95.4171C62.1895 95.5754 55.5316 94.7838 48.8736 93.3588C42.8498 91.9339 36.826 89.7173 31.7532 85.9174C26.6805 82.1175 22.876 76.7343 21.7663 70.5595C21.7663 70.5595 20.1811 70.4012 17.6448 68.9762C16.5351 68.3429 15.4254 67.2346 14.1573 65.968C11.1453 62.6431 9.71865 51.4018 19.547 52.0351C19.547 52.0351 39.2038 -0.846598 86.919 32.719" fill="white"/>
<path d="M19.7055 51.5599L20.0225 52.3515H19.7055C16.535 52.1932 14.3157 53.3015 13.2061 55.5181C11.6208 59.0013 13.0475 63.7512 14.6328 65.6511C15.901 67.0761 17.0106 68.0261 17.9617 68.6594C20.3396 70.0843 21.9248 70.2427 21.9248 70.2427H22.2418V70.5593C23.193 76.2591 26.6805 81.8006 32.0702 85.7589C36.5088 89.0837 42.0571 91.4587 49.0321 93.2003C55.5315 94.7836 62.348 95.4169 69.0059 95.2586C74.5542 95.1002 79.3099 94.7836 83.907 90.8254C85.9678 89.0838 87.7115 85.7589 88.5042 83.5423C89.1383 81.484 88.9797 79.1091 88.6627 76.7341C88.5042 75.1508 88.3456 73.5676 88.5042 71.9843C88.6627 69.7677 89.2968 67.7094 90.2479 65.6511L90.4064 65.3345L90.882 66.4428C90.0894 68.3427 89.6138 70.2427 89.4553 72.1426C89.2968 73.5676 89.4553 75.1508 89.6138 76.7341C89.9309 79.1091 90.0894 81.6423 89.4553 83.8589C88.6627 86.2338 86.7604 89.7171 84.6996 91.617C79.944 95.7335 75.0298 96.0502 69.323 96.2085C68.6889 96.2085 68.2133 96.2085 67.5792 96.2085C61.3968 96.2085 55.2145 95.4169 49.0321 93.9919C41.8986 92.2503 36.1918 89.8754 31.7532 86.5505C26.3634 82.434 22.7174 76.8925 21.7663 71.1926C21.1322 71.0343 19.864 70.7176 17.8032 69.6094C16.8521 68.976 15.7424 68.0261 14.3157 66.4428C12.2549 64.2262 11.1453 58.843 12.7305 55.3598C13.5231 53.6182 15.4254 51.5599 19.7055 51.7182V51.5599Z" fill="#EF4380"/>
<path d="M20.8152 66.6013C20.9738 65.493 20.4982 64.2263 19.7056 63.4347C18.913 62.643 17.9618 61.8514 17.3278 61.0598C16.8522 60.4264 16.5351 59.0015 17.3278 58.2098C17.6448 57.8932 18.1204 57.7349 18.5959 57.7349C19.5471 57.8932 20.3397 58.6848 20.4982 59.6348" stroke="#EF4380" stroke-width="0.5" stroke-miterlimit="10" stroke-linecap="round"/>
<path d="M77.2492 64.7012C77.8833 63.1179 79.627 62.0096 81.3708 62.1679C85.4924 62.3263 88.1872 64.8595 88.6628 65.3345C89.4554 66.2845 88.8213 68.5011 88.8213 68.5011C88.0287 66.7595 83.4316 66.4428 82.1634 66.6011C78.6759 66.9178 76.9322 68.5011 76.9322 68.5011C76.9322 68.5011 76.7736 65.6512 77.2492 64.7012Z" fill="#EF4380"/>
<path d="M78.8343 33.5108C82.9559 38.2607 83.2729 45.8604 79.3099 50.7686C77.2491 44.5938 73.9201 38.894 69.64 33.9858C67.5792 31.6109 65.2014 29.3943 62.1895 28.4443C58.5435 27.336 54.4219 28.4443 50.7759 29.7109C37.777 34.6191 26.2049 45.8604 23.51 59.635C17.8032 51.0853 15.5839 40.3189 17.3277 30.3442C19.0714 20.3695 24.7782 10.8698 32.8629 4.69504C33.9725 5.32835 32.7043 8.17826 31.5947 9.60322C34.131 11.1865 37.3015 8.81157 39.8378 7.22829C48.2395 2.95342 58.3849 7.8616 67.2622 5.48668C70.9082 4.53671 74.2372 2.32011 77.8832 1.37014C81.5292 0.420168 86.2849 1.37014 87.7116 4.85336C83.7485 4.53671 79.6269 5.32835 75.9809 6.91163C82.7974 7.22829 87.0775 13.5614 93.4184 16.0947C107.527 21.4778 107.844 38.5773 108.002 42.2189C108.478 47.4437 107.051 52.6685 105.783 57.8934C103.564 54.4102 101.503 48.3937 98.0155 46.4937C100.076 48.552 99.6007 53.9352 98.8081 56.9434C96.9059 50.6103 93.2598 44.9105 91.3576 43.4855C93.5769 52.3519 94.0525 61.6933 92.4672 70.5597C89.9309 66.1265 88.6627 60.9016 86.919 56.1518C85.6508 52.8269 83.7485 49.3436 81.3707 46.8104" fill="#EF4380"/>
<path d="M78.677 33.6689C80.8963 36.3605 82.0059 39.5271 81.8474 43.0103C81.6889 44.5936 81.3718 46.1768 80.7377 47.6018C79.9451 49.5017 79.9451 49.8184 78.994 48.0768C76.7747 43.6436 74.8724 39.5271 71.8605 35.5688C69.1656 32.0856 65.8367 28.4441 61.2395 27.6524C56.9594 26.8608 52.5208 28.4441 48.7163 30.1857C39.9975 33.9856 32.2299 40.477 27.4743 48.7101C26.3646 50.61 25.4135 52.51 24.7794 54.5683C24.4623 55.3599 24.3038 57.2598 23.6697 57.8932C22.8771 58.8431 22.243 56.6265 21.609 55.5182C18.597 49.6601 17.1703 43.0103 17.3288 36.3605C17.4874 29.5524 19.3896 22.7442 22.8771 16.8861C24.4624 14.0362 26.5231 11.5029 28.7424 9.12799C29.218 8.65301 31.7544 5.64477 32.3885 5.8031C33.8152 6.11975 31.9129 8.81134 31.5959 9.44465C31.4373 9.60298 31.5959 9.91963 31.7544 10.078C36.193 11.9779 40.4731 6.91139 44.9117 6.27808C51.0941 5.16978 57.435 7.06972 63.6173 6.59474C69.4827 6.11975 74.2383 1.84488 79.9451 1.68656C81.5304 1.68656 83.4326 1.84488 84.8593 2.63653C88.3468 4.53647 85.6519 4.53647 83.7497 4.6948C81.0548 5.01145 78.5184 5.64477 75.9821 6.59474C75.5065 6.75307 75.665 7.38638 76.1406 7.38638C80.7377 7.86136 84.0667 10.5529 87.5542 13.0862C90.5661 15.3028 94.0536 16.2528 97.0655 18.311C102.614 21.7943 105.467 27.8107 106.894 34.1439C108.004 39.5271 108.321 45.3852 107.211 50.7684C107.052 51.2434 106.26 56.9432 105.784 56.9432C105.467 56.9432 103.565 52.8266 103.406 52.3517C102.138 49.9767 100.712 47.6018 98.3337 46.1768C97.8581 45.8602 97.5411 46.4935 97.8581 46.8102C99.4434 48.8684 99.6019 52.6683 98.9678 55.2016C98.6508 56.4682 98.9678 55.8349 98.6508 54.8849C98.3337 53.9349 98.0167 53.1433 97.5411 52.1933C96.1144 49.0268 94.3707 45.5435 91.6758 43.1686C91.3587 42.8519 90.8832 43.1686 91.0417 43.4853C92.1513 48.0768 92.944 52.8266 93.1025 57.5765C93.1025 59.7931 93.1025 61.8514 92.944 64.068C92.944 65.0179 92.7854 65.9679 92.6269 66.9179C92.4684 68.5012 92.7854 69.6095 91.6758 67.7095C89.298 64.2263 88.6639 59.1598 87.0786 55.3599C85.8105 52.035 84.0667 49.0268 81.6889 46.3352C81.3718 46.0185 80.7377 46.4935 81.0548 46.9685C86.9201 53.7766 88.0298 62.9597 92.1513 70.7178C92.3099 71.0344 92.7854 71.0344 92.944 70.5594C94.0536 63.7513 94.2121 57.1015 93.1025 50.2934C92.7854 48.5518 91.9928 46.3352 91.9928 44.5936C91.2002 43.8019 91.2002 43.8019 91.8343 44.4352C92.4684 45.0685 92.944 45.8602 93.4195 46.4935C95.6388 49.6601 97.0655 53.3016 98.3337 56.9432C98.4922 57.2598 98.9678 57.4182 99.1263 56.9432C99.9189 53.7766 100.236 50.1351 98.8093 47.1268C98.1752 45.7019 99.4434 48.2351 99.6019 48.3934C100.395 49.5017 101.187 50.4517 101.821 51.7183C103.089 53.7766 104.041 55.9932 105.15 58.0515C105.309 58.3681 105.784 58.3681 105.943 57.8932C108.796 46.8102 109.747 33.8272 103.248 23.8525C99.4434 17.8361 93.4195 16.5694 88.0298 12.6112C85.1764 10.5529 82.4815 8.17802 78.994 7.06972C77.4088 6.59474 75.665 6.75307 78.2014 6.27808C81.6889 5.8031 84.5423 5.16978 87.7127 5.32811C88.0298 5.32811 88.1883 5.01145 88.0298 4.6948C85.969 1.05324 81.6889 0.103272 77.7258 1.05324C74.3969 1.84488 71.5435 3.74483 68.373 4.6948C64.727 5.8031 61.081 5.8031 57.2765 5.48644C51.4111 5.01145 45.5458 4.06148 39.9975 6.91139C38.4123 7.70304 36.6686 9.28632 34.9248 9.60298C31.4373 9.91963 33.1811 8.81134 33.6566 7.38638C33.9737 6.27808 34.2907 5.32811 33.4981 4.37814C33.3396 4.21981 33.0226 4.21981 32.864 4.37814C15.9021 17.6777 11.7806 41.5853 23.3527 59.7931C23.5112 60.1097 23.9868 60.1098 24.1453 59.6348C26.8402 47.2851 35.8759 37.3105 46.9725 31.9273C53.9475 28.4441 61.7151 26.3858 68.056 32.5606C73.1287 37.6271 76.7747 44.1186 79.1525 50.9267C79.311 51.2434 79.6281 51.2434 79.9451 51.085C83.9082 45.7019 83.5911 38.5771 79.311 33.3522C78.8355 32.7189 78.3599 33.3522 78.677 33.6689Z" fill="#FBB3CD"/>
<path d="M83.2731 55.2015C84.5412 54.0932 86.4435 54.0932 87.5532 55.2015C88.6628 56.3098 90.4066 54.5681 89.2969 53.4598C87.2361 51.4016 83.7486 51.4016 81.6878 53.4598C80.4197 54.5681 82.1634 56.1514 83.2731 55.2015Z" fill="#EF4380"/>
<path d="M59.4947 64.7011C60.2873 62.4845 60.2873 59.6346 58.8606 57.893C57.5925 56.3097 55.3731 54.7264 53.6294 54.0931C50.459 52.8265 47.2885 52.5098 43.801 52.5098C40.3135 52.5098 36.826 54.4098 35.5579 57.418C38.4113 55.993 43.3255 56.468 45.5448 56.943C55.2146 58.5263 59.4947 64.7011 59.4947 64.7011Z" fill="#EF4380"/>
<path d="M53.9464 72.7756C52.3612 77.6838 54.422 83.3836 59.1777 85.6002C63.9333 87.8168 69.6401 85.4419 72.335 81.0087C72.8106 80.0587 71.5424 79.2671 70.9083 80.2171C68.689 84.0169 63.9333 86.0752 59.8118 84.1753C55.6902 82.2753 54.105 77.5255 55.3731 73.2506C55.8487 72.3006 54.2635 71.8257 53.9464 72.7756Z" fill="#EF4380"/>
<path d="M64.2504 51.4011C60.7629 43.8013 44.4351 40.1598 38.7283 44.593" stroke="#EF4380" stroke-width="1.5" stroke-miterlimit="10" stroke-linecap="round"/>
<path d="M23.5102 47.7598C21.2909 50.2931 21.6079 55.2012 23.5102 57.7345C23.6687 57.8928 23.8273 57.7345 23.6687 57.5762C21.925 55.0429 21.6079 50.293 23.6687 47.9181C23.6687 47.7598 23.5102 47.6015 23.5102 47.7598Z" fill="#EF6898"/>
<path d="M77.7248 28.4444C86.4435 31.4526 94.3696 37.7858 97.8571 46.4938C98.0156 46.9688 98.8082 46.8105 98.6497 46.3355C95.0037 37.3108 87.0776 30.8193 77.8833 27.8111C77.4077 27.6528 77.2492 28.2861 77.7248 28.4444Z" fill="#EF6898"/>
<path d="M105.625 36.3608C106.734 36.0442 107.844 35.8859 109.112 35.8859C110.222 35.8859 111.49 35.8859 112.6 36.2025C113.234 36.3608 113.709 36.6775 114.185 37.1525C114.343 37.3108 114.502 37.6275 114.661 37.9441C114.819 38.2608 114.661 38.5774 114.661 38.8941C114.502 39.5274 114.026 40.0024 113.551 40.3191C112.917 40.6357 112.283 40.4774 111.807 40.1607C111.49 39.8441 111.332 39.2108 111.649 38.7358C111.966 38.4191 112.441 38.1025 112.917 37.9441C113.868 37.7858 114.819 37.7858 115.612 38.4191C115.929 38.7358 116.246 39.2108 116.246 39.6857C116.246 40.1607 115.77 40.4774 115.612 40.9524C114.819 41.5857 114.819 42.5357 114.978 43.4856C114.978 43.0106 114.819 42.5357 114.978 42.0607C114.978 41.5857 115.295 41.1107 115.612 40.794C115.929 40.4774 116.246 40.0024 116.246 39.6857C116.246 39.2108 116.087 38.8941 115.612 38.5774C114.978 37.9441 113.868 37.9441 113.075 38.1025C112.6 38.2608 112.283 38.4191 111.966 38.7358C111.649 39.0524 111.807 39.5274 112.124 39.8441C112.6 40.1607 113.234 40.1607 113.709 40.0024C114.185 39.8441 114.502 39.3691 114.819 38.7358C114.978 38.4191 114.978 38.2608 114.978 37.9441C114.819 37.6275 114.661 37.4691 114.502 37.3108C114.185 36.8358 113.551 36.6775 113.075 36.5192C111.966 36.2025 110.856 36.0442 109.588 36.2025C107.844 36.0442 106.734 36.2025 105.625 36.3608Z" fill="#EF4380"/>
<path d="M125.123 46.3353C123.855 47.4436 123.538 49.3435 123.855 50.9268C124.172 52.5101 125.123 53.935 126.391 55.0433C127.659 56.1516 129.086 56.7849 130.671 57.5766C131.464 57.8932 132.256 58.2099 132.89 58.6849C133.208 58.8432 133.683 59.1599 133.842 59.6349C134 60.1098 134 60.4265 134 60.9015C134 62.4848 134.159 64.2264 134.476 65.8097C134.793 67.3929 135.427 68.9762 136.219 70.4012C137.012 71.8261 138.28 73.0928 139.548 73.8844C140.975 74.8344 142.56 75.3094 144.146 75.151H144.304V75.3094C144.304 76.101 144.304 76.8927 144.621 77.526C144.938 78.1593 145.572 78.6343 146.048 79.1093L147.95 80.3759C148.267 80.5342 148.584 80.8509 148.901 81.1675C149.06 81.3259 149.218 81.3259 149.218 81.6425C149.218 81.8008 149.06 81.9592 149.06 82.2758L147.475 86.234C146.999 87.659 146.523 89.0839 146.048 90.5089C145.572 91.9339 145.255 93.5171 145.414 94.9421C145.572 95.7337 145.731 96.3671 146.206 97.0004C146.682 97.6337 147.316 97.9503 147.95 98.4253C149.218 99.3753 149.852 100.959 149.535 102.542C149.218 103.967 148.267 105.392 146.999 106.342C145.731 107.292 144.463 107.925 143.353 109.033C142.243 109.983 141.292 111.25 140.975 112.833C140.658 114.258 141.134 115.841 142.085 117.108C142.56 117.741 143.194 118.216 143.67 118.691C143.987 119.008 144.304 119.166 144.463 119.483C144.621 119.8 144.78 120.116 144.938 120.591C145.414 122.016 145.255 123.6 144.78 125.024C144.304 126.449 143.67 127.874 143.036 129.299C142.719 129.933 142.56 130.724 142.402 131.516C142.402 131.833 142.243 132.308 142.243 132.624C142.243 132.941 142.402 133.416 142.402 133.733C143.036 135.158 144.304 136.266 145.731 136.582C144.304 136.266 143.036 135.158 142.402 133.733C142.243 133.416 142.243 132.941 142.243 132.624C142.243 132.308 142.402 131.833 142.402 131.516C142.56 130.724 142.719 130.091 143.036 129.299C143.511 127.874 144.304 126.449 144.78 125.024C145.255 123.6 145.414 122.016 144.938 120.591C144.78 120.275 144.621 119.958 144.463 119.483C144.304 119.166 143.987 119.008 143.67 118.691C143.036 118.216 142.56 117.741 142.085 117.108C141.134 116 140.658 114.258 140.975 112.833C141.134 111.25 142.243 109.983 143.353 109.033C144.463 108.083 145.889 107.292 146.999 106.342C148.267 105.392 149.06 104.125 149.377 102.7C149.694 101.275 149.06 99.692 147.792 98.742C147.157 98.267 146.523 97.9503 146.048 97.317C145.572 96.6837 145.255 95.8921 145.255 95.2588C145.097 93.6755 145.414 92.2505 145.889 90.6672C146.365 89.2423 146.84 87.8173 147.316 86.3924L149.06 82.1175C149.06 81.9592 149.218 81.8008 149.218 81.6425C149.218 81.6425 149.06 81.3259 148.901 81.3259C148.584 81.0092 148.267 80.8509 148.109 80.5342L146.206 79.2676C145.572 78.7926 144.938 78.3176 144.621 77.526C144.304 76.7343 144.304 75.9427 144.304 75.3094V75.4677C142.719 75.7844 140.975 75.151 139.548 74.2011C138.122 73.2511 136.854 72.1428 136.061 70.5595C135.268 69.1346 134.634 67.5513 134.317 65.968C134 64.3847 133.683 62.6431 133.842 61.0598C133.842 60.5848 133.842 60.2682 133.683 59.9515C133.525 59.6349 133.208 59.3182 132.89 59.1599C132.256 58.6849 131.464 58.5266 130.671 58.0516C129.086 57.4183 127.659 56.6266 126.391 55.5183C125.123 54.41 124.172 52.9851 123.855 51.2434C123.538 49.3435 124.013 47.6019 125.123 46.3353Z" fill="#EF4380"/>
</svg>
