<svg width="263" height="231" viewBox="0 0 263 231" fill="none" xmlns="http://www.w3.org/2000/svg">
<path d="M123.419 221.532L123.43 221.542L123.441 221.552C125.767 223.551 128.44 224.557 131.44 224.557C134.44 224.557 137.113 223.551 139.439 221.552L139.45 221.542L139.461 221.532L229.136 134.523C229.136 134.523 229.137 134.522 229.137 134.522C235.876 128.088 241.814 121.01 246.949 113.288C257.22 98.1651 262.38 83.3273 262.38 68.7825C262.38 47.5298 256.113 30.8827 243.527 18.9098C231.261 6.61722 214.177 0.5 192.344 0.5C181.038 0.5 169.12 4.38563 156.597 12.1098C148.049 17.1882 139.664 23.6708 131.44 31.5537C123.216 23.6707 114.83 17.188 106.282 12.1096C93.76 4.38555 81.8419 0.5 70.536 0.5C48.6995 0.5 31.4576 6.619 18.8739 18.9099C6.60617 30.884 0.5 47.531 0.5 68.7825C0.5 83.6527 5.983 98.9733 16.8939 114.736C22.6602 123.085 28.278 129.687 33.7498 134.528L123.419 221.532Z" fill="#EF6898" stroke="black"/>
<path fill-rule="evenodd" clip-rule="evenodd" d="M170.345 5.61509C177.934 2.53836 185.267 1 192.344 1C214.084 1 231.028 7.08921 243.177 19.2676C255.646 31.1255 261.88 47.6305 261.88 68.7825C261.88 83.2043 256.765 97.9466 246.534 113.009C241.419 120.701 235.504 127.752 228.79 134.161L139.113 221.173C136.875 223.096 134.317 224.057 131.44 224.057C128.563 224.057 126.005 223.096 123.767 221.173L34.0896 134.161C28.6546 129.354 23.0598 122.784 17.305 114.452C12.7997 107.943 9.22796 101.516 6.58997 95.1727C8.90118 100.357 11.869 105.6 15.4935 110.902C20.7893 118.666 25.938 124.788 30.9397 129.268L113.466 210.345C115.526 212.137 117.88 213.033 120.528 213.033C123.175 213.033 125.529 212.137 127.589 210.345L210.115 129.268C216.294 123.295 221.737 116.725 226.444 109.558C235.859 95.5226 240.566 81.7857 240.566 68.3475C240.566 48.638 234.829 33.2587 223.355 22.2095C212.175 10.8616 196.582 5.18771 176.575 5.18771C174.522 5.18771 172.445 5.33017 170.345 5.61509ZM127.125 28.2301C120.2 22.0116 113.167 16.7808 106.023 12.5374C93.5549 4.84581 81.7258 1 70.5361 1C48.7961 1 31.6918 7.08921 19.2233 19.2676C15.2543 23.1415 11.9337 27.5114 9.26139 32.3773C11.4991 28.6564 14.1649 25.2672 17.2588 22.2095C28.7331 10.8616 44.4735 5.18771 64.4799 5.18771C74.7774 5.18771 85.6633 8.77124 97.1376 15.9383C105.081 20.7164 112.878 26.8382 120.528 34.3039C122.715 32.1695 124.914 30.1449 127.125 28.2301Z" fill="#EE4380"/>
<path fill-rule="evenodd" clip-rule="evenodd" d="M17.7853 20.7224C15.3482 30.8367 14.1297 42.1792 14.1297 54.7497C14.1297 74.4513 19.6428 94.7953 30.6691 115.782C36.5066 126.917 42.1819 135.698 47.695 142.122L64.7079 163.869L34.0896 134.161C28.6546 129.354 23.0597 122.784 17.305 114.451C6.435 98.7477 1 83.5246 1 68.7824C1 48.482 6.5951 32.4621 17.7853 20.7224Z" fill="white"/>
<path d="M51.4522 141.265L51.4522 141.265H130.31L112.838 229.846H68.9238L51.4522 141.265Z" fill="#EF6898" stroke="#363636" stroke-width="2"/>
<path d="M106.067 229.052L121.843 142.059H129.293L112.64 229.052H106.067Z" fill="#EE4380"/>
<path d="M70.7817 229.052L53.809 142.059H52.4691L69.4418 229.052H70.7817Z" fill="white"/>
<path d="M51.9262 164.583L128.942 164.583L120.896 201.147L59.9725 201.147L51.9262 164.583Z" fill="white" stroke="#363636" stroke-width="2"/>
<path d="M53.5372 137.471L61.8496 126.019H119.912L128.225 137.471H53.5372Z" fill="white" stroke="#363636" stroke-width="2"/>
<mask id="path-9-inside-1_279_1889" fill="white">
<rect x="48.8959" y="136.678" width="83.9702" height="5.38106" rx="1"/>
</mask>
<rect x="48.8959" y="136.678" width="83.9702" height="5.38106" rx="1" fill="white" stroke="#363636" stroke-width="4" mask="url(#path-9-inside-1_279_1889)"/>
<path d="M132.35 141.265L132.35 141.265H211.208L193.736 229.846H149.822L132.35 141.265Z" fill="#EF6898" stroke="#363636" stroke-width="2"/>
<path d="M186.965 229.052L202.741 142.059H210.191L193.538 229.052H186.965Z" fill="#EE4380"/>
<path d="M151.68 229.052L134.707 142.059H133.367L150.34 229.052H151.68Z" fill="white"/>
<path d="M132.824 164.583L209.84 164.583L201.794 201.147L140.87 201.147L132.824 164.583Z" fill="white" stroke="#363636" stroke-width="2"/>
<path d="M134.435 137.471L142.747 126.019H200.81L209.123 137.471H134.435Z" fill="white" stroke="#363636" stroke-width="2"/>
<mask id="path-15-inside-2_279_1889" fill="white">
<rect x="129.794" y="136.678" width="83.9702" height="5.38106" rx="1"/>
</mask>
<rect x="129.794" y="136.678" width="83.9702" height="5.38106" rx="1" fill="white" stroke="#363636" stroke-width="4" mask="url(#path-15-inside-2_279_1889)"/>
<path d="M85.4415 128.074L85.4415 128.074L176.195 128.074L156.109 229.846H105.527L85.4415 128.074Z" fill="#EF6898" stroke="#363636" stroke-width="2"/>
<path d="M148.227 228.791L166.311 129.129H174.851L155.762 228.791H148.227Z" fill="#EE4380"/>
<path d="M107.778 228.791L88.3211 129.129H86.785L106.242 228.791H107.778Z" fill="white"/>
<path d="M85.9811 154.787L174.631 154.787L165.343 196.968L95.269 196.968L85.9811 154.787Z" fill="white" stroke="#363636" stroke-width="2"/>
<path d="M87.7233 124.018L97.4636 110.607H164.173L173.913 124.018H87.7233Z" fill="white" stroke="#363636" stroke-width="2"/>
<mask id="path-21-inside-3_279_1889" fill="white">
<rect x="82.689" y="122.963" width="96.2586" height="6.16471" rx="1"/>
</mask>
<rect x="82.689" y="122.963" width="96.2586" height="6.16471" rx="1" fill="white" stroke="#363636" stroke-width="4" mask="url(#path-21-inside-3_279_1889)"/>
<path d="M116.41 67.8862C100.267 82.887 104.123 101.094 110.85 108.065C106.361 92.5838 100.888 88.0238 121.602 72.6184C142.919 56.7645 123.263 33.8471 110.85 32.034C122.331 37.5632 132.553 52.8854 116.41 67.8862Z" fill="#E1E1E1" fill-opacity="0.23"/>
<path d="M134.914 74.6731C117.724 84.5233 110.977 95.9585 115.458 103.442C114.664 88.9571 118.424 89.0818 139.702 79.8104C161.6 70.269 150.214 39.7537 139.702 35.6299C148.642 42.8201 152.104 64.8229 134.914 74.6731Z" fill="#E1E1E1" fill-opacity="0.23"/>
<path d="M99.6415 68.3443C85.8293 84.0094 95.3557 101.026 101.845 107.576C96.9126 92.4942 88.817 89.4319 106.753 73.1321C125.212 56.3577 97.6358 36.7864 86.2728 35.6301C96.9961 40.5098 113.454 52.6792 99.6415 68.3443Z" fill="#E1E1E1" fill-opacity="0.23"/>
</svg>
